quattrocento_bold.sfdir
StartChar: exclam
Encoding: 33 33 71
Width: 268
Flags: W
LayerCount: 2
Back
Fore
SplineSet
196 683 m 1,0,1
 196 674 196 674 195.5 666.5 c 128,-1,2
 195 659 195 659 195 654 c 0,3,4
 195 643 195 643 194 632 c 128,-1,5
 193 621 193 621 191.5 602.5 c 128,-1,6
 190 584 190 584 188 553.5 c 128,-1,7
 186 523 186 523 183.5 473 c 128,-1,8
 181 423 181 423 178.5 349.5 c 128,-1,9
 176 276 176 276 173 172 c 1,10,-1
 168 165 l 1,11,-1
 93 139 l 1,12,-1
 87 143 l 1,13,14
 85 242 85 242 82.5 314.5 c 128,-1,15
 80 387 80 387 78 438.5 c 128,-1,16
 76 490 76 490 74 524.5 c 128,-1,17
 72 559 72 559 70 581.5 c 128,-1,18
 68 604 68 604 67 617.5 c 128,-1,19
 66 631 66 631 65 641 c 1,20,-1
 69 650 l 1,21,-1
 191 686 l 1,22,-1
 196 683 l 1,0,1
66 53 m 0,23,24
 66 65 66 65 71 77 c 128,-1,25
 76 89 76 89 85 98.5 c 128,-1,26
 94 108 94 108 105.5 113.5 c 128,-1,27
 117 119 117 119 130 119 c 0,28,29
 155 119 155 119 175.5 98.5 c 128,-1,30
 196 78 196 78 196 53 c 0,31,32
 196 40 196 40 190.5 28.5 c 128,-1,33
 185 17 185 17 175.5 8 c 128,-1,34
 166 -1 166 -1 154 -6 c 128,-1,35
 142 -11 142 -11 130 -11 c 0,36,37
 104 -11 104 -11 85 8 c 128,-1,38
 66 27 66 27 66 53 c 0,23,24
EndSplineSet
EndChar
StartChar: quotedbl
Encoding: 34 34 120
Width: 340
Flags: W
LayerCount: 2
Back
Fore
SplineSet
69 516 m 1,0,-1
 67 521 l 1,1,2
 66 569 66 569 63.5 619.5 c 128,-1,3
 61 670 61 670 55 717 c 1,4,-1
 56 721 l 1,5,-1
 153 730 l 1,6,-1
 155 726 l 1,7,8
 149 683 149 683 146 632 c 128,-1,9
 143 581 143 581 143 530 c 1,10,-1
 141 526 l 1,11,-1
 69 516 l 1,0,-1
202 516 m 1,12,-1
 200 521 l 1,13,14
 199 569 199 569 196.5 619.5 c 128,-1,15
 194 670 194 670 188 717 c 1,16,-1
 190 721 l 1,17,-1
 286 730 l 1,18,-1
 288 726 l 1,19,20
 282 683 282 683 279 632 c 128,-1,21
 276 581 276 581 276 530 c 1,22,-1
 274 526 l 1,23,-1
 202 516 l 1,12,-1
EndSplineSet
EndChar
StartChar: numbersign
Encoding: 35 35 101
Width: 625
Flags: W
LayerCount: 2
Back
Fore
SplineSet
276 4 m 1,0,1
 291 49 291 49 305 101 c 128,-1,2
 319 153 319 153 331 207 c 1,3,-1
 237 207 l 1,4,5
 226 153 226 153 218.5 101 c 128,-1,6
 211 49 211 49 206 4 c 1,7,-1
 203 0 l 1,8,-1
 87 0 l 1,9,-1
 86 4 l 1,10,11
 101 49 101 49 115 101 c 128,-1,12
 129 153 129 153 141 207 c 1,13,-1
 41 207 l 1,14,-1
 56 290 l 1,15,-1
 159 290 l 1,16,-1
 178 379 l 1,17,-1
 70 379 l 1,18,-1
 85 461 l 1,19,-1
 195 461 l 1,20,21
 205 506 205 506 212 556.5 c 128,-1,22
 219 607 219 607 224 650 c 1,23,-1
 226 654 l 1,24,-1
 342 654 l 1,25,-1
 344 650 l 1,26,27
 328 607 328 607 314.5 556.5 c 128,-1,28
 301 506 301 506 291 461 c 1,29,-1
 385 461 l 1,30,31
 395 506 395 506 402 556.5 c 128,-1,32
 409 607 409 607 414 650 c 1,33,-1
 416 654 l 1,34,-1
 532 654 l 1,35,-1
 534 650 l 1,36,37
 518 607 518 607 504.5 556.5 c 128,-1,38
 491 506 491 506 481 461 c 1,39,-1
 587 461 l 1,40,-1
 572 379 l 1,41,-1
 464 379 l 1,42,-1
 445 290 l 1,43,-1
 556 290 l 1,44,-1
 541 207 l 1,45,-1
 427 207 l 1,46,47
 416 153 416 153 408.5 101 c 128,-1,48
 401 49 401 49 396 4 c 1,49,-1
 393 0 l 1,50,-1
 277 0 l 1,51,-1
 276 4 l 1,0,1
255 290 m 1,52,-1
 349 290 l 1,53,-1
 368 379 l 1,54,-1
 273 379 l 1,55,-1
 255 290 l 1,52,-1
EndSplineSet
EndChar
StartChar: dollar
Encoding: 36 36 63
Width: 535
Flags: W
LayerCount: 2
Back
Fore
SplineSet
173 509 m 0,0,1
 173 468 173 468 207.5 443 c 128,-1,2
 242 418 242 418 318 392 c 0,3,4
 352 380 352 380 384 362.5 c 128,-1,5
 416 345 416 345 441 319.5 c 128,-1,6
 466 294 466 294 481.5 258.5 c 128,-1,7
 497 223 497 223 497 176 c 0,8,9
 497 135 497 135 481.5 104.5 c 128,-1,10
 466 74 466 74 441 53 c 128,-1,11
 416 32 416 32 384.5 20 c 128,-1,12
 353 8 353 8 321 3 c 1,13,14
 323 -26 323 -26 325 -54.5 c 128,-1,15
 327 -83 327 -83 331 -110 c 1,16,-1
 329 -114 l 1,17,-1
 213 -114 l 1,18,-1
 212 -110 l 1,19,20
 215 -84 215 -84 216.5 -55.5 c 128,-1,21
 218 -27 218 -27 220 2 c 1,22,23
 169 7 169 7 129.5 19.5 c 128,-1,24
 90 32 90 32 51 49 c 1,25,-1
 47 62 l 1,26,-1
 64 189 l 1,27,-1
 109 189 l 1,28,-1
 114 183 l 1,29,30
 119 127 119 127 152.5 101 c 128,-1,31
 186 75 186 75 253 75 c 0,32,33
 321 75 321 75 350.5 100 c 128,-1,34
 380 125 380 125 380 163 c 0,35,36
 380 193 380 193 368 214 c 128,-1,37
 356 235 356 235 336.5 249.5 c 128,-1,38
 317 264 317 264 292 274.5 c 128,-1,39
 267 285 267 285 240 294 c 0,40,41
 200 309 200 309 167 326 c 128,-1,42
 134 343 134 343 110 366 c 128,-1,43
 86 389 86 389 73 420.5 c 128,-1,44
 60 452 60 452 60 495 c 0,45,46
 60 533 60 533 72 561.5 c 128,-1,47
 84 590 84 590 106 609 c 128,-1,48
 128 628 128 628 157.5 639 c 128,-1,49
 187 650 187 650 222 654 c 1,50,51
 220 683 220 683 218 711 c 128,-1,52
 216 739 216 739 212 764 c 1,53,-1
 213 768 l 1,54,-1
 329 768 l 1,55,-1
 331 764 l 1,56,57
 324 713 324 713 322 653 c 1,58,59
 360 649 360 649 389 640 c 128,-1,60
 418 631 418 631 445 619 c 1,61,-1
 449 608 l 1,62,-1
 435 509 l 1,63,-1
 387 509 l 1,64,-1
 382 514 l 1,65,66
 380 535 380 535 369.5 548 c 128,-1,67
 359 561 359 561 344.5 567.5 c 128,-1,68
 330 574 330 574 314 576.5 c 128,-1,69
 298 579 298 579 284 579 c 0,70,71
 224 579 224 579 198.5 561 c 128,-1,72
 173 543 173 543 173 509 c 0,0,1
EndSplineSet
EndChar
StartChar: percent
Encoding: 37 37 229
Width: 835
Flags: W
LayerCount: 2
Back
Fore
SplineSet
195 660 m 0,0,1
 232 660 232 660 260.5 646 c 128,-1,2
 289 632 289 632 309 607 c 128,-1,3
 329 582 329 582 339.5 549 c 128,-1,4
 350 516 350 516 350 477 c 0,5,6
 350 439 350 439 340 405.5 c 128,-1,7
 330 372 330 372 310 346.5 c 128,-1,8
 290 321 290 321 260.5 306.5 c 128,-1,9
 231 292 231 292 192 292 c 0,10,11
 154 292 154 292 126 306 c 128,-1,12
 98 320 98 320 78.5 344 c 128,-1,13
 59 368 59 368 49.5 401 c 128,-1,14
 40 434 40 434 40 473 c 0,15,16
 40 514 40 514 50.5 548.5 c 128,-1,17
 61 583 61 583 81 607.5 c 128,-1,18
 101 632 101 632 130 646 c 128,-1,19
 159 660 159 660 195 660 c 0,0,1
195 350 m 0,20,21
 231 350 231 350 252.5 385 c 128,-1,22
 274 420 274 420 274 477 c 0,23,24
 274 535 274 535 252 568.5 c 128,-1,25
 230 602 230 602 193 602 c 0,26,27
 157 602 157 602 136.5 569 c 128,-1,28
 116 536 116 536 116 477 c 0,29,30
 116 412 116 412 139 381 c 128,-1,31
 162 350 162 350 195 350 c 0,20,21
641 369 m 0,32,33
 678 369 678 369 706.5 355 c 128,-1,34
 735 341 735 341 755 316 c 128,-1,35
 775 291 775 291 785.5 258 c 128,-1,36
 796 225 796 225 796 186 c 0,37,38
 796 148 796 148 786 114.5 c 128,-1,39
 776 81 776 81 756 55.5 c 128,-1,40
 736 30 736 30 706.5 15.5 c 128,-1,41
 677 1 677 1 638 1 c 0,42,43
 600 1 600 1 572 15 c 128,-1,44
 544 29 544 29 524.5 53 c 128,-1,45
 505 77 505 77 495.5 110 c 128,-1,46
 486 143 486 143 486 182 c 0,47,48
 486 223 486 223 496.5 257.5 c 128,-1,49
 507 292 507 292 527 316.5 c 128,-1,50
 547 341 547 341 576 355 c 128,-1,51
 605 369 605 369 641 369 c 0,32,33
641 59 m 0,52,53
 677 59 677 59 698.5 94 c 128,-1,54
 720 129 720 129 720 186 c 0,55,56
 720 244 720 244 698 277.5 c 128,-1,57
 676 311 676 311 639 311 c 0,58,59
 603 311 603 311 582.5 278 c 128,-1,60
 562 245 562 245 562 186 c 0,61,62
 562 121 562 121 585 90 c 128,-1,63
 608 59 608 59 641 59 c 0,52,53
132 23 m 1,64,65
 160 56 160 56 184 86 c 128,-1,66
 208 116 208 116 231.5 146 c 128,-1,67
 255 176 255 176 278.5 208 c 128,-1,68
 302 240 302 240 329 278 c 2,69,-1
 449 443 l 2,70,71
 486 494 486 494 526 550 c 128,-1,72
 566 606 566 606 601 669 c 1,73,-1
 606 673 l 1,74,-1
 722 673 l 1,75,-1
 721 669 l 1,76,77
 671 613 671 613 631.5 560.5 c 128,-1,78
 592 508 592 508 558 461 c 2,79,-1
 425 278 l 2,80,81
 398 240 398 240 375 208 c 128,-1,82
 352 176 352 176 331.5 146 c 128,-1,83
 311 116 311 116 292 86 c 128,-1,84
 273 56 273 56 252 23 c 1,85,-1
 247 19 l 1,86,-1
 131 19 l 1,87,-1
 132 23 l 1,64,65
EndSplineSet
Ligature2: "'frac' Diagonal Fractions in Latin lookup 5 subtable" zero slash zero
EndChar
StartChar: ampersand
Encoding: 38 38 36
Width: 742
Flags: W
LayerCount: 2
Back
Fore
SplineSet
469 233 m 0,0,1
 469 260 469 260 461 289.5 c 128,-1,2
 453 319 453 319 439 339 c 1,3,4
 420 337 420 337 412 331 c 128,-1,5
 404 325 404 325 396 315 c 1,6,-1
 382 337 l 1,7,8
 382 346 382 346 388 361 c 128,-1,9
 394 376 394 376 406 391 c 128,-1,10
 418 406 418 406 435.5 417 c 128,-1,11
 453 428 453 428 477 428 c 0,12,13
 486 428 486 428 502 426.5 c 128,-1,14
 518 425 518 425 537.5 423.5 c 128,-1,15
 557 422 557 422 578 421 c 128,-1,16
 599 420 599 420 619 420 c 0,17,18
 638 420 638 420 655 421.5 c 128,-1,19
 672 423 672 423 685 431 c 1,20,-1
 698 408 l 2,21,22
 698 405 698 405 693 392.5 c 128,-1,23
 688 380 688 380 677.5 366.5 c 128,-1,24
 667 353 667 353 650 342 c 128,-1,25
 633 331 633 331 608 331 c 0,26,27
 598 331 598 331 576 332.5 c 128,-1,28
 554 334 554 334 531 336 c 1,29,30
 538 318 538 318 544 295 c 128,-1,31
 550 272 550 272 550 252 c 0,32,33
 550 219 550 219 544 189 c 128,-1,34
 538 159 538 159 528 132 c 1,35,36
 563 93 563 93 597 71 c 128,-1,37
 631 49 631 49 681 46 c 1,38,-1
 686 41 l 1,39,-1
 689 -2 l 1,40,-1
 686 -6 l 1,41,42
 676 -6 676 -6 660.5 -6.5 c 128,-1,43
 645 -7 645 -7 629 -8 c 128,-1,44
 613 -9 613 -9 600 -9.5 c 128,-1,45
 587 -10 587 -10 581 -10 c 0,46,47
 551 -10 551 -10 522 9 c 128,-1,48
 493 28 493 28 467 54 c 1,49,50
 429 23 429 23 380 6.5 c 128,-1,51
 331 -10 331 -10 277 -10 c 0,52,53
 233 -10 233 -10 192 1.5 c 128,-1,54
 151 13 151 13 119 36 c 128,-1,55
 87 59 87 59 68 93 c 128,-1,56
 49 127 49 127 49 172 c 0,57,58
 49 202 49 202 58 232 c 128,-1,59
 67 262 67 262 83.5 288.5 c 128,-1,60
 100 315 100 315 124.5 336.5 c 128,-1,61
 149 358 149 358 180 370 c 1,62,63
 148 412 148 412 133 443.5 c 128,-1,64
 118 475 118 475 118 513 c 0,65,66
 118 548 118 548 130 576 c 128,-1,67
 142 604 142 604 163 623.5 c 128,-1,68
 184 643 184 643 212.5 653 c 128,-1,69
 241 663 241 663 274 663 c 0,70,71
 296 663 296 663 319 658 c 128,-1,72
 342 653 342 653 362 641 c 128,-1,73
 382 629 382 629 396.5 610 c 128,-1,74
 411 591 411 591 416 564 c 2,75,-1
 419 554 l 1,76,-1
 407 483 l 1,77,-1
 354 483 l 1,78,-1
 350 487 l 1,79,80
 345 540 345 540 329 561 c 128,-1,81
 313 582 313 582 280 582 c 0,82,83
 251 582 251 582 233.5 564.5 c 128,-1,84
 216 547 216 547 216 526 c 0,85,86
 216 507 216 507 222 489.5 c 128,-1,87
 228 472 228 472 236 455 c 0,88,89
 243 440 243 440 257 419.5 c 128,-1,90
 271 399 271 399 296.5 368.5 c 128,-1,91
 322 338 322 338 361.5 294.5 c 128,-1,92
 401 251 401 251 459 188 c 1,93,94
 469 209 469 209 469 233 c 0,0,1
404 121 m 1,95,96
 364 165 364 165 323 208 c 128,-1,97
 282 251 282 251 239 301 c 1,98,99
 202 289 202 289 181.5 258 c 128,-1,100
 161 227 161 227 161 182 c 0,101,102
 161 156 161 156 172.5 136 c 128,-1,103
 184 116 184 116 202 102 c 128,-1,104
 220 88 220 88 243 81 c 128,-1,105
 266 74 266 74 289 74 c 0,106,107
 320 74 320 74 350.5 86 c 128,-1,108
 381 98 381 98 404 121 c 1,95,96
EndSplineSet
EndChar
StartChar: quotesingle
Encoding: 39 39 123
Width: 207
Flags: W
LayerCount: 2
Back
Fore
SplineSet
69 516 m 1,0,-1
 67 521 l 1,1,2
 66 569 66 569 63.5 619.5 c 128,-1,3
 61 670 61 670 55 717 c 1,4,-1
 56 721 l 1,5,-1
 153 730 l 1,6,-1
 155 726 l 1,7,8
 149 683 149 683 146 632 c 128,-1,9
 143 581 143 581 143 530 c 1,10,-1
 141 526 l 1,11,-1
 69 516 l 1,0,-1
EndSplineSet
EndChar
StartChar: parenleft
Encoding: 40 40 110
Width: 309
Flags: W
LayerCount: 2
Back
Fore
SplineSet
286 740 m 1,0,-1
 286 735 l 1,1,2
 248 687 248 687 220.5 634.5 c 128,-1,3
 193 582 193 582 179 523 c 0,4,5
 165 468 165 468 162 416.5 c 128,-1,6
 159 365 159 365 159 327 c 0,7,8
 159 288 159 288 162 241 c 128,-1,9
 165 194 165 194 178 141.5 c 128,-1,10
 191 89 191 89 216 32.5 c 128,-1,11
 241 -24 241 -24 286 -81 c 1,12,-1
 286 -86 l 1,13,-1
 241 -117 l 1,14,15
 145 -31 145 -31 92 84 c 128,-1,16
 39 199 39 199 39 327 c 256,17,18
 39 455 39 455 92 569 c 128,-1,19
 145 683 145 683 241 771 c 1,20,-1
 286 740 l 1,0,-1
EndSplineSet
EndChar
StartChar: parenright
Encoding: 41 41 111
Width: 309
Flags: W
LayerCount: 2
Back
Fore
SplineSet
68 771 m 1,0,1
 164 683 164 683 217 569 c 128,-1,2
 270 455 270 455 270 327 c 256,3,4
 270 199 270 199 217 84 c 128,-1,5
 164 -31 164 -31 68 -117 c 1,6,-1
 23 -86 l 1,7,-1
 23 -81 l 1,8,9
 68 -24 68 -24 93 32.5 c 128,-1,10
 118 89 118 89 131 141.5 c 128,-1,11
 144 194 144 194 147 241 c 128,-1,12
 150 288 150 288 150 327 c 0,13,14
 150 365 150 365 147 416.5 c 128,-1,15
 144 468 144 468 130 523 c 0,16,17
 116 582 116 582 88.5 634.5 c 128,-1,18
 61 687 61 687 23 735 c 1,19,-1
 23 740 l 1,20,-1
 68 771 l 1,0,1
EndSplineSet
EndChar
StartChar: asterisk
Encoding: 42 42 39
Width: 450
Flags: W
LayerCount: 2
Back
Fore
SplineSet
393 492 m 1,0,1
 376 470 376 470 366.5 454.5 c 128,-1,2
 357 439 357 439 349 416 c 0,3,4
 347 416 347 416 345 415 c 128,-1,5
 343 414 343 414 341 414 c 0,6,7
 320 435 320 435 300 452.5 c 128,-1,8
 280 470 280 470 249 494 c 1,9,10
 252 468 252 468 255 450 c 128,-1,11
 258 432 258 432 261 419 c 128,-1,12
 264 406 264 406 267.5 395.5 c 128,-1,13
 271 385 271 385 274 374 c 1,14,-1
 267 369 l 1,15,16
 251 370 251 370 244 370 c 128,-1,17
 237 370 237 370 223 370 c 0,18,19
 211 370 211 370 201.5 370 c 128,-1,20
 192 370 192 370 177 369 c 1,21,-1
 172 374 l 1,22,23
 176 388 176 388 179.5 400.5 c 128,-1,24
 183 413 183 413 186 427.5 c 128,-1,25
 189 442 189 442 191.5 458.5 c 128,-1,26
 194 475 194 475 198 497 c 1,27,28
 181 482 181 482 169 472 c 128,-1,29
 157 462 157 462 148 453 c 128,-1,30
 139 444 139 444 130.5 435.5 c 128,-1,31
 122 427 122 427 113 417 c 0,32,33
 111 417 111 417 108 417.5 c 128,-1,34
 105 418 105 418 103 418 c 0,35,36
 92 439 92 439 83 454.5 c 128,-1,37
 74 470 74 470 57 490 c 0,38,39
 57 492 57 492 58.5 496 c 128,-1,40
 60 500 60 500 60 502 c 0,41,42
 92 510 92 510 118.5 518.5 c 128,-1,43
 145 527 145 527 174 538 c 1,44,45
 153 545 153 545 140.5 550 c 128,-1,46
 128 555 128 555 117.5 558.5 c 128,-1,47
 107 562 107 562 96 565 c 128,-1,48
 85 568 85 568 67 572 c 1,49,-1
 59 584 l 1,50,51
 76 604 76 604 87 618 c 128,-1,52
 98 632 98 632 108 653 c 1,53,-1
 121 652 l 1,54,55
 125 647 125 647 130 642 c 128,-1,56
 135 637 135 637 143 629 c 128,-1,57
 151 621 151 621 164.5 609 c 128,-1,58
 178 597 178 597 199 578 c 1,59,60
 193 613 193 613 188.5 637 c 128,-1,61
 184 661 184 661 174 694 c 1,62,-1
 179 704 l 1,63,64
 193 702 193 702 201 702 c 128,-1,65
 209 702 209 702 224 702 c 0,66,67
 237 702 237 702 246.5 702 c 128,-1,68
 256 702 256 702 267 704 c 0,69,70
 269 702 269 702 269.5 699 c 128,-1,71
 270 696 270 696 272 693 c 0,72,73
 264 664 264 664 258.5 638.5 c 128,-1,74
 253 613 253 613 248 579 c 1,75,76
 277 604 277 604 294.5 620 c 128,-1,77
 312 636 312 636 331 657 c 1,78,79
 336 656 336 656 338 655.5 c 128,-1,80
 340 655 340 655 342 655 c 0,81,82
 352 637 352 637 361 622 c 128,-1,83
 370 607 370 607 387 586 c 0,84,85
 386 584 386 584 384.5 579.5 c 128,-1,86
 383 575 383 575 383 574 c 0,87,88
 350 565 350 565 326 557.5 c 128,-1,89
 302 550 302 550 271 538 c 1,90,91
 289 532 289 532 302.5 527 c 128,-1,92
 316 522 316 522 329 517.5 c 128,-1,93
 342 513 342 513 356.5 508.5 c 128,-1,94
 371 504 371 504 391 500 c 1,95,-1
 393 492 l 1,0,1
EndSplineSet
EndChar
StartChar: plus
Encoding: 43 43 115
Width: 488
Flags: W
LayerCount: 2
Back
Fore
SplineSet
290 280 m 1,0,-1
 442 280 l 1,1,-1
 432 198 l 1,2,-1
 290 198 l 1,3,-1
 290 41 l 1,4,-1
 198 41 l 1,5,-1
 198 198 l 1,6,-1
 47 198 l 1,7,-1
 56 280 l 1,8,-1
 198 280 l 1,9,-1
 198 427 l 1,10,-1
 290 427 l 1,11,-1
 290 280 l 1,0,-1
EndSplineSet
EndChar
StartChar: comma
Encoding: 44 44 55
Width: 244
Flags: W
LayerCount: 2
Back
Fore
SplineSet
69 -117 m 1,0,-1
 53 -106 l 1,1,-1
 51 -92 l 1,2,3
 62 -67 62 -67 68 -38.5 c 128,-1,4
 74 -10 74 -10 74 1 c 0,5,6
 74 17 74 17 66 32.5 c 128,-1,7
 58 48 58 48 58 70 c 0,8,9
 58 82 58 82 66.5 91 c 128,-1,10
 75 100 75 100 87.5 106 c 128,-1,11
 100 112 100 112 114.5 115 c 128,-1,12
 129 118 129 118 142 118 c 256,13,14
 155 118 155 118 163 112 c 128,-1,15
 171 106 171 106 175.5 98 c 128,-1,16
 180 90 180 90 181 81 c 128,-1,17
 182 72 182 72 182 65 c 0,18,19
 182 38 182 38 171 8.5 c 128,-1,20
 160 -21 160 -21 144 -47 c 128,-1,21
 128 -73 128 -73 111.5 -92 c 128,-1,22
 95 -111 95 -111 83 -117 c 1,23,-1
 69 -117 l 1,0,-1
EndSplineSet
EndChar
StartChar: hyphen
Encoding: 45 45 89
Width: 468
Flags: W
LayerCount: 2
Back
Fore
SplineSet
406 280 m 1,0,-1
 390 198 l 1,1,-1
 62 198 l 1,2,-1
 77 280 l 1,3,-1
 406 280 l 1,0,-1
EndSplineSet
EndChar
StartChar: period
Encoding: 46 46 113
Width: 244
Flags: W
LayerCount: 2
Back
Fore
SplineSet
57 53 m 0,0,1
 57 65 57 65 62 77 c 128,-1,2
 67 89 67 89 76 98.5 c 128,-1,3
 85 108 85 108 96.5 113.5 c 128,-1,4
 108 119 108 119 121 119 c 0,5,6
 146 119 146 119 166.5 98.5 c 128,-1,7
 187 78 187 78 187 53 c 0,8,9
 187 40 187 40 181.5 28.5 c 128,-1,10
 176 17 176 17 166.5 8 c 128,-1,11
 157 -1 157 -1 145 -6 c 128,-1,12
 133 -11 133 -11 121 -11 c 0,13,14
 95 -11 95 -11 76 8 c 128,-1,15
 57 27 57 27 57 53 c 0,0,1
EndSplineSet
EndChar
StartChar: slash
Encoding: 47 47 131
Width: 463
Flags: W
LayerCount: 2
Back
Fore
SplineSet
34 -53 m 1,0,1
 67 14 67 14 98 94 c 128,-1,2
 129 174 129 174 156 249 c 2,3,-1
 223 433 l 2,4,5
 232 458 232 458 244 491 c 128,-1,6
 256 524 256 524 267.5 559.5 c 128,-1,7
 279 595 279 595 289.5 631 c 128,-1,8
 300 667 300 667 307 698 c 1,9,-1
 310 702 l 1,10,-1
 428 702 l 1,11,-1
 429 698 l 1,12,13
 412 667 412 667 397 631 c 128,-1,14
 382 595 382 595 368 559.5 c 128,-1,15
 354 524 354 524 342 491 c 128,-1,16
 330 458 330 458 321 433 c 2,17,-1
 253 249 l 2,18,19
 225 174 225 174 198 94 c 128,-1,20
 171 14 171 14 155 -53 c 1,21,-1
 152 -57 l 1,22,-1
 34 -57 l 1,23,-1
 34 -53 l 1,0,1
EndSplineSet
EndChar
StartChar: zero
Encoding: 48 48 150
Width: 638
Flags: W
LayerCount: 2
Back
Fore
SplineSet
319 665 m 256,0,1
 382 665 382 665 431.5 638 c 128,-1,2
 481 611 481 611 515 564.5 c 128,-1,3
 549 518 549 518 567 457 c 128,-1,4
 585 396 585 396 585 329 c 0,5,6
 585 263 585 263 567.5 201.5 c 128,-1,7
 550 140 550 140 516 93 c 128,-1,8
 482 46 482 46 431 17.5 c 128,-1,9
 380 -11 380 -11 314 -11 c 0,10,11
 249 -11 249 -11 200.5 16 c 128,-1,12
 152 43 152 43 119.5 88.5 c 128,-1,13
 87 134 87 134 70.5 194.5 c 128,-1,14
 54 255 54 255 54 322 c 0,15,16
 54 393 54 393 72 455.5 c 128,-1,17
 90 518 90 518 124 564.5 c 128,-1,18
 158 611 158 611 207 638 c 128,-1,19
 256 665 256 665 319 665 c 256,0,1
318 72 m 0,20,21
 354 72 354 72 381.5 92.5 c 128,-1,22
 409 113 409 113 428.5 147.5 c 128,-1,23
 448 182 448 182 458 228.5 c 128,-1,24
 468 275 468 275 468 328 c 0,25,26
 468 382 468 382 457.5 428.5 c 128,-1,27
 447 475 447 475 427 509 c 128,-1,28
 407 543 407 543 378.5 562.5 c 128,-1,29
 350 582 350 582 315 582 c 256,30,31
 280 582 280 582 253.5 563 c 128,-1,32
 227 544 227 544 209 510 c 128,-1,33
 191 476 191 476 181.5 429.5 c 128,-1,34
 172 383 172 383 172 329 c 0,35,36
 172 269 172 269 183 221.5 c 128,-1,37
 194 174 194 174 213.5 141 c 128,-1,38
 233 108 233 108 259.5 90 c 128,-1,39
 286 72 286 72 318 72 c 0,20,21
EndSplineSet
EndChar
StartChar: one
Encoding: 49 49 104
Width: 396
Flags: W
LayerCount: 2
Back
Fore
SplineSet
43 534 m 1,0,-1
 46 540 l 1,1,2
 98 566 98 566 144 593 c 128,-1,3
 190 620 190 620 235 663 c 1,4,-1
 242 663 l 1,5,-1
 274 654 l 1,6,7
 273 646 273 646 272.5 635.5 c 128,-1,8
 272 625 272 625 271.5 614 c 128,-1,9
 271 603 271 603 270.5 593 c 128,-1,10
 270 583 270 583 270 577 c 0,11,12
 269 561 269 561 268.5 547 c 128,-1,13
 268 533 268 533 267.5 514 c 128,-1,14
 267 495 267 495 267 468 c 128,-1,15
 267 441 267 441 267 399 c 2,16,-1
 267 278 l 2,17,18
 267 236 267 236 267 209.5 c 128,-1,19
 267 183 267 183 267.5 165 c 128,-1,20
 268 147 268 147 268.5 133 c 128,-1,21
 269 119 269 119 271 102 c 0,22,23
 273 81 273 81 280 70.5 c 128,-1,24
 287 60 287 60 295 53 c 0,25,26
 304 46 304 46 323 42 c 128,-1,27
 342 38 342 38 357 38 c 1,28,-1
 362 33 l 1,29,-1
 364 0 l 1,30,-1
 362 -4 l 1,31,32
 355 -4 355 -4 341 -3 c 128,-1,33
 327 -2 327 -2 311 -1.5 c 128,-1,34
 295 -1 295 -1 281 -0.5 c 128,-1,35
 267 0 267 0 260 0 c 2,36,-1
 163 0 l 2,37,38
 156 0 156 0 142 -0.5 c 128,-1,39
 128 -1 128 -1 112 -1.5 c 128,-1,40
 96 -2 96 -2 82 -3 c 128,-1,41
 68 -4 68 -4 61 -4 c 1,42,-1
 59 0 l 1,43,-1
 61 34 l 1,44,-1
 64 38 l 1,45,46
 80 38 80 38 100.5 41.5 c 128,-1,47
 121 45 121 45 129 53 c 0,48,49
 137 60 137 60 144 71 c 128,-1,50
 151 82 151 82 153 102 c 0,51,52
 154 115 154 115 155 127.5 c 128,-1,53
 156 140 156 140 156.5 156.5 c 128,-1,54
 157 173 157 173 157 196 c 128,-1,55
 157 219 157 219 157 254 c 2,56,-1
 157 397 l 2,57,58
 157 425 157 425 157 443 c 128,-1,59
 157 461 157 461 156.5 473 c 128,-1,60
 156 485 156 485 155 494 c 128,-1,61
 154 503 154 503 153 514 c 1,62,-1
 46 487 l 1,63,-1
 43 491 l 1,64,-1
 43 534 l 1,0,-1
EndSplineSet
Substitution2: "'sups' Superscript in Latin lookup 4 subtable" onesuperior
Substitution2: "'aalt' Access All Alternates in Latin lookup 0 subtable" onesuperior
EndChar
StartChar: two
Encoding: 50 50 140
Width: 564
Flags: W
LayerCount: 2
Back
Fore
SplineSet
64 536 m 1,0,-1
 67 545 l 1,1,2
 80 568 80 568 100.5 589.5 c 128,-1,3
 121 611 121 611 148.5 628 c 128,-1,4
 176 645 176 645 211.5 655 c 128,-1,5
 247 665 247 665 292 665 c 0,6,7
 397 665 397 665 443 618.5 c 128,-1,8
 489 572 489 572 489 493 c 0,9,10
 489 446 489 446 466.5 407 c 128,-1,11
 444 368 444 368 411 323 c 0,12,13
 386 290 386 290 352 251.5 c 128,-1,14
 318 213 318 213 287.5 178.5 c 128,-1,15
 257 144 257 144 235.5 117.5 c 128,-1,16
 214 91 214 91 214 81 c 1,17,-1
 216 78 l 1,18,-1
 274 78 l 2,19,20
 331 78 331 78 365 79.5 c 128,-1,21
 399 81 399 81 418.5 87.5 c 128,-1,22
 438 94 438 94 446.5 108 c 128,-1,23
 455 122 455 122 462 147 c 1,24,-1
 467 153 l 1,25,-1
 514 153 l 1,26,-1
 496 4 l 1,27,-1
 487 -6 l 1,28,29
 480 -6 480 -6 452 -5 c 128,-1,30
 424 -4 424 -4 391 -3 c 128,-1,31
 358 -2 358 -2 327 -1 c 128,-1,32
 296 0 296 0 282 0 c 2,33,-1
 183 0 l 2,34,35
 154 0 154 0 118 -2 c 128,-1,36
 82 -4 82 -4 50 -6 c 1,37,-1
 40 15 l 1,38,-1
 40 38 l 1,39,40
 61 65 61 65 97 106.5 c 128,-1,41
 133 148 133 148 173.5 194.5 c 128,-1,42
 214 241 214 241 253.5 288 c 128,-1,43
 293 335 293 335 322 373 c 0,44,45
 348 408 348 408 362 438.5 c 128,-1,46
 376 469 376 469 376 505 c 256,47,48
 376 541 376 541 349.5 561.5 c 128,-1,49
 323 582 323 582 286 582 c 0,50,51
 216 582 216 582 172 548.5 c 128,-1,52
 128 515 128 515 124 448 c 1,53,-1
 120 444 l 1,54,-1
 76 444 l 1,55,-1
 64 536 l 1,0,-1
EndSplineSet
Substitution2: "'sups' Superscript in Latin lookup 4 subtable" twosuperior
Substitution2: "'aalt' Access All Alternates in Latin lookup 0 subtable" twosuperior
EndChar
StartChar: three
Encoding: 51 51 136
Width: 547
Flags: W
LayerCount: 2
Back
Fore
SplineSet
118 167 m 1,0,1
 119 149 119 149 128.5 132 c 128,-1,2
 138 115 138 115 156.5 101.5 c 128,-1,3
 175 88 175 88 201.5 80 c 128,-1,4
 228 72 228 72 263 72 c 0,5,6
 297 72 297 72 319 82.5 c 128,-1,7
 341 93 341 93 354.5 109.5 c 128,-1,8
 368 126 368 126 373.5 146 c 128,-1,9
 379 166 379 166 379 185 c 0,10,11
 379 208 379 208 372.5 231 c 128,-1,12
 366 254 366 254 352.5 272 c 128,-1,13
 339 290 339 290 319 301 c 128,-1,14
 299 312 299 312 271 312 c 2,15,-1
 239 312 l 1,16,-1
 234 316 l 1,17,-1
 231 374 l 1,18,-1
 236 379 l 1,19,-1
 254 379 l 2,20,21
 273 379 273 379 291 389.5 c 128,-1,22
 309 400 309 400 322.5 416.5 c 128,-1,23
 336 433 336 433 344.5 454 c 128,-1,24
 353 475 353 475 353 495 c 0,25,26
 353 530 353 530 330 556.5 c 128,-1,27
 307 583 307 583 260 583 c 0,28,29
 227 583 227 583 205 574 c 128,-1,30
 183 565 183 565 169 549 c 128,-1,31
 155 533 155 533 147.5 509.5 c 128,-1,32
 140 486 140 486 137 458 c 1,33,-1
 133 454 l 1,34,-1
 80 454 l 1,35,-1
 68 536 l 1,36,-1
 70 545 l 1,37,38
 81 566 81 566 99 587.5 c 128,-1,39
 117 609 117 609 143 626.5 c 128,-1,40
 169 644 169 644 202.5 654.5 c 128,-1,41
 236 665 236 665 278 665 c 0,42,43
 312 665 312 665 345 655.5 c 128,-1,44
 378 646 378 646 403.5 627 c 128,-1,45
 429 608 429 608 445 579 c 128,-1,46
 461 550 461 550 461 511 c 0,47,48
 461 480 461 480 453 455 c 128,-1,49
 445 430 445 430 432 411 c 128,-1,50
 419 392 419 392 404 379.5 c 128,-1,51
 389 367 389 367 374 361 c 1,52,-1
 374 357 l 1,53,54
 430 346 430 346 462.5 299 c 128,-1,55
 495 252 495 252 495 189 c 0,56,57
 495 145 495 145 477.5 108 c 128,-1,58
 460 71 460 71 428.5 44.5 c 128,-1,59
 397 18 397 18 352 3.5 c 128,-1,60
 307 -11 307 -11 253 -11 c 0,61,62
 118 -11 118 -11 52 80 c 1,63,-1
 51 89 l 1,64,-1
 62 171 l 1,65,-1
 115 171 l 1,66,-1
 118 167 l 1,0,1
EndSplineSet
Substitution2: "'sups' Superscript in Latin lookup 4 subtable" threesuperior
Substitution2: "'aalt' Access All Alternates in Latin lookup 0 subtable" threesuperior
EndChar
StartChar: four
Encoding: 52 52 78
Width: 540
Flags: W
LayerCount: 2
Back
Fore
SplineSet
29 215 m 1,0,-1
 22 255 l 1,1,2
 40 287 40 287 64 326 c 128,-1,3
 88 365 88 365 114 406 c 128,-1,4
 140 447 140 447 166.5 487 c 128,-1,5
 193 527 193 527 215.5 561 c 128,-1,6
 238 595 238 595 255.5 620 c 128,-1,7
 273 645 273 645 282 656 c 1,8,-1
 387 665 l 1,9,-1
 395 665 l 1,10,-1
 407 644 l 1,11,12
 405 630 405 630 404.5 609 c 128,-1,13
 404 588 404 588 403 577 c 0,14,15
 402 561 402 561 401.5 547 c 128,-1,16
 401 533 401 533 400.5 514 c 128,-1,17
 400 495 400 495 400 468 c 128,-1,18
 400 441 400 441 400 399 c 2,19,-1
 400 285 l 1,20,-1
 485 285 l 1,21,-1
 489 279 l 1,22,-1
 478 208 l 1,23,-1
 471 203 l 1,24,-1
 400 203 l 1,25,26
 400 183 400 183 400 168.5 c 128,-1,27
 400 154 400 154 400.5 143 c 128,-1,28
 401 132 401 132 401.5 122.5 c 128,-1,29
 402 113 402 113 404 102 c 0,30,31
 406 81 406 81 413.5 70.5 c 128,-1,32
 421 60 421 60 429 53 c 256,33,34
 437 46 437 46 456.5 42 c 128,-1,35
 476 38 476 38 491 38 c 1,36,-1
 495 33 l 1,37,-1
 497 0 l 1,38,-1
 495 -4 l 1,39,40
 488 -4 488 -4 474 -3 c 128,-1,41
 460 -2 460 -2 444.5 -1.5 c 128,-1,42
 429 -1 429 -1 415 -0.5 c 128,-1,43
 401 0 401 0 394 0 c 2,44,-1
 298 0 l 2,45,46
 291 0 291 0 275 -0.5 c 128,-1,47
 259 -1 259 -1 241.5 -1.5 c 128,-1,48
 224 -2 224 -2 208 -3 c 128,-1,49
 192 -4 192 -4 185 -4 c 1,50,-1
 184 0 l 1,51,-1
 188 34 l 1,52,-1
 192 38 l 1,53,54
 200 38 200 38 210.5 39 c 128,-1,55
 221 40 221 40 231.5 42 c 128,-1,56
 242 44 242 44 250.5 46.5 c 128,-1,57
 259 49 259 49 263 53 c 0,58,59
 272 60 272 60 279.5 71 c 128,-1,60
 287 82 287 82 287 102 c 0,61,62
 289 121 289 121 290 145 c 128,-1,63
 291 169 291 169 291 203 c 1,64,-1
 72 203 l 1,65,-1
 29 215 l 1,0,-1
288 541 m 1,66,67
 274 526 274 526 253 496 c 128,-1,68
 232 466 232 466 209 430 c 128,-1,69
 186 394 186 394 164 356 c 128,-1,70
 142 318 142 318 127 285 c 1,71,-1
 291 285 l 1,72,-1
 291 397 l 2,73,74
 291 413 291 413 291 432.5 c 128,-1,75
 291 452 291 452 290.5 471.5 c 128,-1,76
 290 491 290 491 289.5 509 c 128,-1,77
 289 527 289 527 288 541 c 1,66,67
EndSplineSet
EndChar
StartChar: five
Encoding: 53 53 75
Width: 535
Flags: W
LayerCount: 2
Back
Fore
SplineSet
376 201 m 0,0,1
 376 234 376 234 365.5 254.5 c 128,-1,2
 355 275 355 275 338.5 287 c 128,-1,3
 322 299 322 299 301 303.5 c 128,-1,4
 280 308 280 308 259 308 c 0,5,6
 223 308 223 308 188 300 c 128,-1,7
 153 292 153 292 124 275 c 1,8,-1
 114 275 l 1,9,-1
 77 320 l 1,10,-1
 75 327 l 1,11,-1
 107 646 l 1,12,-1
 113 654 l 1,13,-1
 213 654 l 2,14,15
 242 654 242 654 297 655.5 c 128,-1,16
 352 657 352 657 425 662 c 1,17,-1
 434 654 l 1,18,-1
 449 526 l 1,19,-1
 443 519 l 1,20,-1
 405 519 l 1,21,-1
 399 524 l 1,22,23
 395 542 395 542 389.5 552.5 c 128,-1,24
 384 563 384 563 368 568.5 c 128,-1,25
 352 574 352 574 322 575 c 128,-1,26
 292 576 292 576 240 576 c 2,27,-1
 210 576 l 2,28,29
 204 576 204 576 204 571 c 2,30,-1
 184 377 l 1,31,32
 203 387 203 387 227.5 392 c 128,-1,33
 252 397 252 397 278 397 c 0,34,35
 319 397 319 397 357 387.5 c 128,-1,36
 395 378 395 378 424.5 356.5 c 128,-1,37
 454 335 454 335 471.5 299 c 128,-1,38
 489 263 489 263 489 209 c 0,39,40
 489 156 489 156 471 115 c 128,-1,41
 453 74 453 74 420.5 46 c 128,-1,42
 388 18 388 18 343 3.5 c 128,-1,43
 298 -11 298 -11 244 -11 c 0,44,45
 170 -11 170 -11 124.5 11 c 128,-1,46
 79 33 79 33 50 70 c 1,47,-1
 49 80 l 1,48,-1
 60 171 l 1,49,-1
 116 171 l 1,50,-1
 119 167 l 1,51,52
 121 126 121 126 154.5 99 c 128,-1,53
 188 72 188 72 254 72 c 0,54,55
 288 72 288 72 311.5 82.5 c 128,-1,56
 335 93 335 93 349 111 c 128,-1,57
 363 129 363 129 369.5 152.5 c 128,-1,58
 376 176 376 176 376 201 c 0,0,1
EndSplineSet
EndChar
StartChar: six
Encoding: 54 54 130
Width: 551
Flags: W
LayerCount: 2
Back
Fore
SplineSet
164 350 m 1,0,1
 183 382 183 382 221 398 c 128,-1,2
 259 414 259 414 306 414 c 0,3,4
 357 414 357 414 394.5 396 c 128,-1,5
 432 378 432 378 456.5 348 c 128,-1,6
 481 318 481 318 493 280.5 c 128,-1,7
 505 243 505 243 505 204 c 256,8,9
 505 165 505 165 493 127 c 128,-1,10
 481 89 481 89 455 58 c 128,-1,11
 429 27 429 27 387.5 8 c 128,-1,12
 346 -11 346 -11 286 -11 c 0,13,14
 224 -11 224 -11 181 11 c 128,-1,15
 138 33 138 33 111.5 73 c 128,-1,16
 85 113 85 113 73 170 c 128,-1,17
 61 227 61 227 61 298 c 0,18,19
 61 337 61 337 65 379.5 c 128,-1,20
 69 422 69 422 79 463 c 128,-1,21
 89 504 89 504 105.5 540.5 c 128,-1,22
 122 577 122 577 148 604.5 c 128,-1,23
 174 632 174 632 209.5 648.5 c 128,-1,24
 245 665 245 665 293 665 c 0,25,26
 311 665 311 665 334.5 662.5 c 128,-1,27
 358 660 358 660 382.5 654 c 128,-1,28
 407 648 407 648 430 638 c 128,-1,29
 453 628 453 628 469 614 c 1,30,-1
 454 531 l 1,31,-1
 416 531 l 1,32,33
 407 545 407 545 392.5 555 c 128,-1,34
 378 565 378 565 362 571 c 128,-1,35
 346 577 346 577 329.5 579.5 c 128,-1,36
 313 582 313 582 300 582 c 0,37,38
 264 582 264 582 237 564.5 c 128,-1,39
 210 547 210 547 193 517.5 c 128,-1,40
 176 488 176 488 167.5 449 c 128,-1,41
 159 410 159 410 159 368 c 0,42,43
 159 364 159 364 159 360 c 128,-1,44
 159 356 159 356 160 351 c 1,45,-1
 164 350 l 1,0,1
284 325 m 0,46,47
 229 325 229 325 202.5 292 c 128,-1,48
 176 259 176 259 176 205 c 0,49,50
 176 182 176 182 181 158 c 128,-1,51
 186 134 186 134 199 114 c 128,-1,52
 212 94 212 94 232.5 81 c 128,-1,53
 253 68 253 68 285 68 c 0,54,55
 339 68 339 68 367 104 c 128,-1,56
 395 140 395 140 395 197 c 0,57,58
 395 218 395 218 390.5 240.5 c 128,-1,59
 386 263 386 263 373.5 281.5 c 128,-1,60
 361 300 361 300 339.5 312.5 c 128,-1,61
 318 325 318 325 284 325 c 0,46,47
EndSplineSet
EndChar
StartChar: seven
Encoding: 55 55 132
Width: 526
Flags: W
LayerCount: 2
Back
Fore
SplineSet
246 0 m 1,0,1
 215 0 215 0 178 -1.5 c 128,-1,2
 141 -3 141 -3 105 -6 c 1,3,-1
 98 4 l 1,4,5
 112 28 112 28 138 76.5 c 128,-1,6
 164 125 164 125 194 184 c 128,-1,7
 224 243 224 243 255 307 c 128,-1,8
 286 371 286 371 311 426 c 128,-1,9
 336 481 336 481 352 520.5 c 128,-1,10
 368 560 368 560 368 572 c 1,11,-1
 363 576 l 1,12,-1
 248 576 l 2,13,14
 198 576 198 576 167 575 c 128,-1,15
 136 574 136 574 118 568.5 c 128,-1,16
 100 563 100 563 92 552.5 c 128,-1,17
 84 542 84 542 81 524 c 1,18,-1
 75 519 l 1,19,-1
 37 519 l 1,20,-1
 32 526 l 1,21,-1
 47 654 l 1,22,-1
 55 662 l 1,23,24
 183 656 183 656 258.5 655 c 128,-1,25
 334 654 334 654 360 654 c 2,26,-1
 517 654 l 1,27,-1
 522 651 l 1,28,-1
 517 626 l 1,29,30
 510 618 510 618 495.5 592 c 128,-1,31
 481 566 481 566 463 529.5 c 128,-1,32
 445 493 445 493 424 448.5 c 128,-1,33
 403 404 403 404 382 357.5 c 128,-1,34
 361 311 361 311 341.5 267 c 128,-1,35
 322 223 322 223 307 187 c 0,36,37
 289 144 289 144 274.5 101 c 128,-1,38
 260 58 260 58 250 7 c 1,39,-1
 246 0 l 1,0,1
EndSplineSet
EndChar
StartChar: eight
Encoding: 56 56 66
Width: 571
Flags: W
LayerCount: 2
Back
Fore
SplineSet
283 665 m 0,0,1
 325 665 325 665 361.5 654.5 c 128,-1,2
 398 644 398 644 425 623 c 128,-1,3
 452 602 452 602 467.5 571 c 128,-1,4
 483 540 483 540 483 500 c 0,5,6
 483 470 483 470 476.5 448 c 128,-1,7
 470 426 470 426 459 410.5 c 128,-1,8
 448 395 448 395 434 385 c 128,-1,9
 420 375 420 375 406 369 c 2,10,-1
 396 365 l 1,11,12
 428 355 428 355 451 336 c 128,-1,13
 474 317 474 317 488.5 293 c 128,-1,14
 503 269 503 269 510 241 c 128,-1,15
 517 213 517 213 517 186 c 0,16,17
 517 150 517 150 505.5 114.5 c 128,-1,18
 494 79 494 79 467 51.5 c 128,-1,19
 440 24 440 24 395.5 6.5 c 128,-1,20
 351 -11 351 -11 285 -11 c 0,21,22
 220 -11 220 -11 176 6 c 128,-1,23
 132 23 132 23 105 51 c 128,-1,24
 78 79 78 79 66.5 114.5 c 128,-1,25
 55 150 55 150 55 186 c 0,26,27
 55 247 55 247 82 295.5 c 128,-1,28
 109 344 109 344 166 365 c 1,29,-1
 166 369 l 1,30,31
 135 380 135 380 112 411 c 128,-1,32
 89 442 89 442 89 501 c 0,33,34
 89 540 89 540 103 570.5 c 128,-1,35
 117 601 117 601 142.5 622 c 128,-1,36
 168 643 168 643 204 654 c 128,-1,37
 240 665 240 665 283 665 c 0,0,1
284 320 m 256,38,39
 252 320 252 320 230.5 306.5 c 128,-1,40
 209 293 209 293 195.5 273 c 128,-1,41
 182 253 182 253 176.5 228 c 128,-1,42
 171 203 171 203 171 181 c 0,43,44
 171 154 171 154 181 133.5 c 128,-1,45
 191 113 191 113 207.5 99.5 c 128,-1,46
 224 86 224 86 245 79.5 c 128,-1,47
 266 73 266 73 288 73 c 0,48,49
 309 73 309 73 329.5 79.5 c 128,-1,50
 350 86 350 86 366 99.5 c 128,-1,51
 382 113 382 113 391.5 132.5 c 128,-1,52
 401 152 401 152 401 179 c 0,53,54
 401 203 401 203 394.5 228 c 128,-1,55
 388 253 388 253 374 273.5 c 128,-1,56
 360 294 360 294 338 307 c 128,-1,57
 316 320 316 320 284 320 c 256,38,39
367 504 m 0,58,59
 367 544 367 544 341.5 564 c 128,-1,60
 316 584 316 584 285 584 c 0,61,62
 255 584 255 584 230 564.5 c 128,-1,63
 205 545 205 545 205 506 c 0,64,65
 205 453 205 453 227 426 c 128,-1,66
 249 399 249 399 286 399 c 0,67,68
 304 399 304 399 318.5 407 c 128,-1,69
 333 415 333 415 344 429.5 c 128,-1,70
 355 444 355 444 361 463 c 128,-1,71
 367 482 367 482 367 504 c 0,58,59
EndSplineSet
EndChar
StartChar: nine
Encoding: 57 57 100
Width: 551
Flags: W
LayerCount: 2
Back
Fore
SplineSet
387 304 m 1,0,1
 368 272 368 272 330 256 c 128,-1,2
 292 240 292 240 245 240 c 0,3,4
 194 240 194 240 156.5 258 c 128,-1,5
 119 276 119 276 94.5 306 c 128,-1,6
 70 336 70 336 58 373.5 c 128,-1,7
 46 411 46 411 46 450 c 256,8,9
 46 489 46 489 58 527 c 128,-1,10
 70 565 70 565 96 596 c 128,-1,11
 122 627 122 627 163.5 646 c 128,-1,12
 205 665 205 665 265 665 c 0,13,14
 327 665 327 665 370 643 c 128,-1,15
 413 621 413 621 439.5 581 c 128,-1,16
 466 541 466 541 478 483.5 c 128,-1,17
 490 426 490 426 490 356 c 0,18,19
 490 317 490 317 486 274.5 c 128,-1,20
 482 232 482 232 472 191 c 128,-1,21
 462 150 462 150 445.5 113.5 c 128,-1,22
 429 77 429 77 403 49.5 c 128,-1,23
 377 22 377 22 341.5 5.5 c 128,-1,24
 306 -11 306 -11 258 -11 c 0,25,26
 240 -11 240 -11 216.5 -8.5 c 128,-1,27
 193 -6 193 -6 168.5 0 c 128,-1,28
 144 6 144 6 121 16 c 128,-1,29
 98 26 98 26 82 40 c 1,30,-1
 97 123 l 1,31,-1
 135 123 l 1,32,33
 144 109 144 109 158.5 99 c 128,-1,34
 173 89 173 89 189 83 c 128,-1,35
 205 77 205 77 221.5 74.5 c 128,-1,36
 238 72 238 72 251 72 c 0,37,38
 287 72 287 72 314 89.5 c 128,-1,39
 341 107 341 107 358 136.5 c 128,-1,40
 375 166 375 166 383.5 205 c 128,-1,41
 392 244 392 244 392 286 c 0,42,43
 392 290 392 290 392 294 c 128,-1,44
 392 298 392 298 391 303 c 1,45,-1
 387 304 l 1,0,1
267 329 m 0,46,47
 322 329 322 329 348.5 362 c 128,-1,48
 375 395 375 395 375 449 c 0,49,50
 375 471 375 471 370 495.5 c 128,-1,51
 365 520 365 520 352 540 c 128,-1,52
 339 560 339 560 318 573 c 128,-1,53
 297 586 297 586 266 586 c 0,54,55
 212 586 212 586 184 550 c 128,-1,56
 156 514 156 514 156 457 c 0,57,58
 156 436 156 436 160.5 413.5 c 128,-1,59
 165 391 165 391 177.5 372.5 c 128,-1,60
 190 354 190 354 211.5 341.5 c 128,-1,61
 233 329 233 329 267 329 c 0,46,47
EndSplineSet
EndChar
StartChar: colon
Encoding: 58 58 54
Width: 255
Flags: W
LayerCount: 2
Back
Fore
SplineSet
63 389 m 0,0,1
 63 401 63 401 68 413 c 128,-1,2
 73 425 73 425 82 434.5 c 128,-1,3
 91 444 91 444 102.5 449.5 c 128,-1,4
 114 455 114 455 127 455 c 0,5,6
 152 455 152 455 172.5 434.5 c 128,-1,7
 193 414 193 414 193 389 c 0,8,9
 193 376 193 376 187.5 364.5 c 128,-1,10
 182 353 182 353 172.5 344 c 128,-1,11
 163 335 163 335 151 330 c 128,-1,12
 139 325 139 325 127 325 c 0,13,14
 101 325 101 325 82 344 c 128,-1,15
 63 363 63 363 63 389 c 0,0,1
63 53 m 0,16,17
 63 65 63 65 68 77 c 128,-1,18
 73 89 73 89 82 98.5 c 128,-1,19
 91 108 91 108 102.5 113.5 c 128,-1,20
 114 119 114 119 127 119 c 0,21,22
 152 119 152 119 172.5 98.5 c 128,-1,23
 193 78 193 78 193 53 c 0,24,25
 193 40 193 40 187.5 28.5 c 128,-1,26
 182 17 182 17 172.5 8 c 128,-1,27
 163 -1 163 -1 151 -6 c 128,-1,28
 139 -11 139 -11 127 -11 c 0,29,30
 101 -11 101 -11 82 8 c 128,-1,31
 63 27 63 27 63 53 c 0,16,17
EndSplineSet
EndChar
StartChar: semicolon
Encoding: 59 59 129
Width: 262
Flags: W
LayerCount: 2
Back
Fore
SplineSet
80 -117 m 1,0,-1
 64 -106 l 1,1,-1
 62 -92 l 1,2,3
 73 -67 73 -67 79 -38.5 c 128,-1,4
 85 -10 85 -10 85 1 c 0,5,6
 85 17 85 17 77 32.5 c 128,-1,7
 69 48 69 48 69 70 c 0,8,9
 69 82 69 82 77.5 91 c 128,-1,10
 86 100 86 100 98.5 106 c 128,-1,11
 111 112 111 112 125.5 115 c 128,-1,12
 140 118 140 118 153 118 c 256,13,14
 166 118 166 118 174 112 c 128,-1,15
 182 106 182 106 186.5 98 c 128,-1,16
 191 90 191 90 192 81 c 128,-1,17
 193 72 193 72 193 65 c 0,18,19
 193 38 193 38 182 8.5 c 128,-1,20
 171 -21 171 -21 155 -47 c 128,-1,21
 139 -73 139 -73 122.5 -92 c 128,-1,22
 106 -111 106 -111 94 -117 c 1,23,-1
 80 -117 l 1,0,-1
68 389 m 0,24,25
 68 401 68 401 73 413 c 128,-1,26
 78 425 78 425 87 434.5 c 128,-1,27
 96 444 96 444 107.5 449.5 c 128,-1,28
 119 455 119 455 132 455 c 0,29,30
 157 455 157 455 177.5 434.5 c 128,-1,31
 198 414 198 414 198 389 c 0,32,33
 198 376 198 376 192.5 364.5 c 128,-1,34
 187 353 187 353 177.5 344 c 128,-1,35
 168 335 168 335 156 330 c 128,-1,36
 144 325 144 325 132 325 c 0,37,38
 106 325 106 325 87 344 c 128,-1,39
 68 363 68 363 68 389 c 0,24,25
EndSplineSet
EndChar
StartChar: less
Encoding: 60 60 94
Width: 413
Flags: W
LayerCount: 2
Back
Fore
SplineSet
161 238 m 1,0,1
 186 220 186 220 208 205.5 c 128,-1,2
 230 191 230 191 251.5 177.5 c 128,-1,3
 273 164 273 164 296 150.5 c 128,-1,4
 319 137 319 137 346 121 c 1,5,-1
 346 114 l 1,6,-1
 331 53 l 1,7,-1
 326 52 l 1,8,9
 257 103 257 103 185 149.5 c 128,-1,10
 113 196 113 196 41 238 c 1,11,-1
 41 243 l 1,12,13
 113 285 113 285 185 331.5 c 128,-1,14
 257 378 257 378 326 429 c 1,15,-1
 331 428 l 1,16,-1
 345 367 l 1,17,-1
 345 360 l 1,18,19
 318 345 318 345 295.5 331 c 128,-1,20
 273 317 273 317 251.5 303.5 c 128,-1,21
 230 290 230 290 208 275.5 c 128,-1,22
 186 261 186 261 161 243 c 1,23,-1
 161 238 l 1,0,1
EndSplineSet
EndChar
StartChar: equal
Encoding: 61 61 69
Width: 486
Flags: W
LayerCount: 2
Back
Fore
SplineSet
415 356 m 1,0,-1
 399 274 l 1,1,-1
 71 274 l 1,2,-1
 86 356 l 1,3,-1
 415 356 l 1,0,-1
415 204 m 1,4,-1
 399 122 l 1,5,-1
 71 122 l 1,6,-1
 86 204 l 1,7,-1
 415 204 l 1,4,-1
EndSplineSet
EndChar
StartChar: greater
Encoding: 62 62 83
Width: 413
Flags: W
LayerCount: 2
Back
Fore
SplineSet
252 243 m 1,0,1
 227 261 227 261 205 275.5 c 128,-1,2
 183 290 183 290 161.5 303.5 c 128,-1,3
 140 317 140 317 117.5 331 c 128,-1,4
 95 345 95 345 68 360 c 1,5,-1
 68 367 l 1,6,-1
 82 428 l 1,7,-1
 87 429 l 1,8,9
 156 378 156 378 228 331.5 c 128,-1,10
 300 285 300 285 372 243 c 1,11,-1
 372 238 l 1,12,13
 300 196 300 196 228 149.5 c 128,-1,14
 156 103 156 103 87 52 c 1,15,-1
 82 53 l 1,16,-1
 67 114 l 1,17,-1
 67 121 l 1,18,19
 94 137 94 137 117 150.5 c 128,-1,20
 140 164 140 164 161.5 177.5 c 128,-1,21
 183 191 183 191 205 205.5 c 128,-1,22
 227 220 227 220 252 238 c 1,23,-1
 252 243 l 1,0,1
EndSplineSet
EndChar
StartChar: question
Encoding: 63 63 118
Width: 422
Flags: W
LayerCount: 2
Back
Fore
SplineSet
226 192 m 1,0,-1
 220 185 l 1,1,-1
 155 169 l 1,2,-1
 149 173 l 1,3,4
 148 193 148 193 147 216 c 128,-1,5
 146 239 146 239 146 250 c 0,6,7
 146 290 146 290 165.5 324.5 c 128,-1,8
 185 359 185 359 208 393 c 128,-1,9
 231 427 231 427 250.5 463 c 128,-1,10
 270 499 270 499 270 543 c 0,11,12
 270 580 270 580 250 597 c 128,-1,13
 230 614 230 614 210 614 c 0,14,15
 186 614 186 614 165.5 606 c 128,-1,16
 145 598 145 598 130 584 c 128,-1,17
 115 570 115 570 106 551.5 c 128,-1,18
 97 533 97 533 94 512 c 1,19,-1
 92 509 l 1,20,-1
 54 509 l 1,21,-1
 42 612 l 1,22,-1
 44 621 l 1,23,24
 54 638 54 638 73.5 650 c 128,-1,25
 93 662 93 662 117 670 c 128,-1,26
 141 678 141 678 166.5 682 c 128,-1,27
 192 686 192 686 213 686 c 256,28,29
 234 686 234 686 262.5 679 c 128,-1,30
 291 672 291 672 316.5 654 c 128,-1,31
 342 636 342 636 359.5 605 c 128,-1,32
 377 574 377 574 377 526 c 0,33,34
 377 495 377 495 366.5 466.5 c 128,-1,35
 356 438 356 438 340 411.5 c 128,-1,36
 324 385 324 385 305.5 361 c 128,-1,37
 287 337 287 337 270.5 314.5 c 128,-1,38
 254 292 254 292 242.5 272 c 128,-1,39
 231 252 231 252 230 234 c 2,40,-1
 226 192 l 1,0,-1
123 53 m 0,41,42
 123 65 123 65 128 77 c 128,-1,43
 133 89 133 89 142 98.5 c 128,-1,44
 151 108 151 108 162.5 113.5 c 128,-1,45
 174 119 174 119 187 119 c 0,46,47
 212 119 212 119 232.5 98.5 c 128,-1,48
 253 78 253 78 253 53 c 0,49,50
 253 40 253 40 247.5 28.5 c 128,-1,51
 242 17 242 17 232.5 8 c 128,-1,52
 223 -1 223 -1 211 -6 c 128,-1,53
 199 -11 199 -11 187 -11 c 0,54,55
 161 -11 161 -11 142 8 c 128,-1,56
 123 27 123 27 123 53 c 0,41,42
EndSplineSet
EndChar
StartChar: at
Encoding: 64 64 40
Width: 721
Flags: W
LayerCount: 2
Back
Fore
SplineSet
417 324 m 1,0,1
 411 330 411 330 392 330 c 0,2,3
 369 330 369 330 351 317.5 c 128,-1,4
 333 305 333 305 320.5 285.5 c 128,-1,5
 308 266 308 266 301 243 c 128,-1,6
 294 220 294 220 294 200 c 0,7,8
 294 177 294 177 305 161.5 c 128,-1,9
 316 146 316 146 327 146 c 0,10,11
 340 146 340 146 350.5 154 c 128,-1,12
 361 162 361 162 369 174 c 128,-1,13
 377 186 377 186 383 200.5 c 128,-1,14
 389 215 389 215 392 229 c 2,15,-1
 417 324 l 1,0,1
573 -23 m 1,16,17
 563 -32 563 -32 541.5 -45.5 c 128,-1,18
 520 -59 520 -59 490 -71.5 c 128,-1,19
 460 -84 460 -84 423 -92.5 c 128,-1,20
 386 -101 386 -101 345 -101 c 0,21,22
 285 -101 285 -101 232 -81 c 128,-1,23
 179 -61 179 -61 139 -24.5 c 128,-1,24
 99 12 99 12 75.5 64 c 128,-1,25
 52 116 52 116 52 180 c 0,26,27
 52 237 52 237 72.5 301.5 c 128,-1,28
 93 366 93 366 136 421 c 128,-1,29
 179 476 179 476 245.5 512 c 128,-1,30
 312 548 312 548 404 548 c 0,31,32
 474 548 474 548 525.5 526 c 128,-1,33
 577 504 577 504 610.5 469 c 128,-1,34
 644 434 644 434 660 390 c 128,-1,35
 676 346 676 346 676 301 c 0,36,37
 676 257 676 257 661.5 216 c 128,-1,38
 647 175 647 175 620 143.5 c 128,-1,39
 593 112 593 112 555.5 93 c 128,-1,40
 518 74 518 74 472 74 c 0,41,42
 436 74 436 74 417.5 94.5 c 128,-1,43
 399 115 399 115 399 147 c 1,44,45
 382 113 382 113 356.5 93 c 128,-1,46
 331 73 331 73 305 73 c 0,47,48
 290 73 290 73 275 80.5 c 128,-1,49
 260 88 260 88 248 103 c 128,-1,50
 236 118 236 118 228.5 140.5 c 128,-1,51
 221 163 221 163 221 193 c 0,52,53
 221 238 221 238 238 274 c 128,-1,54
 255 310 255 310 282.5 335.5 c 128,-1,55
 310 361 310 361 344 375 c 128,-1,56
 378 389 378 389 412 389 c 0,57,58
 436 389 436 389 464.5 381 c 128,-1,59
 493 373 493 373 510 356 c 1,60,-1
 476 208 l 2,61,62
 474 197 474 197 473 187.5 c 128,-1,63
 472 178 472 178 472 173 c 0,64,65
 472 162 472 162 478 153.5 c 128,-1,66
 484 145 484 145 501 145 c 256,67,68
 518 145 518 145 533 158 c 128,-1,69
 548 171 548 171 558.5 192.5 c 128,-1,70
 569 214 569 214 575 241 c 128,-1,71
 581 268 581 268 581 297 c 0,72,73
 581 329 581 329 571 361.5 c 128,-1,74
 561 394 561 394 539.5 419.5 c 128,-1,75
 518 445 518 445 484 461 c 128,-1,76
 450 477 450 477 403 477 c 0,77,78
 341 477 341 477 293.5 450.5 c 128,-1,79
 246 424 246 424 214 381.5 c 128,-1,80
 182 339 182 339 165.5 286 c 128,-1,81
 149 233 149 233 149 180 c 0,82,83
 149 125 149 125 166 85.5 c 128,-1,84
 183 46 183 46 211.5 20.5 c 128,-1,85
 240 -5 240 -5 277 -17 c 128,-1,86
 314 -29 314 -29 355 -29 c 256,87,88
 396 -29 396 -29 431.5 -22.5 c 128,-1,89
 467 -16 467 -16 495.5 -6.5 c 128,-1,90
 524 3 524 3 545 13 c 128,-1,91
 566 23 566 23 577 31 c 1,92,-1
 587 12 l 1,93,-1
 573 -23 l 1,16,17
EndSplineSet
EndChar
StartChar: B
Encoding: 66 66 3
Width: 615
Flags: W
LayerCount: 2
Back
Fore
SplineSet
154 0 m 2,0,1
 147 0 147 0 131 -1 c 128,-1,2
 115 -2 115 -2 98 -3 c 128,-1,3
 81 -4 81 -4 65 -5 c 128,-1,4
 49 -6 49 -6 42 -6 c 1,5,-1
 40 -2 l 1,6,-1
 43 36 l 1,7,-1
 48 40 l 1,8,9
 60 40 60 40 76 41.5 c 128,-1,10
 92 43 92 43 101 49 c 0,11,12
 109 55 109 55 116 68 c 128,-1,13
 123 81 123 81 126 107 c 0,14,15
 127 122 127 122 127.5 152 c 128,-1,16
 128 182 128 182 128 241 c 2,17,-1
 128 451 l 2,18,19
 128 471 128 471 128 496.5 c 128,-1,20
 128 522 128 522 126 547 c 0,21,22
 124 574 124 574 116.5 586 c 128,-1,23
 109 598 109 598 101 604 c 0,24,25
 92 612 92 612 82.5 613 c 128,-1,26
 73 614 73 614 48 614 c 1,27,-1
 43 618 l 1,28,-1
 40 656 l 1,29,-1
 42 660 l 1,30,31
 49 660 49 660 60.5 659 c 128,-1,32
 72 658 72 658 84.5 657 c 128,-1,33
 97 656 97 656 110 655 c 128,-1,34
 123 654 123 654 134 654 c 2,35,-1
 210 654 l 2,36,37
 221 654 221 654 235 654.5 c 128,-1,38
 249 655 249 655 263.5 655 c 128,-1,39
 278 655 278 655 290 655.5 c 128,-1,40
 302 656 302 656 309 656 c 0,41,42
 363 656 363 656 401.5 645 c 128,-1,43
 440 634 440 634 464 614 c 128,-1,44
 488 594 488 594 499.5 566 c 128,-1,45
 511 538 511 538 511 504 c 0,46,47
 511 474 511 474 501.5 451 c 128,-1,48
 492 428 492 428 476.5 410.5 c 128,-1,49
 461 393 461 393 441 380.5 c 128,-1,50
 421 368 421 368 400 359 c 1,51,52
 482 346 482 346 527 304 c 128,-1,53
 572 262 572 262 572 188 c 0,54,55
 572 138 572 138 554 102.5 c 128,-1,56
 536 67 536 67 503.5 44.5 c 128,-1,57
 471 22 471 22 426 11 c 128,-1,58
 381 0 381 0 327 0 c 2,59,-1
 154 0 l 2,0,1
239 302 m 1,60,61
 239 281 239 281 239 252 c 128,-1,62
 239 223 239 223 239.5 196 c 128,-1,63
 240 169 240 169 240.5 147 c 128,-1,64
 241 125 241 125 242 117 c 0,65,66
 244 90 244 90 253 84 c 128,-1,67
 262 78 262 78 277 78 c 2,68,-1
 298 78 l 2,69,70
 322 78 322 78 350.5 82.5 c 128,-1,71
 379 87 379 87 404 99 c 128,-1,72
 429 111 429 111 446 132 c 128,-1,73
 463 153 463 153 463 186 c 0,74,75
 463 214 463 214 450 235.5 c 128,-1,76
 437 257 437 257 414 272 c 128,-1,77
 391 287 391 287 360.5 294.5 c 128,-1,78
 330 302 330 302 294 302 c 2,79,-1
 239 302 l 1,60,61
265 369 m 2,80,81
 297 369 297 369 316.5 373 c 128,-1,82
 336 377 336 377 359 394 c 0,83,84
 381 408 381 408 395 434.5 c 128,-1,85
 409 461 409 461 409 497 c 0,86,87
 409 535 409 535 379 555.5 c 128,-1,88
 349 576 349 576 294 576 c 2,89,-1
 244 576 l 1,90,91
 241 532 241 532 240 510.5 c 128,-1,92
 239 489 239 489 239 472 c 2,93,-1
 239 410 l 2,94,95
 239 387 239 387 241 378 c 128,-1,96
 243 369 243 369 256 369 c 2,97,-1
 265 369 l 2,80,81
EndSplineSet
EndChar
StartChar: C
Encoding: 67 67 4
Width: 650
Flags: W
LayerCount: 2
Back
Fore
SplineSet
543 507 m 1,0,1
 540 529 540 529 524 544.5 c 128,-1,2
 508 560 508 560 484.5 569 c 128,-1,3
 461 578 461 578 432.5 582 c 128,-1,4
 404 586 404 586 376 586 c 0,5,6
 287 586 287 586 238 541 c 0,7,8
 200 507 200 507 183 450.5 c 128,-1,9
 166 394 166 394 166 328 c 0,10,11
 166 265 166 265 183.5 217 c 128,-1,12
 201 169 201 169 231.5 136.5 c 128,-1,13
 262 104 262 104 304 87.5 c 128,-1,14
 346 71 346 71 396 71 c 0,15,16
 439 71 439 71 495.5 80.5 c 128,-1,17
 552 90 552 90 602 117 c 1,18,-1
 614 95 l 1,19,-1
 590 51 l 1,20,21
 538 19 538 19 485.5 4 c 128,-1,22
 433 -11 433 -11 378 -11 c 0,23,24
 303 -11 303 -11 242 13 c 128,-1,25
 181 37 181 37 137.5 81.5 c 128,-1,26
 94 126 94 126 70 187.5 c 128,-1,27
 46 249 46 249 46 324 c 0,28,29
 46 394 46 394 67.5 456.5 c 128,-1,30
 89 519 89 519 131.5 565 c 128,-1,31
 174 611 174 611 236.5 638 c 128,-1,32
 299 665 299 665 382 665 c 0,33,34
 402 665 402 665 429 663.5 c 128,-1,35
 456 662 456 662 486 657.5 c 128,-1,36
 516 653 516 653 546.5 644.5 c 128,-1,37
 577 636 577 636 605 623 c 1,38,-1
 608 614 l 1,39,-1
 595 503 l 1,40,-1
 546 503 l 1,41,-1
 543 507 l 1,0,1
EndSplineSet
EndChar
StartChar: D
Encoding: 68 68 5
Width: 753
Flags: W
LayerCount: 2
Back
Fore
SplineSet
126 547 m 0,0,1
 124 572 124 572 117 585 c 128,-1,2
 110 598 110 598 101 604 c 0,3,4
 92 612 92 612 82.5 613 c 128,-1,5
 73 614 73 614 48 614 c 1,6,-1
 43 618 l 1,7,-1
 40 656 l 1,8,-1
 42 660 l 1,9,10
 49 660 49 660 62 659 c 128,-1,11
 75 658 75 658 90 657 c 128,-1,12
 105 656 105 656 119.5 655 c 128,-1,13
 134 654 134 654 145 654 c 2,14,-1
 242 654 l 2,15,16
 254 654 254 654 272.5 654.5 c 128,-1,17
 291 655 291 655 310 656 c 128,-1,18
 329 657 329 657 346.5 657.5 c 128,-1,19
 364 658 364 658 376 658 c 0,20,21
 454 658 454 658 515.5 631.5 c 128,-1,22
 577 605 577 605 619 560 c 128,-1,23
 661 515 661 515 683.5 455 c 128,-1,24
 706 395 706 395 706 328 c 0,25,26
 706 262 706 262 684.5 202.5 c 128,-1,27
 663 143 663 143 621 97.5 c 128,-1,28
 579 52 579 52 516 25 c 128,-1,29
 453 -2 453 -2 370 -2 c 0,30,31
 362 -2 362 -2 345.5 -1.5 c 128,-1,32
 329 -1 329 -1 310.5 -1 c 128,-1,33
 292 -1 292 -1 274.5 -0.5 c 128,-1,34
 257 0 257 0 247 0 c 2,35,-1
 154 0 l 2,36,37
 147 0 147 0 131 -1 c 128,-1,38
 115 -2 115 -2 98 -3 c 128,-1,39
 81 -4 81 -4 65 -5 c 128,-1,40
 49 -6 49 -6 42 -6 c 1,41,-1
 40 -2 l 1,42,-1
 43 36 l 1,43,-1
 48 40 l 1,44,45
 60 40 60 40 76 41.5 c 128,-1,46
 92 43 92 43 101 49 c 0,47,48
 109 55 109 55 116 68 c 128,-1,49
 123 81 123 81 126 107 c 0,50,51
 126 114 126 114 126.5 123.5 c 128,-1,52
 127 133 127 133 127.5 147 c 128,-1,53
 128 161 128 161 128 181 c 128,-1,54
 128 201 128 201 128 231 c 2,55,-1
 128 394 l 2,56,57
 128 404 128 404 128 424.5 c 128,-1,58
 128 445 128 445 128 468 c 128,-1,59
 128 491 128 491 127.5 513 c 128,-1,60
 127 535 127 535 126 547 c 0,0,1
337 78 m 2,61,62
 397 78 397 78 443 97.5 c 128,-1,63
 489 117 489 117 520.5 151 c 128,-1,64
 552 185 552 185 568.5 230.5 c 128,-1,65
 585 276 585 276 585 328 c 0,66,67
 585 382 585 382 568 427.5 c 128,-1,68
 551 473 551 473 518.5 506 c 128,-1,69
 486 539 486 539 439 557.5 c 128,-1,70
 392 576 392 576 332 576 c 2,71,-1
 244 576 l 1,72,73
 242 547 242 547 241.5 527.5 c 128,-1,74
 241 508 241 508 240 488 c 128,-1,75
 239 468 239 468 239 444.5 c 128,-1,76
 239 421 239 421 239 385 c 2,77,-1
 239 261 l 2,78,79
 239 201 239 201 239.5 167.5 c 128,-1,80
 240 134 240 134 242 117 c 0,81,82
 245 91 245 91 255 84.5 c 128,-1,83
 265 78 265 78 291 78 c 2,84,-1
 337 78 l 2,61,62
EndSplineSet
EndChar
StartChar: E
Encoding: 69 69 6
Width: 575
Flags: W
LayerCount: 2
Back
Fore
SplineSet
328 654 m 2,0,1
 342 654 342 654 369.5 654.5 c 128,-1,2
 397 655 397 655 426 656 c 128,-1,3
 455 657 455 657 478 657.5 c 128,-1,4
 501 658 501 658 506 658 c 1,5,-1
 512 648 l 1,6,-1
 507 519 l 1,7,-1
 462 519 l 1,8,-1
 458 523 l 1,9,10
 456 542 456 542 452.5 553 c 128,-1,11
 449 564 449 564 434 569 c 128,-1,12
 419 574 419 574 387.5 575 c 128,-1,13
 356 576 356 576 300 576 c 2,14,-1
 243 576 l 1,15,-1
 242 567 l 2,16,17
 241 553 241 553 240.5 541 c 128,-1,18
 240 529 240 529 239.5 513 c 128,-1,19
 239 497 239 497 239 474 c 128,-1,20
 239 451 239 451 239 415 c 2,21,-1
 239 381 l 1,22,23
 263 382 263 382 285 381.5 c 128,-1,24
 307 381 307 381 326 382 c 128,-1,25
 345 383 345 383 358.5 385.5 c 128,-1,26
 372 388 372 388 378 394 c 0,27,28
 388 404 388 404 388 422 c 1,29,-1
 393 427 l 1,30,-1
 430 429 l 1,31,-1
 434 427 l 1,32,33
 432 404 432 404 430.5 387 c 128,-1,34
 429 370 429 370 429 348 c 0,35,36
 429 324 429 324 430.5 303.5 c 128,-1,37
 432 283 432 283 434 259 c 1,38,-1
 430 257 l 1,39,-1
 392 259 l 1,40,-1
 388 262 l 1,41,42
 388 287 388 287 379 299 c 0,43,44
 371 310 371 310 333.5 311.5 c 128,-1,45
 296 313 296 313 250 313 c 2,46,-1
 239 313 l 1,47,-1
 239 231 l 2,48,49
 239 202 239 202 239.5 183 c 128,-1,50
 240 164 240 164 240.5 150.5 c 128,-1,51
 241 137 241 137 242 125 c 128,-1,52
 243 113 243 113 244 97 c 0,53,54
 245 78 245 78 264 78 c 2,55,-1
 309 78 l 2,56,57
 366 78 366 78 398.5 80 c 128,-1,58
 431 82 431 82 448 89.5 c 128,-1,59
 465 97 465 97 472.5 111 c 128,-1,60
 480 125 480 125 486 149 c 1,61,-1
 490 153 l 1,62,-1
 537 153 l 1,63,-1
 518 6 l 1,64,-1
 510 -4 l 2,65,66
 505 -4 505 -4 485.5 -3.5 c 128,-1,67
 466 -3 466 -3 442 -2 c 128,-1,68
 418 -1 418 -1 394 -0.5 c 128,-1,69
 370 0 370 0 356 0 c 2,70,-1
 154 0 l 2,71,72
 147 0 147 0 131 -1 c 128,-1,73
 115 -2 115 -2 98 -3 c 128,-1,74
 81 -4 81 -4 65 -5 c 128,-1,75
 49 -6 49 -6 42 -6 c 1,76,-1
 40 -2 l 1,77,-1
 43 36 l 1,78,-1
 48 40 l 1,79,80
 64 40 64 40 78 41.5 c 128,-1,81
 92 43 92 43 101 50 c 0,82,83
 109 57 109 57 116.5 68 c 128,-1,84
 124 79 124 79 126 107 c 0,85,86
 126 114 126 114 126.5 123.5 c 128,-1,87
 127 133 127 133 127.5 147 c 128,-1,88
 128 161 128 161 128 181 c 128,-1,89
 128 201 128 201 128 231 c 2,90,-1
 128 394 l 2,91,92
 128 429 128 429 128 453 c 128,-1,93
 128 477 128 477 128 494 c 128,-1,94
 128 511 128 511 127.5 523 c 128,-1,95
 127 535 127 535 126 547 c 0,96,97
 124 574 124 574 116.5 586 c 128,-1,98
 109 598 109 598 101 604 c 0,99,100
 92 612 92 612 78 613 c 128,-1,101
 64 614 64 614 48 614 c 1,102,-1
 43 618 l 1,103,-1
 40 656 l 1,104,-1
 42 660 l 1,105,106
 49 660 49 660 65 659 c 128,-1,107
 81 658 81 658 99.5 657 c 128,-1,108
 118 656 118 656 135.5 655 c 128,-1,109
 153 654 153 654 164 654 c 2,110,-1
 328 654 l 2,0,1
EndSplineSet
EndChar
StartChar: F
Encoding: 70 70 7
Width: 533
Flags: W
LayerCount: 2
Back
Fore
SplineSet
126 547 m 0,0,1
 124 576 124 576 116.5 587 c 128,-1,2
 109 598 109 598 101 604 c 0,3,4
 92 612 92 612 78 613 c 128,-1,5
 64 614 64 614 48 614 c 1,6,-1
 43 618 l 1,7,-1
 40 656 l 1,8,-1
 42 660 l 1,9,10
 49 660 49 660 65 659 c 128,-1,11
 81 658 81 658 98 657 c 128,-1,12
 115 656 115 656 131 655 c 128,-1,13
 147 654 147 654 154 654 c 2,14,-1
 328 654 l 2,15,16
 342 654 342 654 369.5 654.5 c 128,-1,17
 397 655 397 655 426 656 c 128,-1,18
 455 657 455 657 478 657.5 c 128,-1,19
 501 658 501 658 506 658 c 1,20,-1
 512 648 l 1,21,-1
 507 519 l 1,22,-1
 462 519 l 1,23,-1
 458 523 l 1,24,25
 456 542 456 542 452.5 553 c 128,-1,26
 449 564 449 564 434 569 c 128,-1,27
 419 574 419 574 387.5 575 c 128,-1,28
 356 576 356 576 300 576 c 2,29,-1
 244 576 l 1,30,-1
 242 537 l 2,31,32
 242 527 242 527 241.5 518.5 c 128,-1,33
 241 510 241 510 240.5 499 c 128,-1,34
 240 488 240 488 239.5 471.5 c 128,-1,35
 239 455 239 455 239 381 c 1,36,37
 263 382 263 382 285.5 381.5 c 128,-1,38
 308 381 308 381 326.5 382 c 128,-1,39
 345 383 345 383 359 385.5 c 128,-1,40
 373 388 373 388 379 394 c 0,41,42
 388 403 388 403 388 423 c 1,43,-1
 393 428 l 1,44,-1
 430 430 l 1,45,-1
 434 428 l 1,46,47
 433 415 433 415 432 405.5 c 128,-1,48
 431 396 431 396 430.5 387 c 128,-1,49
 430 378 430 378 429.5 369 c 128,-1,50
 429 360 429 360 429 348 c 0,51,52
 429 324 429 324 430.5 302.5 c 128,-1,53
 432 281 432 281 434 257 c 1,54,-1
 430 255 l 1,55,-1
 392 257 l 1,56,-1
 388 260 l 1,57,58
 388 286 388 286 378 299 c 0,59,60
 373 304 373 304 360 307 c 128,-1,61
 347 310 347 310 328.5 311.5 c 128,-1,62
 310 313 310 313 286.5 313 c 128,-1,63
 263 313 263 313 239 313 c 1,64,-1
 239 251 l 2,65,66
 239 215 239 215 239 192.5 c 128,-1,67
 239 170 239 170 239.5 155 c 128,-1,68
 240 140 240 140 240.5 129.5 c 128,-1,69
 241 119 241 119 242 107 c 0,70,71
 244 78 244 78 252.5 67 c 128,-1,72
 261 56 261 56 269 50 c 0,73,74
 278 42 278 42 295.5 41 c 128,-1,75
 313 40 313 40 329 40 c 1,76,-1
 334 36 l 1,77,-1
 337 -2 l 1,78,-1
 335 -6 l 1,79,80
 328 -6 328 -6 310.5 -5 c 128,-1,81
 293 -4 293 -4 274 -3 c 128,-1,82
 255 -2 255 -2 237.5 -1 c 128,-1,83
 220 0 220 0 213 0 c 2,84,-1
 154 0 l 2,85,86
 147 0 147 0 131 -1 c 128,-1,87
 115 -2 115 -2 98 -3 c 128,-1,88
 81 -4 81 -4 65 -5 c 128,-1,89
 49 -6 49 -6 42 -6 c 1,90,-1
 40 -2 l 1,91,-1
 43 36 l 1,92,-1
 48 40 l 1,93,94
 64 40 64 40 78 41.5 c 128,-1,95
 92 43 92 43 101 50 c 0,96,97
 109 57 109 57 116.5 68 c 128,-1,98
 124 79 124 79 126 107 c 0,99,100
 126 114 126 114 126.5 123.5 c 128,-1,101
 127 133 127 133 127.5 147 c 128,-1,102
 128 161 128 161 128 181 c 128,-1,103
 128 201 128 201 128 231 c 2,104,-1
 128 394 l 2,105,106
 128 429 128 429 128 453 c 128,-1,107
 128 477 128 477 127.5 494 c 128,-1,108
 127 511 127 511 126.5 523 c 128,-1,109
 126 535 126 535 126 547 c 0,0,1
EndSplineSet
EndChar
StartChar: G
Encoding: 71 71 8
Width: 702
Flags: W
LayerCount: 2
Back
Fore
SplineSet
609 25 m 1,0,1
 559 10 559 10 504 -0.5 c 128,-1,2
 449 -11 449 -11 389 -11 c 0,3,4
 302 -11 302 -11 237.5 15.5 c 128,-1,5
 173 42 173 42 130.5 88 c 128,-1,6
 88 134 88 134 67 195 c 128,-1,7
 46 256 46 256 46 324 c 0,8,9
 46 396 46 396 68.5 458 c 128,-1,10
 91 520 91 520 135 566 c 128,-1,11
 179 612 179 612 244 638.5 c 128,-1,12
 309 665 309 665 395 665 c 0,13,14
 414 665 414 665 439.5 663 c 128,-1,15
 465 661 465 661 493 656 c 128,-1,16
 521 651 521 651 550.5 642.5 c 128,-1,17
 580 634 580 634 607 621 c 1,18,-1
 609 612 l 1,19,-1
 592 503 l 1,20,-1
 547 503 l 1,21,-1
 543 506 l 1,22,23
 538 540 538 540 502.5 561.5 c 128,-1,24
 467 583 467 583 390 583 c 0,25,26
 342 583 342 583 305.5 574.5 c 128,-1,27
 269 566 269 566 238 542 c 0,28,29
 216 525 216 525 202 501.5 c 128,-1,30
 188 478 188 478 180 450 c 128,-1,31
 172 422 172 422 169 391 c 128,-1,32
 166 360 166 360 166 329 c 0,33,34
 166 268 166 268 182.5 220 c 128,-1,35
 199 172 199 172 228 139 c 128,-1,36
 257 106 257 106 296.5 88.5 c 128,-1,37
 336 71 336 71 382 71 c 0,38,39
 396 71 396 71 412.5 72.5 c 128,-1,40
 429 74 429 74 445 77 c 128,-1,41
 461 80 461 80 473.5 84 c 128,-1,42
 486 88 486 88 491 92 c 0,43,44
 497 95 497 95 498 100 c 128,-1,45
 499 105 499 105 499 113 c 0,46,47
 499 120 499 120 499 136 c 128,-1,48
 499 152 499 152 497 161 c 0,49,50
 495 187 495 187 486.5 200.5 c 128,-1,51
 478 214 478 214 472 218 c 0,52,53
 463 226 463 226 445 227 c 128,-1,54
 427 228 427 228 411 228 c 1,55,-1
 406 232 l 1,56,-1
 403 274 l 1,57,-1
 405 278 l 1,58,59
 412 278 412 278 427.5 277 c 128,-1,60
 443 276 443 276 459.5 275 c 128,-1,61
 476 274 476 274 491.5 273 c 128,-1,62
 507 272 507 272 514 272 c 2,63,-1
 584 272 l 2,64,65
 591 272 591 272 603 273 c 128,-1,66
 615 274 615 274 628 275 c 128,-1,67
 641 276 641 276 653 277 c 128,-1,68
 665 278 665 278 672 278 c 1,69,-1
 674 274 l 1,70,-1
 672 230 l 1,71,-1
 667 226 l 1,72,73
 638 226 638 226 626.5 209.5 c 128,-1,74
 615 193 615 193 613 161 c 0,75,76
 611 141 611 141 610.5 118.5 c 128,-1,77
 610 96 610 96 610 85 c 0,78,79
 610 70 610 70 610.5 52.5 c 128,-1,80
 611 35 611 35 613 30 c 1,81,-1
 609 25 l 1,0,1
EndSplineSet
EndChar
StartChar: H
Encoding: 72 72 9
Width: 774
Flags: W
LayerCount: 2
Back
Fore
SplineSet
732 -6 m 1,0,1
 725 -6 725 -6 709 -5 c 128,-1,2
 693 -4 693 -4 676 -3 c 128,-1,3
 659 -2 659 -2 643 -1 c 128,-1,4
 627 0 627 0 620 0 c 2,5,-1
 561 0 l 2,6,7
 554 0 554 0 538 -1 c 128,-1,8
 522 -2 522 -2 505 -3 c 128,-1,9
 488 -4 488 -4 472 -5 c 128,-1,10
 456 -6 456 -6 449 -6 c 1,11,-1
 447 -2 l 1,12,-1
 450 36 l 1,13,-1
 454 40 l 1,14,15
 470 40 470 40 484 41.5 c 128,-1,16
 498 43 498 43 508 50 c 0,17,18
 517 57 517 57 522 68 c 128,-1,19
 527 79 527 79 532 107 c 0,20,21
 533 114 533 114 533.5 123.5 c 128,-1,22
 534 133 534 133 534.5 147 c 128,-1,23
 535 161 535 161 535 181 c 128,-1,24
 535 201 535 201 535 231 c 2,25,-1
 535 311 l 1,26,-1
 239 311 l 1,27,-1
 239 251 l 2,28,29
 239 215 239 215 239 192.5 c 128,-1,30
 239 170 239 170 239.5 155 c 128,-1,31
 240 140 240 140 240.5 129.5 c 128,-1,32
 241 119 241 119 242 107 c 0,33,34
 244 79 244 79 251 68 c 128,-1,35
 258 57 258 57 266 50 c 0,36,37
 275 43 275 43 289.5 41.5 c 128,-1,38
 304 40 304 40 320 40 c 1,39,-1
 324 36 l 1,40,-1
 327 -2 l 1,41,-1
 325 -6 l 1,42,43
 318 -6 318 -6 302 -5 c 128,-1,44
 286 -4 286 -4 269 -3 c 128,-1,45
 252 -2 252 -2 236 -1 c 128,-1,46
 220 0 220 0 213 0 c 2,47,-1
 154 0 l 2,48,49
 147 0 147 0 131 -1 c 128,-1,50
 115 -2 115 -2 98 -3 c 128,-1,51
 81 -4 81 -4 65 -5 c 128,-1,52
 49 -6 49 -6 42 -6 c 1,53,-1
 40 -2 l 1,54,-1
 43 36 l 1,55,-1
 48 40 l 1,56,57
 64 40 64 40 78 41.5 c 128,-1,58
 92 43 92 43 101 50 c 0,59,60
 109 57 109 57 116.5 68 c 128,-1,61
 124 79 124 79 126 107 c 0,62,63
 126 114 126 114 126.5 123.5 c 128,-1,64
 127 133 127 133 127.5 147 c 128,-1,65
 128 161 128 161 128 181 c 128,-1,66
 128 201 128 201 128 231 c 2,67,-1
 128 394 l 2,68,69
 128 429 128 429 128 453 c 128,-1,70
 128 477 128 477 127.5 494 c 128,-1,71
 127 511 127 511 126.5 523 c 128,-1,72
 126 535 126 535 125 547 c 0,73,74
 123 573 123 573 116 585 c 128,-1,75
 109 597 109 597 101 604 c 0,76,77
 92 611 92 611 78 612.5 c 128,-1,78
 64 614 64 614 48 614 c 1,79,-1
 43 618 l 1,80,-1
 40 656 l 1,81,-1
 42 660 l 1,82,83
 49 660 49 660 65 659 c 128,-1,84
 81 658 81 658 98 657 c 128,-1,85
 115 656 115 656 131 655 c 128,-1,86
 147 654 147 654 154 654 c 2,87,-1
 213 654 l 2,88,89
 220 654 220 654 236 655 c 128,-1,90
 252 656 252 656 269 657 c 128,-1,91
 286 658 286 658 302 659 c 128,-1,92
 318 660 318 660 325 660 c 1,93,-1
 327 656 l 1,94,-1
 324 618 l 1,95,-1
 320 614 l 1,96,97
 306 614 306 614 290.5 612.5 c 128,-1,98
 275 611 275 611 266 604 c 0,99,100
 258 597 258 597 250.5 586 c 128,-1,101
 243 575 243 575 242 547 c 0,102,103
 241 533 241 533 240.5 521 c 128,-1,104
 240 509 240 509 239.5 493 c 128,-1,105
 239 477 239 477 239 454 c 128,-1,106
 239 431 239 431 239 395 c 2,107,-1
 239 385 l 1,108,-1
 535 385 l 1,109,-1
 535 394 l 2,110,111
 535 429 535 429 535 453 c 128,-1,112
 535 477 535 477 534.5 494 c 128,-1,113
 534 511 534 511 533.5 523 c 128,-1,114
 533 535 533 535 532 547 c 0,115,116
 530 575 530 575 523 586 c 128,-1,117
 516 597 516 597 508 604 c 0,118,119
 499 611 499 611 484.5 612.5 c 128,-1,120
 470 614 470 614 454 614 c 1,121,-1
 450 618 l 1,122,-1
 447 656 l 1,123,-1
 449 660 l 1,124,125
 456 660 456 660 472 659 c 128,-1,126
 488 658 488 658 505 657 c 128,-1,127
 522 656 522 656 538 655 c 128,-1,128
 554 654 554 654 561 654 c 2,129,-1
 620 654 l 2,130,131
 627 654 627 654 643 655 c 128,-1,132
 659 656 659 656 676 657 c 128,-1,133
 693 658 693 658 709 659 c 128,-1,134
 725 660 725 660 732 660 c 1,135,-1
 734 656 l 1,136,-1
 731 618 l 1,137,-1
 726 614 l 1,138,139
 710 614 710 614 695.5 612.5 c 128,-1,140
 681 611 681 611 673 604 c 256,141,142
 665 597 665 597 658.5 586 c 128,-1,143
 652 575 652 575 648 547 c 0,144,145
 647 533 647 533 646.5 521 c 128,-1,146
 646 509 646 509 646 493 c 128,-1,147
 646 477 646 477 646 454 c 128,-1,148
 646 431 646 431 646 395 c 2,149,-1
 646 251 l 2,150,151
 646 215 646 215 646 192.5 c 128,-1,152
 646 170 646 170 646 155 c 128,-1,153
 646 140 646 140 646.5 129.5 c 128,-1,154
 647 119 647 119 648 107 c 0,155,156
 650 79 650 79 657.5 68 c 128,-1,157
 665 57 665 57 673 50 c 0,158,159
 682 43 682 43 696 41.5 c 128,-1,160
 710 40 710 40 726 40 c 1,161,-1
 731 36 l 1,162,-1
 734 -2 l 1,163,-1
 732 -6 l 1,0,1
EndSplineSet
EndChar
StartChar: I
Encoding: 73 73 10
Width: 367
Flags: W
LayerCount: 2
Back
Fore
SplineSet
327 656 m 1,0,-1
 324 618 l 1,1,-1
 320 614 l 1,2,3
 304 614 304 614 290 612.5 c 128,-1,4
 276 611 276 611 266 604 c 0,5,6
 257 597 257 597 249.5 586 c 128,-1,7
 242 575 242 575 242 547 c 0,8,9
 241 533 241 533 240.5 521 c 128,-1,10
 240 509 240 509 239.5 493 c 128,-1,11
 239 477 239 477 239 454 c 128,-1,12
 239 431 239 431 239 395 c 2,13,-1
 239 251 l 2,14,15
 239 215 239 215 239 192.5 c 128,-1,16
 239 170 239 170 239.5 155 c 128,-1,17
 240 140 240 140 240.5 129.5 c 128,-1,18
 241 119 241 119 242 107 c 0,19,20
 244 79 244 79 251 68 c 128,-1,21
 258 57 258 57 266 50 c 0,22,23
 275 43 275 43 289.5 41.5 c 128,-1,24
 304 40 304 40 320 40 c 1,25,-1
 324 36 l 1,26,-1
 327 -2 l 1,27,-1
 325 -6 l 1,28,29
 318 -6 318 -6 302 -5 c 128,-1,30
 286 -4 286 -4 269 -3 c 128,-1,31
 252 -2 252 -2 236 -1 c 128,-1,32
 220 0 220 0 213 0 c 2,33,-1
 154 0 l 2,34,35
 147 0 147 0 131 -1 c 128,-1,36
 115 -2 115 -2 98 -3 c 128,-1,37
 81 -4 81 -4 65 -5 c 128,-1,38
 49 -6 49 -6 42 -6 c 1,39,-1
 40 -2 l 1,40,-1
 43 36 l 1,41,-1
 48 40 l 1,42,43
 64 40 64 40 78.5 41.5 c 128,-1,44
 93 43 93 43 101 50 c 256,45,46
 109 57 109 57 115.5 68 c 128,-1,47
 122 79 122 79 126 107 c 0,48,49
 126 114 126 114 126.5 123.5 c 128,-1,50
 127 133 127 133 127.5 147 c 128,-1,51
 128 161 128 161 128 181 c 128,-1,52
 128 201 128 201 128 231 c 2,53,-1
 128 394 l 2,54,55
 128 429 128 429 128 453 c 128,-1,56
 128 477 128 477 127.5 494 c 128,-1,57
 127 511 127 511 126.5 523 c 128,-1,58
 126 535 126 535 125 547 c 0,59,60
 123 573 123 573 116 585 c 128,-1,61
 109 597 109 597 101 604 c 0,62,63
 92 611 92 611 78 612.5 c 128,-1,64
 64 614 64 614 48 614 c 1,65,-1
 43 618 l 1,66,-1
 40 656 l 1,67,-1
 42 660 l 1,68,69
 49 660 49 660 65 659 c 128,-1,70
 81 658 81 658 98 657 c 128,-1,71
 115 656 115 656 131 655 c 128,-1,72
 147 654 147 654 154 654 c 2,73,-1
 213 654 l 2,74,75
 220 654 220 654 236 655 c 128,-1,76
 252 656 252 656 269 657 c 128,-1,77
 286 658 286 658 302 659 c 128,-1,78
 318 660 318 660 325 660 c 1,79,-1
 327 656 l 1,0,-1
EndSplineSet
EndChar
StartChar: J
Encoding: 74 74 11
Width: 346
Flags: W
LayerCount: 2
Back
Fore
SplineSet
317 656 m 1,0,-1
 314 618 l 1,1,-1
 310 614 l 1,2,3
 294 614 294 614 280 612.5 c 128,-1,4
 266 611 266 611 256 604 c 0,5,6
 247 597 247 597 239.5 586 c 128,-1,7
 232 575 232 575 232 547 c 0,8,9
 231 535 231 535 230.5 524.5 c 128,-1,10
 230 514 230 514 229.5 500 c 128,-1,11
 229 486 229 486 229 466 c 128,-1,12
 229 446 229 446 229 415 c 2,13,-1
 229 231 l 2,14,15
 229 195 229 195 229 170.5 c 128,-1,16
 229 146 229 146 228.5 129 c 128,-1,17
 228 112 228 112 228 99.5 c 128,-1,18
 228 87 228 87 228 76 c 0,19,20
 227 -34 227 -34 188 -88 c 128,-1,21
 149 -142 149 -142 77 -153 c 0,22,23
 66 -155 66 -155 53.5 -155.5 c 128,-1,24
 41 -156 41 -156 31 -156 c 2,25,-1
 23 -153 l 1,26,-1
 21 -101 l 1,27,-1
 25 -96 l 2,28,29
 30 -96 30 -96 45 -95.5 c 128,-1,30
 60 -95 60 -95 65 -95 c 0,31,32
 83 -95 83 -95 93.5 -81 c 128,-1,33
 104 -67 104 -67 109 -49 c 0,34,35
 112 -37 112 -37 114 -7 c 128,-1,36
 116 23 116 23 117 61 c 128,-1,37
 118 99 118 99 118 139 c 128,-1,38
 118 179 118 179 118 211 c 2,39,-1
 118 414 l 2,40,41
 118 444 118 444 118 465 c 128,-1,42
 118 486 118 486 117.5 501 c 128,-1,43
 117 516 117 516 116.5 526.5 c 128,-1,44
 116 537 116 537 115 547 c 0,45,46
 113 574 113 574 106 586 c 128,-1,47
 99 598 99 598 91 604 c 0,48,49
 82 612 82 612 68 613 c 128,-1,50
 54 614 54 614 38 614 c 1,51,-1
 33 618 l 1,52,-1
 30 656 l 1,53,-1
 32 660 l 1,54,55
 39 660 39 660 55 659 c 128,-1,56
 71 658 71 658 88 657 c 128,-1,57
 105 656 105 656 121 655 c 128,-1,58
 137 654 137 654 144 654 c 2,59,-1
 203 654 l 2,60,61
 210 654 210 654 226 655 c 128,-1,62
 242 656 242 656 259 657 c 128,-1,63
 276 658 276 658 292 659 c 128,-1,64
 308 660 308 660 315 660 c 1,65,-1
 317 656 l 1,0,-1
EndSplineSet
EndChar
StartChar: K
Encoding: 75 75 12
Width: 696
Flags: W
LayerCount: 2
Back
Fore
SplineSet
580 592 m 0,0,1
 571 586 571 586 553.5 570 c 128,-1,2
 536 554 536 554 515 532.5 c 128,-1,3
 494 511 494 511 470.5 486 c 128,-1,4
 447 461 447 461 425 438 c 2,5,-1
 357 366 l 1,6,7
 395 310 395 310 430.5 253.5 c 128,-1,8
 466 197 466 197 513 145 c 0,9,10
 533 122 533 122 552.5 104.5 c 128,-1,11
 572 87 572 87 594 74.5 c 128,-1,12
 616 62 616 62 641 53.5 c 128,-1,13
 666 45 666 45 698 40 c 1,14,-1
 704 36 l 1,15,-1
 706 -2 l 1,16,-1
 704 -6 l 1,17,18
 689 -6 689 -6 672 -6.5 c 128,-1,19
 655 -7 655 -7 637.5 -8 c 128,-1,20
 620 -9 620 -9 605 -9.5 c 128,-1,21
 590 -10 590 -10 580 -10 c 0,22,23
 554 -10 554 -10 532 -3.5 c 128,-1,24
 510 3 510 3 489.5 18 c 128,-1,25
 469 33 469 33 448 58 c 128,-1,26
 427 83 427 83 402 119 c 0,27,28
 396 128 396 128 381.5 150.5 c 128,-1,29
 367 173 367 173 350 200 c 128,-1,30
 333 227 333 227 316 254.5 c 128,-1,31
 299 282 299 282 286 302 c 1,32,33
 274 291 274 291 262 280.5 c 128,-1,34
 250 270 250 270 239 259 c 1,35,-1
 239 251 l 2,36,37
 239 209 239 209 239 186.5 c 128,-1,38
 239 164 239 164 239.5 150.5 c 128,-1,39
 240 137 240 137 240.5 128.5 c 128,-1,40
 241 120 241 120 242 107 c 0,41,42
 244 78 244 78 251 67 c 128,-1,43
 258 56 258 56 266 50 c 0,44,45
 275 42 275 42 289.5 41 c 128,-1,46
 304 40 304 40 320 40 c 1,47,-1
 324 36 l 1,48,-1
 327 -2 l 1,49,-1
 325 -6 l 1,50,51
 318 -6 318 -6 302 -5 c 128,-1,52
 286 -4 286 -4 269 -3 c 128,-1,53
 252 -2 252 -2 236 -1 c 128,-1,54
 220 0 220 0 213 0 c 2,55,-1
 154 0 l 2,56,57
 147 0 147 0 131 -1 c 128,-1,58
 115 -2 115 -2 98 -3 c 128,-1,59
 81 -4 81 -4 65 -5 c 128,-1,60
 49 -6 49 -6 42 -6 c 1,61,-1
 40 -2 l 1,62,-1
 43 36 l 1,63,-1
 48 40 l 1,64,65
 64 40 64 40 78 41.5 c 128,-1,66
 92 43 92 43 101 50 c 0,67,68
 109 57 109 57 116.5 68 c 128,-1,69
 124 79 124 79 126 107 c 0,70,71
 126 114 126 114 126.5 123.5 c 128,-1,72
 127 133 127 133 127.5 147 c 128,-1,73
 128 161 128 161 128 181 c 128,-1,74
 128 201 128 201 128 231 c 2,75,-1
 128 394 l 2,76,77
 128 429 128 429 128 453 c 128,-1,78
 128 477 128 477 128 494 c 128,-1,79
 128 511 128 511 127.5 523 c 128,-1,80
 127 535 127 535 126 547 c 0,81,82
 124 574 124 574 116.5 586 c 128,-1,83
 109 598 109 598 101 604 c 0,84,85
 92 612 92 612 78 613 c 128,-1,86
 64 614 64 614 48 614 c 1,87,-1
 43 618 l 1,88,-1
 40 656 l 1,89,-1
 42 660 l 1,90,91
 49 660 49 660 65 659 c 128,-1,92
 81 658 81 658 98 657 c 128,-1,93
 115 656 115 656 131 655 c 128,-1,94
 147 654 147 654 154 654 c 2,95,-1
 213 654 l 2,96,97
 220 654 220 654 236 655 c 128,-1,98
 252 656 252 656 269 657 c 128,-1,99
 286 658 286 658 302 659 c 128,-1,100
 318 660 318 660 325 660 c 1,101,-1
 327 656 l 1,102,-1
 324 618 l 1,103,-1
 320 614 l 1,104,105
 306 614 306 614 290.5 612.5 c 128,-1,106
 275 611 275 611 266 604 c 0,107,108
 258 597 258 597 250.5 586 c 128,-1,109
 243 575 243 575 242 547 c 0,110,111
 241 535 241 535 240.5 523.5 c 128,-1,112
 240 512 240 512 239.5 496.5 c 128,-1,113
 239 481 239 481 239 460.5 c 128,-1,114
 239 440 239 440 239 411 c 2,115,-1
 239 363 l 1,116,117
 259 373 259 373 285 393.5 c 128,-1,118
 311 414 311 414 337 438 c 0,119,120
 356 456 356 456 376 477.5 c 128,-1,121
 396 499 396 499 412.5 519 c 128,-1,122
 429 539 429 539 439 555 c 128,-1,123
 449 571 449 571 449 577 c 0,124,125
 449 588 449 588 444.5 594.5 c 128,-1,126
 440 601 440 601 432.5 605 c 128,-1,127
 425 609 425 609 415 611 c 128,-1,128
 405 613 405 613 395 615 c 1,129,-1
 390 619 l 1,130,-1
 390 657 l 1,131,-1
 395 661 l 1,132,133
 415 657 415 657 437.5 656 c 128,-1,134
 460 655 460 655 483 655 c 2,135,-1
 572 655 l 2,136,137
 584 655 584 655 592.5 655 c 128,-1,138
 601 655 601 655 609.5 656 c 128,-1,139
 618 657 618 657 628 658 c 128,-1,140
 638 659 638 659 652 661 c 1,141,-1
 656 657 l 1,142,-1
 656 619 l 1,143,-1
 652 615 l 1,144,145
 638 613 638 613 616.5 607 c 128,-1,146
 595 601 595 601 580 592 c 0,0,1
EndSplineSet
EndChar
StartChar: L
Encoding: 76 76 13
Width: 529
Flags: W
LayerCount: 2
Back
Fore
SplineSet
125 547 m 0,0,1
 123 564 123 564 117.5 580.5 c 128,-1,2
 112 597 112 597 101 605 c 0,3,4
 93 610 93 610 81 612 c 128,-1,5
 69 614 69 614 48 614 c 1,6,-1
 43 618 l 1,7,-1
 40 656 l 1,8,-1
 42 660 l 1,9,10
 51 659 51 659 66.5 658 c 128,-1,11
 82 657 82 657 98.5 656 c 128,-1,12
 115 655 115 655 130 654.5 c 128,-1,13
 145 654 145 654 154 654 c 2,14,-1
 213 654 l 2,15,16
 222 654 222 654 236.5 654.5 c 128,-1,17
 251 655 251 655 267.5 656 c 128,-1,18
 284 657 284 657 299.5 658 c 128,-1,19
 315 659 315 659 325 660 c 1,20,-1
 327 656 l 1,21,-1
 324 618 l 1,22,-1
 320 614 l 1,23,24
 295 614 295 614 283.5 611.5 c 128,-1,25
 272 609 272 609 265 604 c 0,26,27
 244 590 244 590 241 547 c 0,28,29
 240 537 240 537 239.5 526.5 c 128,-1,30
 239 516 239 516 239 499.5 c 128,-1,31
 239 483 239 483 239 458 c 128,-1,32
 239 433 239 433 239 395 c 2,33,-1
 239 261 l 2,34,35
 239 222 239 222 239 197.5 c 128,-1,36
 239 173 239 173 239.5 156.5 c 128,-1,37
 240 140 240 140 240.5 127.5 c 128,-1,38
 241 115 241 115 243 98 c 0,39,40
 244 78 244 78 266 78 c 2,41,-1
 359 78 l 2,42,43
 392 78 392 78 411.5 79.5 c 128,-1,44
 431 81 431 81 442 87.5 c 128,-1,45
 453 94 453 94 459 106 c 128,-1,46
 465 118 465 118 470 139 c 1,47,-1
 473 143 l 1,48,-1
 519 143 l 1,49,-1
 501 6 l 1,50,-1
 493 -4 l 1,51,52
 485 -3 485 -3 468 -2.5 c 128,-1,53
 451 -2 451 -2 432 -1.5 c 128,-1,54
 413 -1 413 -1 394.5 -0.5 c 128,-1,55
 376 0 376 0 366 0 c 2,56,-1
 154 0 l 2,57,58
 147 0 147 0 131.5 -0.5 c 128,-1,59
 116 -1 116 -1 99 -2 c 128,-1,60
 82 -3 82 -3 66 -4 c 128,-1,61
 50 -5 50 -5 42 -6 c 1,62,-1
 40 -2 l 1,63,-1
 43 36 l 1,64,-1
 48 40 l 1,65,66
 86 40 86 40 100 51 c 0,67,68
 108 58 108 58 115.5 73 c 128,-1,69
 123 88 123 88 125 108 c 0,70,71
 126 118 126 118 126.5 135.5 c 128,-1,72
 127 153 127 153 127.5 172 c 128,-1,73
 128 191 128 191 128 207.5 c 128,-1,74
 128 224 128 224 128 231 c 2,75,-1
 128 394 l 2,76,77
 128 449 128 449 127.5 490.5 c 128,-1,78
 127 532 127 532 125 547 c 0,0,1
EndSplineSet
EndChar
StartChar: M
Encoding: 77 77 14
Width: 945
Flags: W
LayerCount: 2
Back
Fore
SplineSet
921 -6 m 1,0,1
 914 -6 914 -6 898 -5 c 128,-1,2
 882 -4 882 -4 865 -3 c 128,-1,3
 848 -2 848 -2 832 -1 c 128,-1,4
 816 0 816 0 809 0 c 2,5,-1
 750 0 l 2,6,7
 743 0 743 0 727 -1 c 128,-1,8
 711 -2 711 -2 694 -3 c 128,-1,9
 677 -4 677 -4 661 -5 c 128,-1,10
 645 -6 645 -6 638 -6 c 1,11,-1
 635 -2 l 1,12,-1
 638 36 l 1,13,-1
 642 40 l 1,14,-1
 653 40 l 2,15,16
 682 40 682 40 698.5 49.5 c 128,-1,17
 715 59 715 59 715 88 c 2,18,-1
 693 415 l 2,19,20
 691 438 691 438 690.5 455 c 128,-1,21
 690 472 690 472 686 492 c 1,22,23
 680 474 680 474 667 441 c 128,-1,24
 654 408 654 408 637.5 365.5 c 128,-1,25
 621 323 621 323 602 275 c 128,-1,26
 583 227 583 227 564 179.5 c 128,-1,27
 545 132 545 132 528.5 88.5 c 128,-1,28
 512 45 512 45 500 13 c 1,29,-1
 418 13 l 1,30,-1
 243 489 l 1,31,32
 243 465 243 465 241 449.5 c 128,-1,33
 239 434 239 434 237 410 c 2,34,-1
 225 246 l 2,35,36
 223 213 223 213 221.5 191.5 c 128,-1,37
 220 170 220 170 219.5 155 c 128,-1,38
 219 140 219 140 219 129 c 128,-1,39
 219 118 219 118 219 107 c 0,40,41
 219 78 219 78 225.5 67 c 128,-1,42
 232 56 232 56 240 50 c 0,43,44
 248 42 248 42 258.5 41 c 128,-1,45
 269 40 269 40 285 40 c 1,46,-1
 289 36 l 1,47,-1
 292 -2 l 1,48,-1
 290 -6 l 1,49,50
 283 -6 283 -6 269.5 -5 c 128,-1,51
 256 -4 256 -4 242 -3 c 128,-1,52
 228 -2 228 -2 214.5 -1 c 128,-1,53
 201 0 201 0 194 0 c 2,54,-1
 135 0 l 2,55,56
 128 0 128 0 112.5 -1 c 128,-1,57
 97 -2 97 -2 79.5 -3 c 128,-1,58
 62 -4 62 -4 46.5 -5 c 128,-1,59
 31 -6 31 -6 24 -6 c 1,60,-1
 22 -2 l 1,61,-1
 25 36 l 1,62,-1
 31 40 l 1,63,64
 46 40 46 40 60 41.5 c 128,-1,65
 74 43 74 43 84 50 c 0,66,67
 92 57 92 57 100 68 c 128,-1,68
 108 79 108 79 113 107 c 0,69,70
 115 119 115 119 118 140 c 128,-1,71
 121 161 121 161 125 211 c 2,72,-1
 139 394 l 2,73,74
 142 429 142 429 143.5 453 c 128,-1,75
 145 477 145 477 145.5 494 c 128,-1,76
 146 511 146 511 146.5 523 c 128,-1,77
 147 535 147 535 147 547 c 0,78,79
 147 576 147 576 138.5 587 c 128,-1,80
 130 598 130 598 122 604 c 0,81,82
 113 612 113 612 99 613 c 128,-1,83
 85 614 85 614 69 614 c 1,84,-1
 64 618 l 1,85,-1
 61 656 l 1,86,-1
 63 660 l 1,87,88
 70 660 70 660 86 659 c 128,-1,89
 102 658 102 658 119 657 c 128,-1,90
 136 656 136 656 152 655 c 128,-1,91
 168 654 168 654 175 654 c 2,92,-1
 252 654 l 2,93,94
 259 654 259 654 270.5 655 c 128,-1,95
 282 656 282 656 292 658 c 1,96,-1
 297 655 l 1,97,98
 298 641 298 641 304.5 616 c 128,-1,99
 311 591 311 591 320.5 561 c 128,-1,100
 330 531 330 531 342 497.5 c 128,-1,101
 354 464 354 464 366 432 c 2,102,-1
 429 270 l 2,103,104
 440 243 440 243 451 213 c 128,-1,105
 462 183 462 183 471 156 c 1,106,107
 474 160 474 160 487 191 c 128,-1,108
 500 222 500 222 518 268 c 128,-1,109
 536 314 536 314 556.5 369.5 c 128,-1,110
 577 425 577 425 595.5 479 c 128,-1,111
 614 533 614 533 627.5 579.5 c 128,-1,112
 641 626 641 626 645 654 c 1,113,-1
 650 658 l 1,114,115
 658 656 658 656 667 655 c 128,-1,116
 676 654 676 654 684 654 c 2,117,-1
 770 654 l 2,118,119
 777 654 777 654 793 655 c 128,-1,120
 809 656 809 656 826 657 c 128,-1,121
 843 658 843 658 859 659 c 128,-1,122
 875 660 875 660 882 660 c 1,123,-1
 884 656 l 1,124,-1
 881 618 l 1,125,-1
 876 614 l 1,126,127
 861 614 861 614 846.5 612.5 c 128,-1,128
 832 611 832 611 823 604 c 0,129,130
 815 598 815 598 806.5 586 c 128,-1,131
 798 574 798 574 798 547 c 0,132,133
 798 533 798 533 798 521 c 128,-1,134
 798 509 798 509 799 493 c 128,-1,135
 800 477 800 477 801.5 454 c 128,-1,136
 803 431 803 431 806 395 c 2,137,-1
 818 251 l 2,138,139
 821 215 821 215 823 192.5 c 128,-1,140
 825 170 825 170 826.5 155 c 128,-1,141
 828 140 828 140 829 129.5 c 128,-1,142
 830 119 830 119 832 107 c 0,143,144
 836 78 836 78 844 67 c 128,-1,145
 852 56 852 56 860 50 c 0,146,147
 869 42 869 42 883.5 41 c 128,-1,148
 898 40 898 40 914 40 c 1,149,-1
 919 36 l 1,150,-1
 922 -2 l 1,151,-1
 921 -6 l 1,0,1
EndSplineSet
Substitution2: "'salt' Stylistic Alternatives in Latin lookup 2 subtable" M.salt
Substitution2: "'aalt' Access All Alternates in Latin lookup 0 subtable" M.salt
EndChar
StartChar: N
Encoding: 78 78 16
Width: 781
Flags: W
LayerCount: 2
Back
Fore
SplineSet
753 656 m 1,0,-1
 751 618 l 1,1,-1
 746 614 l 1,2,3
 731 614 731 614 716.5 612.5 c 128,-1,4
 702 611 702 611 693 604 c 0,5,6
 685 597 685 597 676.5 586 c 128,-1,7
 668 575 668 575 665 547 c 0,8,9
 664 533 664 533 663.5 521 c 128,-1,10
 663 509 663 509 662.5 493 c 128,-1,11
 662 477 662 477 662 454 c 128,-1,12
 662 431 662 431 662 395 c 2,13,-1
 662 239 l 2,14,15
 662 183 662 183 662.5 147 c 128,-1,16
 663 111 663 111 663.5 85.5 c 128,-1,17
 664 60 664 60 665.5 40 c 128,-1,18
 667 20 667 20 669 -4 c 1,19,-1
 661 -9 l 1,20,-1
 538 -4 l 1,21,-1
 528 8 l 1,22,-1
 219 474 l 1,23,24
 221 456 221 456 221.5 416.5 c 128,-1,25
 222 377 222 377 222 325 c 2,26,-1
 222 251 l 2,27,28
 222 239 222 239 222 219.5 c 128,-1,29
 222 200 222 200 222.5 179 c 128,-1,30
 223 158 223 158 223.5 138.5 c 128,-1,31
 224 119 224 119 225 107 c 0,32,33
 227 82 227 82 236 69 c 128,-1,34
 245 56 245 56 255 50 c 0,35,36
 263 42 263 42 276 41 c 128,-1,37
 289 40 289 40 309 40 c 1,38,-1
 314 36 l 1,39,-1
 317 -2 l 1,40,-1
 315 -6 l 1,41,42
 307 -6 307 -6 292.5 -5 c 128,-1,43
 278 -4 278 -4 262.5 -3 c 128,-1,44
 247 -2 247 -2 232.5 -1 c 128,-1,45
 218 0 218 0 211 0 c 2,46,-1
 152 0 l 2,47,48
 145 0 145 0 129 -1 c 128,-1,49
 113 -2 113 -2 96 -3 c 128,-1,50
 79 -4 79 -4 63 -5 c 128,-1,51
 47 -6 47 -6 40 -6 c 1,52,-1
 38 -2 l 1,53,-1
 41 36 l 1,54,-1
 46 40 l 1,55,56
 64 40 64 40 76.5 41.5 c 128,-1,57
 89 43 89 43 99 50 c 0,58,59
 106 55 106 55 116 66.5 c 128,-1,60
 126 78 126 78 129 107 c 0,61,62
 130 114 130 114 130.5 123.5 c 128,-1,63
 131 133 131 133 131 147 c 128,-1,64
 131 161 131 161 131 181 c 128,-1,65
 131 201 131 201 131 231 c 2,66,-1
 131 394 l 2,67,68
 131 429 131 429 131 453 c 128,-1,69
 131 477 131 477 131 494 c 128,-1,70
 131 511 131 511 130.5 523 c 128,-1,71
 130 535 130 535 129 547 c 0,72,73
 127 568 127 568 117.5 583 c 128,-1,74
 108 598 108 598 99 604 c 0,75,76
 90 612 90 612 76.5 613 c 128,-1,77
 63 614 63 614 46 614 c 1,78,-1
 41 618 l 1,79,-1
 38 656 l 1,80,-1
 40 660 l 1,81,82
 47 660 47 660 60.5 659 c 128,-1,83
 74 658 74 658 88 657 c 128,-1,84
 102 656 102 656 115.5 655 c 128,-1,85
 129 654 129 654 136 654 c 2,86,-1
 221 654 l 2,87,88
 229 654 229 654 241 655 c 128,-1,89
 253 656 253 656 262 658 c 1,90,-1
 267 655 l 1,91,92
 270 641 270 641 282 616.5 c 128,-1,93
 294 592 294 592 311.5 561.5 c 128,-1,94
 329 531 329 531 349 497.5 c 128,-1,95
 369 464 369 464 389 431 c 0,96,97
 425 371 425 371 453 326.5 c 128,-1,98
 481 282 481 282 503 249 c 128,-1,99
 525 216 525 216 541 193.5 c 128,-1,100
 557 171 557 171 568 156 c 1,101,102
 568 182 568 182 568.5 207 c 128,-1,103
 569 232 569 232 569 258 c 2,104,-1
 569 394 l 2,105,106
 569 429 569 429 569 453 c 128,-1,107
 569 477 569 477 568.5 494 c 128,-1,108
 568 511 568 511 567.5 523 c 128,-1,109
 567 535 567 535 566 547 c 0,110,111
 564 564 564 564 557.5 578.5 c 128,-1,112
 551 593 551 593 537 604 c 0,113,114
 528 612 528 612 513.5 613 c 128,-1,115
 499 614 499 614 483 614 c 1,116,-1
 479 618 l 1,117,-1
 476 656 l 1,118,-1
 478 660 l 1,119,120
 485 660 485 660 498 659 c 128,-1,121
 511 658 511 658 524.5 657 c 128,-1,122
 538 656 538 656 551 655 c 128,-1,123
 564 654 564 654 571 654 c 2,124,-1
 658 654 l 2,125,126
 665 654 665 654 678 654.5 c 128,-1,127
 691 655 691 655 705 656 c 128,-1,128
 719 657 719 657 732 658 c 128,-1,129
 745 659 745 659 752 660 c 1,130,-1
 753 656 l 1,0,-1
EndSplineSet
EndChar
StartChar: P
Encoding: 80 80 19
Width: 581
Flags: W
LayerCount: 2
Back
Fore
SplineSet
325 -6 m 1,0,1
 318 -6 318 -6 302 -5 c 128,-1,2
 286 -4 286 -4 269 -3 c 128,-1,3
 252 -2 252 -2 236 -1 c 128,-1,4
 220 0 220 0 213 0 c 2,5,-1
 154 0 l 2,6,7
 147 0 147 0 131 -1 c 128,-1,8
 115 -2 115 -2 98 -3 c 128,-1,9
 81 -4 81 -4 65 -5 c 128,-1,10
 49 -6 49 -6 42 -6 c 1,11,-1
 40 -2 l 1,12,-1
 43 36 l 1,13,-1
 48 40 l 1,14,15
 60 40 60 40 76 41.5 c 128,-1,16
 92 43 92 43 101 49 c 0,17,18
 109 55 109 55 116 68 c 128,-1,19
 123 81 123 81 126 107 c 0,20,21
 126 114 126 114 126.5 123.5 c 128,-1,22
 127 133 127 133 127.5 147 c 128,-1,23
 128 161 128 161 128 181 c 128,-1,24
 128 201 128 201 128 231 c 2,25,-1
 128 451 l 2,26,27
 128 471 128 471 128 496.5 c 128,-1,28
 128 522 128 522 126 547 c 0,29,30
 124 573 124 573 116.5 585.5 c 128,-1,31
 109 598 109 598 101 604 c 0,32,33
 92 612 92 612 82.5 613 c 128,-1,34
 73 614 73 614 48 614 c 1,35,-1
 43 618 l 1,36,-1
 40 656 l 1,37,-1
 42 660 l 1,38,39
 49 660 49 660 60.5 659 c 128,-1,40
 72 658 72 658 84.5 657 c 128,-1,41
 97 656 97 656 110 655 c 128,-1,42
 123 654 123 654 134 654 c 2,43,-1
 210 654 l 2,44,45
 221 654 221 654 235 654.5 c 128,-1,46
 249 655 249 655 263.5 655 c 128,-1,47
 278 655 278 655 290 655.5 c 128,-1,48
 302 656 302 656 310 656 c 0,49,50
 377 656 377 656 423.5 642.5 c 128,-1,51
 470 629 470 629 499 605 c 128,-1,52
 528 581 528 581 541.5 547.5 c 128,-1,53
 555 514 555 514 555 474 c 0,54,55
 555 407 555 407 531 364 c 128,-1,56
 507 321 507 321 469.5 296 c 128,-1,57
 432 271 432 271 385.5 261.5 c 128,-1,58
 339 252 339 252 295 252 c 2,59,-1
 239 252 l 1,60,61
 239 232 239 232 239 210 c 128,-1,62
 239 188 239 188 239.5 167.5 c 128,-1,63
 240 147 240 147 240.5 131 c 128,-1,64
 241 115 241 115 242 107 c 0,65,66
 244 78 244 78 252 66.5 c 128,-1,67
 260 55 260 55 266 50 c 0,68,69
 275 42 275 42 284.5 41 c 128,-1,70
 294 40 294 40 320 40 c 1,71,-1
 324 36 l 1,72,-1
 327 -2 l 1,73,-1
 325 -6 l 1,0,1
290 326 m 2,74,75
 374 326 374 326 410 364 c 128,-1,76
 446 402 446 402 446 469 c 0,77,78
 446 523 446 523 404.5 549.5 c 128,-1,79
 363 576 363 576 291 576 c 2,80,-1
 244 576 l 1,81,82
 241 532 241 532 240 510.5 c 128,-1,83
 239 489 239 489 239 472 c 2,84,-1
 239 363 l 2,85,86
 239 350 239 350 240 342.5 c 128,-1,87
 241 335 241 335 245 331.5 c 128,-1,88
 249 328 249 328 256.5 327 c 128,-1,89
 264 326 264 326 277 326 c 2,90,-1
 290 326 l 2,74,75
EndSplineSet
EndChar
StartChar: Q
Encoding: 81 81 20
Width: 737
Flags: W
LayerCount: 2
Back
Fore
SplineSet
369 665 m 0,0,1
 446 665 446 665 506 638 c 128,-1,2
 566 611 566 611 607 565 c 128,-1,3
 648 519 648 519 669.5 458 c 128,-1,4
 691 397 691 397 691 330 c 0,5,6
 691 266 691 266 672 206.5 c 128,-1,7
 653 147 653 147 615.5 100.5 c 128,-1,8
 578 54 578 54 523 24 c 128,-1,9
 468 -6 468 -6 396 -10 c 1,10,11
 447 -11 447 -11 486 -22.5 c 128,-1,12
 525 -34 525 -34 559.5 -47.5 c 128,-1,13
 594 -61 594 -61 628 -72 c 128,-1,14
 662 -83 662 -83 701 -83 c 0,15,16
 715 -83 715 -83 734.5 -79.5 c 128,-1,17
 754 -76 754 -76 776 -63 c 1,18,-1
 779 -65 l 1,19,-1
 793 -93 l 1,20,-1
 792 -97 l 1,21,22
 769 -126 769 -126 736 -146 c 128,-1,23
 703 -166 703 -166 662 -166 c 0,24,25
 628 -166 628 -166 592.5 -150.5 c 128,-1,26
 557 -135 557 -135 518 -116.5 c 128,-1,27
 479 -98 479 -98 437 -82.5 c 128,-1,28
 395 -67 395 -67 349 -67 c 0,29,30
 310 -67 310 -67 273.5 -80 c 128,-1,31
 237 -93 237 -93 220 -108 c 1,32,-1
 217 -107 l 1,33,-1
 206 -68 l 1,34,-1
 207 -65 l 1,35,36
 229 -50 229 -50 266 -32 c 128,-1,37
 303 -14 303 -14 346 -11 c 1,38,39
 272 -10 272 -10 216 17 c 128,-1,40
 160 44 160 44 122.5 89.5 c 128,-1,41
 85 135 85 135 66 195 c 128,-1,42
 47 255 47 255 47 322 c 0,43,44
 47 393 47 393 69 455.5 c 128,-1,45
 91 518 91 518 132 564.5 c 128,-1,46
 173 611 173 611 233 638 c 128,-1,47
 293 665 293 665 369 665 c 0,0,1
368 72 m 0,48,49
 417 72 417 72 455.5 92.5 c 128,-1,50
 494 113 494 113 520 147.5 c 128,-1,51
 546 182 546 182 560 228.5 c 128,-1,52
 574 275 574 275 574 328 c 0,53,54
 574 382 574 382 559.5 428.5 c 128,-1,55
 545 475 545 475 517.5 509 c 128,-1,56
 490 543 490 543 451 562.5 c 128,-1,57
 412 582 412 582 363 582 c 0,58,59
 315 582 315 582 278 563 c 128,-1,60
 241 544 241 544 216 510 c 128,-1,61
 191 476 191 476 178 429.5 c 128,-1,62
 165 383 165 383 165 329 c 0,63,64
 165 270 165 270 180 222.5 c 128,-1,65
 195 175 195 175 222 141.5 c 128,-1,66
 249 108 249 108 286 90 c 128,-1,67
 323 72 323 72 368 72 c 0,48,49
EndSplineSet
Substitution2: "'salt' Stylistic Alternatives in Latin lookup 2 subtable" Q.salt
Substitution2: "'aalt' Access All Alternates in Latin lookup 0 subtable" Q.salt
EndChar
StartChar: R
Encoding: 82 82 22
Width: 664
Flags: W
LayerCount: 2
Back
Fore
SplineSet
325 -6 m 1,0,1
 317 -5 317 -5 302.5 -4 c 128,-1,2
 288 -3 288 -3 271.5 -2 c 128,-1,3
 255 -1 255 -1 239.5 -0.5 c 128,-1,4
 224 0 224 0 213 0 c 2,5,-1
 154 0 l 2,6,7
 142 0 142 0 126 -0.5 c 128,-1,8
 110 -1 110 -1 94 -2 c 128,-1,9
 78 -3 78 -3 63.5 -4 c 128,-1,10
 49 -5 49 -5 42 -6 c 1,11,-1
 40 -2 l 1,12,-1
 43 36 l 1,13,-1
 48 40 l 1,14,15
 86 40 86 40 100 49 c 0,16,17
 121 63 121 63 126 107 c 0,18,19
 127 124 127 124 127.5 159.5 c 128,-1,20
 128 195 128 195 128 231 c 2,21,-1
 128 451 l 2,22,23
 128 486 128 486 127 506.5 c 128,-1,24
 126 527 126 527 124 547 c 0,25,26
 120 574 120 574 115.5 586 c 128,-1,27
 111 598 111 598 102 605 c 0,28,29
 94 610 94 610 82.5 612 c 128,-1,30
 71 614 71 614 48 614 c 1,31,-1
 43 618 l 1,32,-1
 40 656 l 1,33,-1
 42 660 l 1,34,35
 68 657 68 657 93.5 655.5 c 128,-1,36
 119 654 119 654 134 654 c 2,37,-1
 210 654 l 2,38,39
 233 654 233 654 262.5 655 c 128,-1,40
 292 656 292 656 314 656 c 0,41,42
 433 656 433 656 494 611.5 c 128,-1,43
 555 567 555 567 555 479 c 0,44,45
 555 416 555 416 518.5 364.5 c 128,-1,46
 482 313 482 313 410 275 c 1,47,48
 444 224 444 224 467.5 192 c 128,-1,49
 491 160 491 160 508 141 c 0,50,51
 531 114 531 114 551 96 c 128,-1,52
 571 78 571 78 590.5 66 c 128,-1,53
 610 54 610 54 631 48 c 128,-1,54
 652 42 652 42 678 40 c 1,55,-1
 684 36 l 1,56,-1
 686 -2 l 1,57,-1
 684 -6 l 1,58,59
 646 -8 646 -8 618 -9.5 c 128,-1,60
 590 -11 590 -11 577 -11 c 0,61,62
 524 -11 524 -11 482.5 18.5 c 128,-1,63
 441 48 441 48 394 119 c 0,64,65
 383 135 383 135 370.5 155 c 128,-1,66
 358 175 358 175 345.5 194.5 c 128,-1,67
 333 214 333 214 322 232 c 128,-1,68
 311 250 311 250 304 263 c 1,69,-1
 239 263 l 1,70,71
 239 229 239 229 239 204.5 c 128,-1,72
 239 180 239 180 239.5 162 c 128,-1,73
 240 144 240 144 241 131 c 128,-1,74
 242 118 242 118 243 107 c 0,75,76
 247 61 247 61 265 49 c 0,77,78
 272 44 272 44 283 42 c 128,-1,79
 294 40 294 40 320 40 c 1,80,-1
 324 36 l 1,81,-1
 327 -2 l 1,82,-1
 325 -6 l 1,0,1
290 337 m 2,83,84
 363 337 363 337 404.5 372 c 128,-1,85
 446 407 446 407 446 469 c 0,86,87
 446 525 446 525 409 550.5 c 128,-1,88
 372 576 372 576 291 576 c 2,89,-1
 244 576 l 1,90,91
 241 536 241 536 240 514 c 128,-1,92
 239 492 239 492 239 472 c 2,93,-1
 239 374 l 2,94,95
 239 353 239 353 244 345 c 128,-1,96
 249 337 249 337 263 337 c 2,97,-1
 290 337 l 2,83,84
EndSplineSet
EndChar
StartChar: T
Encoding: 84 84 24
Width: 587
Flags: W
LayerCount: 2
Back
Fore
SplineSet
450 -6 m 1,0,1
 443 -6 443 -6 428 -5 c 128,-1,2
 413 -4 413 -4 396 -3 c 128,-1,3
 379 -2 379 -2 364 -1 c 128,-1,4
 349 0 349 0 342 0 c 2,5,-1
 245 0 l 2,6,7
 238 0 238 0 223 -1 c 128,-1,8
 208 -2 208 -2 191.5 -3 c 128,-1,9
 175 -4 175 -4 160 -5 c 128,-1,10
 145 -6 145 -6 138 -6 c 1,11,-1
 136 -2 l 1,12,-1
 139 36 l 1,13,-1
 144 40 l 1,14,15
 159 40 159 40 179.5 41 c 128,-1,16
 200 42 200 42 209 50 c 0,17,18
 217 57 217 57 225 68 c 128,-1,19
 233 79 233 79 236 107 c 0,20,21
 237 114 237 114 237.5 123.5 c 128,-1,22
 238 133 238 133 238.5 147 c 128,-1,23
 239 161 239 161 239 181 c 128,-1,24
 239 201 239 201 239 231 c 2,25,-1
 239 414 l 2,26,27
 239 469 239 469 238 512 c 128,-1,28
 237 555 237 555 236 576 c 1,29,-1
 225 576 l 2,30,31
 187 576 187 576 162 575.5 c 128,-1,32
 137 575 137 575 122 573.5 c 128,-1,33
 107 572 107 572 99.5 570 c 128,-1,34
 92 568 92 568 89 565 c 0,35,36
 78 560 78 560 71 549 c 128,-1,37
 64 538 64 538 62 523 c 1,38,-1
 58 519 l 1,39,-1
 15 519 l 1,40,-1
 22 653 l 1,41,-1
 26 662 l 1,42,-1
 32 665 l 1,43,44
 40 662 40 662 67 659.5 c 128,-1,45
 94 657 94 657 126 656 c 128,-1,46
 158 655 158 655 187.5 654.5 c 128,-1,47
 217 654 217 654 230 654 c 2,48,-1
 356 654 l 2,49,50
 369 654 369 654 398.5 654.5 c 128,-1,51
 428 655 428 655 460 656 c 128,-1,52
 492 657 492 657 519 659.5 c 128,-1,53
 546 662 546 662 554 665 c 1,54,-1
 560 662 l 1,55,-1
 564 653 l 1,56,-1
 572 519 l 1,57,-1
 528 519 l 1,58,-1
 524 523 l 1,59,60
 522 538 522 538 515 549 c 128,-1,61
 508 560 508 560 497 565 c 0,62,63
 494 569 494 569 486.5 571.5 c 128,-1,64
 479 574 479 574 464 575 c 128,-1,65
 449 576 449 576 424.5 576 c 128,-1,66
 400 576 400 576 362 576 c 2,67,-1
 351 576 l 1,68,69
 350 552 350 552 349.5 512 c 128,-1,70
 349 472 349 472 349 415 c 2,71,-1
 349 251 l 2,72,73
 349 215 349 215 349 192.5 c 128,-1,74
 349 170 349 170 349.5 155 c 128,-1,75
 350 140 350 140 350.5 129.5 c 128,-1,76
 351 119 351 119 352 107 c 0,77,78
 354 78 354 78 363 67 c 128,-1,79
 372 56 372 56 380 50 c 0,80,81
 384 46 384 46 391.5 44 c 128,-1,82
 399 42 399 42 408 41 c 128,-1,83
 417 40 417 40 426.5 40 c 128,-1,84
 436 40 436 40 444 40 c 1,85,-1
 449 36 l 1,86,-1
 452 -2 l 1,87,-1
 450 -6 l 1,0,1
EndSplineSet
EndChar
StartChar: V
Encoding: 86 86 27
Width: 724
Flags: W
LayerCount: 2
Back
Fore
SplineSet
296 -11 m 1,0,-1
 140 423 l 2,1,2
 129 453 129 453 121.5 473 c 128,-1,3
 114 493 114 493 108.5 507 c 128,-1,4
 103 521 103 521 99 530 c 128,-1,5
 95 539 95 539 92 547 c 0,6,7
 81 572 81 572 69.5 585.5 c 128,-1,8
 58 599 58 599 46 605.5 c 128,-1,9
 34 612 34 612 21.5 613 c 128,-1,10
 9 614 9 614 -4 614 c 1,11,-1
 -9 618 l 1,12,-1
 -11 656 l 1,13,-1
 -10 660 l 1,14,15
 -3 659 -3 659 10.5 658 c 128,-1,16
 24 657 24 657 39 656 c 128,-1,17
 54 655 54 655 68 654.5 c 128,-1,18
 82 654 82 654 89 654 c 2,19,-1
 163 654 l 2,20,21
 170 654 170 654 186 655 c 128,-1,22
 202 656 202 656 219.5 657 c 128,-1,23
 237 658 237 658 253 659 c 128,-1,24
 269 660 269 660 276 660 c 1,25,-1
 278 656 l 1,26,-1
 275 618 l 1,27,-1
 270 614 l 1,28,29
 241 614 241 614 225 607.5 c 128,-1,30
 209 601 209 601 209 572 c 0,31,32
 209 549 209 549 224.5 507.5 c 128,-1,33
 240 466 240 466 263 403 c 2,34,-1
 324 239 l 2,35,36
 341 199 341 199 352 162.5 c 128,-1,37
 363 126 363 126 374 102 c 1,38,39
 382 125 382 125 396 160.5 c 128,-1,40
 410 196 410 196 426 239 c 2,41,-1
 487 403 l 2,42,43
 510 466 510 466 525.5 507.5 c 128,-1,44
 541 549 541 549 541 572 c 0,45,46
 541 601 541 601 525 607.5 c 128,-1,47
 509 614 509 614 480 614 c 1,48,-1
 475 618 l 1,49,-1
 473 656 l 1,50,-1
 475 660 l 1,51,52
 482 659 482 659 497 658 c 128,-1,53
 512 657 512 657 528 656 c 128,-1,54
 544 655 544 655 559 654.5 c 128,-1,55
 574 654 574 654 581 654 c 2,56,-1
 640 654 l 2,57,58
 647 654 647 654 660.5 655 c 128,-1,59
 674 656 674 656 689 657 c 128,-1,60
 704 658 704 658 718 659 c 128,-1,61
 732 660 732 660 739 660 c 1,62,-1
 741 656 l 1,63,-1
 738 618 l 1,64,-1
 733 614 l 1,65,66
 720 614 720 614 708 613 c 128,-1,67
 696 612 696 612 684.5 605.5 c 128,-1,68
 673 599 673 599 661.5 585.5 c 128,-1,69
 650 572 650 572 638 547 c 0,70,71
 636 542 636 542 633.5 537 c 128,-1,72
 631 532 631 532 626.5 521.5 c 128,-1,73
 622 511 622 511 614 492 c 128,-1,74
 606 473 606 473 593 440.5 c 128,-1,75
 580 408 580 408 560.5 359 c 128,-1,76
 541 310 541 310 514 240 c 0,77,78
 500 205 500 205 485 167.5 c 128,-1,79
 470 130 470 130 457 96.5 c 128,-1,80
 444 63 444 63 434 37 c 128,-1,81
 424 11 424 11 420 0 c 1,82,-1
 308 -11 l 1,83,-1
 296 -11 l 1,0,-1
EndSplineSet
EndChar
StartChar: W
Encoding: 87 87 28
Width: 1131
Flags: W
LayerCount: 2
Back
Fore
SplineSet
718 -11 m 1,0,-1
 571 405 l 1,1,-1
 511 240 l 2,2,3
 498 204 498 204 483 166.5 c 128,-1,4
 468 129 468 129 454.5 95.5 c 128,-1,5
 441 62 441 62 431 36.5 c 128,-1,6
 421 11 421 11 417 0 c 1,7,-1
 305 -11 l 1,8,-1
 293 -11 l 1,9,-1
 137 423 l 2,10,11
 126 453 126 453 118.5 473 c 128,-1,12
 111 493 111 493 105.5 507 c 128,-1,13
 100 521 100 521 96 530 c 128,-1,14
 92 539 92 539 89 547 c 0,15,16
 78 572 78 572 66.5 585.5 c 128,-1,17
 55 599 55 599 43 605.5 c 128,-1,18
 31 612 31 612 18.5 613 c 128,-1,19
 6 614 6 614 -7 614 c 1,20,-1
 -12 618 l 1,21,-1
 -14 656 l 1,22,-1
 -13 660 l 1,23,24
 -6 659 -6 659 7.5 658 c 128,-1,25
 21 657 21 657 36 656 c 128,-1,26
 51 655 51 655 65 654.5 c 128,-1,27
 79 654 79 654 86 654 c 2,28,-1
 160 654 l 2,29,30
 167 654 167 654 183 655 c 128,-1,31
 199 656 199 656 216.5 657 c 128,-1,32
 234 658 234 658 250 659 c 128,-1,33
 266 660 266 660 273 660 c 1,34,-1
 275 656 l 1,35,-1
 272 618 l 1,36,-1
 267 614 l 1,37,38
 238 614 238 614 222 607.5 c 128,-1,39
 206 601 206 601 206 572 c 0,40,41
 206 549 206 549 221.5 507.5 c 128,-1,42
 237 466 237 466 260 403 c 2,43,-1
 321 239 l 2,44,45
 338 199 338 199 349 162.5 c 128,-1,46
 360 126 360 126 371 102 c 1,47,48
 379 125 379 125 393 160.5 c 128,-1,49
 407 196 407 196 423 239 c 2,50,-1
 484 403 l 2,51,52
 517 490 517 490 517 540 c 0,53,54
 517 580 517 580 499 597 c 128,-1,55
 481 614 481 614 428 614 c 1,56,-1
 423 618 l 1,57,-1
 421 656 l 1,58,-1
 422 660 l 1,59,60
 429 659 429 659 444.5 658 c 128,-1,61
 460 657 460 657 476.5 656 c 128,-1,62
 493 655 493 655 508.5 654.5 c 128,-1,63
 524 654 524 654 531 654 c 2,64,-1
 605 654 l 2,65,66
 612 654 612 654 626.5 655 c 128,-1,67
 641 656 641 656 656.5 657 c 128,-1,68
 672 658 672 658 686.5 659 c 128,-1,69
 701 660 701 660 708 660 c 1,70,-1
 710 656 l 1,71,-1
 707 618 l 1,72,-1
 702 614 l 1,73,74
 673 614 673 614 657 607.5 c 128,-1,75
 641 601 641 601 641 572 c 0,76,77
 641 549 641 549 652 507.5 c 128,-1,78
 663 466 663 466 685 403 c 2,79,-1
 742 239 l 2,80,81
 756 198 756 198 768 163 c 128,-1,82
 780 128 780 128 792 104 c 1,83,84
 799 127 799 127 811 162 c 128,-1,85
 823 197 823 197 838 239 c 2,86,-1
 895 403 l 2,87,88
 917 465 917 465 930 507 c 128,-1,89
 943 549 943 549 943 572 c 0,90,91
 943 601 943 601 927 607.5 c 128,-1,92
 911 614 911 614 882 614 c 1,93,-1
 877 618 l 1,94,-1
 875 656 l 1,95,-1
 877 660 l 1,96,97
 884 659 884 659 899 658 c 128,-1,98
 914 657 914 657 930 656 c 128,-1,99
 946 655 946 655 961 654.5 c 128,-1,100
 976 654 976 654 983 654 c 2,101,-1
 1042 654 l 2,102,103
 1049 654 1049 654 1062.5 655 c 128,-1,104
 1076 656 1076 656 1091 657 c 128,-1,105
 1106 658 1106 658 1120 659 c 128,-1,106
 1134 660 1134 660 1141 660 c 1,107,-1
 1143 656 l 1,108,-1
 1140 618 l 1,109,-1
 1135 614 l 1,110,111
 1122 614 1122 614 1110 613 c 128,-1,112
 1098 612 1098 612 1086.5 605.5 c 128,-1,113
 1075 599 1075 599 1063.5 585.5 c 128,-1,114
 1052 572 1052 572 1040 547 c 0,115,116
 1038 542 1038 542 1036 537 c 128,-1,117
 1034 532 1034 532 1029.5 521.5 c 128,-1,118
 1025 511 1025 511 1018 492 c 128,-1,119
 1011 473 1011 473 999 440.5 c 128,-1,120
 987 408 987 408 969 359 c 128,-1,121
 951 310 951 310 926 240 c 0,122,123
 914 205 914 205 900.5 167.5 c 128,-1,124
 887 130 887 130 875 96.5 c 128,-1,125
 863 63 863 63 854 37 c 128,-1,126
 845 11 845 11 842 0 c 1,127,-1
 730 -11 l 1,128,-1
 718 -11 l 1,0,-1
EndSplineSet
Substitution2: "'salt' Stylistic Alternatives in Latin lookup 2 subtable" W.calt
Substitution2: "'aalt' Access All Alternates in Latin lookup 0 subtable" W.calt
EndChar
StartChar: X
Encoding: 88 88 30
Width: 710
Flags: W
LayerCount: 2
Back
Fore
SplineSet
556 528 m 0,0,1
 526 488 526 488 504.5 460.5 c 128,-1,2
 483 433 483 433 467 412.5 c 128,-1,3
 451 392 451 392 438 376 c 128,-1,4
 425 360 425 360 411 342 c 1,5,-1
 414 339 l 1,6,7
 449 291 449 291 481 249 c 128,-1,8
 513 207 513 207 538 174.5 c 128,-1,9
 563 142 563 142 579.5 122 c 128,-1,10
 596 102 596 102 601 97 c 0,11,12
 610 87 610 87 617 78.5 c 128,-1,13
 624 70 624 70 634 62.5 c 128,-1,14
 644 55 644 55 658 49.5 c 128,-1,15
 672 44 672 44 695 40 c 1,16,-1
 704 33 l 1,17,-1
 704 -1 l 1,18,-1
 698 -7 l 1,19,20
 678 -4 678 -4 654.5 -1.5 c 128,-1,21
 631 1 631 1 613 1 c 2,22,-1
 523 1 l 2,23,24
 500 1 500 1 468.5 -1.5 c 128,-1,25
 437 -4 437 -4 410 -7 c 1,26,-1
 405 -1 l 1,27,-1
 405 34 l 1,28,-1
 410 40 l 1,29,30
 433 42 433 42 452 51.5 c 128,-1,31
 471 61 471 61 471 78 c 0,32,33
 471 87 471 87 459.5 107 c 128,-1,34
 448 127 448 127 430.5 153 c 128,-1,35
 413 179 413 179 391.5 207 c 128,-1,36
 370 235 370 235 349 261 c 1,37,38
 329 237 329 237 309.5 212 c 128,-1,39
 290 187 290 187 273 165 c 128,-1,40
 256 143 256 143 243.5 125.5 c 128,-1,41
 231 108 231 108 226 98 c 0,42,43
 222 88 222 88 222 80 c 0,44,45
 222 71 222 71 224.5 65 c 128,-1,46
 227 59 227 59 234.5 54.5 c 128,-1,47
 242 50 242 50 257 46.5 c 128,-1,48
 272 43 272 43 297 40 c 1,49,-1
 303 34 l 1,50,-1
 303 0 l 1,51,-1
 297 -6 l 1,52,53
 268 -1 268 -1 241 -0.5 c 128,-1,54
 214 0 214 0 191 0 c 2,55,-1
 104 0 l 2,56,57
 81 0 81 0 57.5 -1 c 128,-1,58
 34 -2 34 -2 6 -6 c 1,59,-1
 1 0 l 1,60,-1
 1 33 l 1,61,-1
 9 40 l 1,62,63
 31 43 31 43 47 47.5 c 128,-1,64
 63 52 63 52 76 60 c 128,-1,65
 89 68 89 68 102 81 c 128,-1,66
 115 94 115 94 132 114 c 0,67,68
 144 129 144 129 162 151 c 128,-1,69
 180 173 180 173 201.5 201 c 128,-1,70
 223 229 223 229 248 260 c 128,-1,71
 273 291 273 291 298 324 c 1,72,-1
 293 330 l 1,73,74
 261 376 261 376 219 432.5 c 128,-1,75
 177 489 177 489 129 557 c 0,76,77
 121 568 121 568 112.5 578.5 c 128,-1,78
 104 589 104 589 96 595 c 0,79,80
 85 604 85 604 69.5 608 c 128,-1,81
 54 612 54 612 34 614 c 1,82,-1
 26 618 l 1,83,-1
 26 656 l 1,84,-1
 32 660 l 1,85,86
 55 656 55 656 77 655 c 128,-1,87
 99 654 99 654 120 654 c 2,88,-1
 213 654 l 2,89,90
 236 654 236 654 266 655.5 c 128,-1,91
 296 657 296 657 324 660 c 1,92,-1
 329 656 l 1,93,-1
 329 618 l 1,94,-1
 324 614 l 1,95,96
 304 613 304 613 289 610.5 c 128,-1,97
 274 608 274 608 265 602 c 0,98,99
 257 598 257 598 255.5 593.5 c 128,-1,100
 254 589 254 589 254 585 c 0,101,102
 254 580 254 580 258.5 573 c 128,-1,103
 263 566 263 566 263 561 c 0,104,105
 279 534 279 534 292 515 c 128,-1,106
 305 496 305 496 316.5 479 c 128,-1,107
 328 462 328 462 340 445 c 128,-1,108
 352 428 352 428 366 407 c 1,109,110
 402 451 402 451 427 490 c 128,-1,111
 452 529 452 529 460 546 c 0,112,113
 462 551 462 551 466.5 558.5 c 128,-1,114
 471 566 471 566 471 574 c 0,115,116
 471 586 471 586 464.5 593 c 128,-1,117
 458 600 458 600 448.5 603.5 c 128,-1,118
 439 607 439 607 427 609 c 128,-1,119
 415 611 415 611 404 614 c 1,120,-1
 399 618 l 1,121,-1
 399 656 l 1,122,-1
 404 660 l 1,123,124
 434 655 434 655 453 654.5 c 128,-1,125
 472 654 472 654 496 654 c 2,126,-1
 594 654 l 2,127,128
 618 654 618 654 637.5 655 c 128,-1,129
 657 656 657 656 685 660 c 1,130,-1
 689 656 l 1,131,-1
 689 618 l 1,132,-1
 685 614 l 1,133,134
 663 611 663 611 646 604.5 c 128,-1,135
 629 598 629 598 614 588 c 128,-1,136
 599 578 599 578 585.5 563.5 c 128,-1,137
 572 549 572 549 556 528 c 0,0,1
EndSplineSet
EndChar
StartChar: Y
Encoding: 89 89 31
Width: 653
Flags: W
LayerCount: 2
Back
Fore
SplineSet
469 -6 m 1,0,1
 462 -6 462 -6 446 -5 c 128,-1,2
 430 -4 430 -4 413 -3 c 128,-1,3
 396 -2 396 -2 380 -1 c 128,-1,4
 364 0 364 0 357 0 c 2,5,-1
 298 0 l 2,6,7
 291 0 291 0 275 -1 c 128,-1,8
 259 -2 259 -2 241.5 -3 c 128,-1,9
 224 -4 224 -4 208 -5 c 128,-1,10
 192 -6 192 -6 185 -6 c 1,11,-1
 184 -2 l 1,12,-1
 186 36 l 1,13,-1
 191 40 l 1,14,15
 206 40 206 40 220.5 41.5 c 128,-1,16
 235 43 235 43 244 50 c 256,17,18
 253 57 253 57 260 68 c 128,-1,19
 267 79 267 79 269 107 c 0,20,21
 270 114 270 114 270.5 123.5 c 128,-1,22
 271 133 271 133 271.5 147 c 128,-1,23
 272 161 272 161 272 181 c 128,-1,24
 272 201 272 201 272 231 c 2,25,-1
 272 250 l 2,26,27
 272 278 272 278 264 295.5 c 128,-1,28
 256 313 256 313 248 327 c 0,29,30
 215 381 215 381 175.5 439 c 128,-1,31
 136 497 136 497 94 557 c 0,32,33
 87 568 87 568 78 578.5 c 128,-1,34
 69 589 69 589 62 595 c 0,35,36
 51 604 51 604 35.5 608 c 128,-1,37
 20 612 20 612 0 614 c 1,38,-1
 -8 618 l 1,39,-1
 -8 656 l 1,40,-1
 -3 660 l 1,41,42
 22 657 22 657 42 654.5 c 128,-1,43
 62 652 62 652 86 652 c 2,44,-1
 168 652 l 2,45,46
 191 652 191 652 221.5 654.5 c 128,-1,47
 252 657 252 657 280 660 c 1,48,-1
 284 656 l 1,49,-1
 284 618 l 1,50,-1
 280 614 l 1,51,52
 260 613 260 613 245 610.5 c 128,-1,53
 230 608 230 608 221 602 c 0,54,55
 211 595 211 595 211 584 c 0,56,57
 211 578 211 578 213.5 572 c 128,-1,58
 216 566 216 566 219 561 c 2,59,-1
 338 372 l 1,60,-1
 450 545 l 2,61,62
 460 562 460 562 460 580 c 0,63,64
 460 592 460 592 453 598 c 128,-1,65
 446 604 446 604 435.5 607 c 128,-1,66
 425 610 425 610 412.5 611 c 128,-1,67
 400 612 400 612 389 615 c 1,68,-1
 385 619 l 1,69,-1
 385 657 l 1,70,-1
 389 661 l 1,71,72
 418 656 418 656 437 655.5 c 128,-1,73
 456 655 456 655 481 655 c 2,74,-1
 569 655 l 2,75,76
 593 655 593 655 613 656 c 128,-1,77
 633 657 633 657 661 661 c 1,78,-1
 665 657 l 1,79,-1
 665 619 l 1,80,-1
 661 615 l 1,81,82
 638 612 638 612 622 607 c 128,-1,83
 606 602 606 602 593 593 c 128,-1,84
 580 584 580 584 567.5 570 c 128,-1,85
 555 556 555 556 540 535 c 0,86,87
 510 491 510 491 488.5 459.5 c 128,-1,88
 467 428 467 428 451.5 403.5 c 128,-1,89
 436 379 436 379 423 358 c 128,-1,90
 410 337 410 337 396 314 c 0,91,92
 392 308 392 308 387 293.5 c 128,-1,93
 382 279 382 279 382 264 c 2,94,-1
 382 249 l 2,95,96
 382 213 382 213 382 191 c 128,-1,97
 382 169 382 169 382.5 154 c 128,-1,98
 383 139 383 139 383.5 129 c 128,-1,99
 384 119 384 119 385 107 c 0,100,101
 387 79 387 79 394.5 68 c 128,-1,102
 402 57 402 57 410 50 c 256,103,104
 418 43 418 43 432.5 41.5 c 128,-1,105
 447 40 447 40 463 40 c 1,106,-1
 468 36 l 1,107,-1
 471 -2 l 1,108,-1
 469 -6 l 1,0,1
EndSplineSet
EndChar
StartChar: Z
Encoding: 90 90 32
Width: 635
Flags: W
LayerCount: 2
Back
Fore
SplineSet
52 526 m 1,0,-1
 68 654 l 1,1,-1
 76 662 l 1,2,3
 203 656 203 656 288.5 655 c 128,-1,4
 374 654 374 654 400 654 c 2,5,-1
 496 654 l 2,6,7
 502 654 502 654 512.5 654.5 c 128,-1,8
 523 655 523 655 534.5 656 c 128,-1,9
 546 657 546 657 557.5 658.5 c 128,-1,10
 569 660 569 660 578 662 c 1,11,-1
 586 641 l 1,12,-1
 581 616 l 1,13,14
 564 598 564 598 531.5 557 c 128,-1,15
 499 516 499 516 460.5 463.5 c 128,-1,16
 422 411 422 411 381 352 c 128,-1,17
 340 293 340 293 305 239.5 c 128,-1,18
 270 186 270 186 245 143.5 c 128,-1,19
 220 101 220 101 214 81 c 1,20,-1
 219 78 l 1,21,-1
 279 78 l 2,22,23
 362 78 362 78 411.5 79.5 c 128,-1,24
 461 81 461 81 488 87.5 c 128,-1,25
 515 94 515 94 526 108 c 128,-1,26
 537 122 537 122 543 147 c 1,27,-1
 549 153 l 1,28,-1
 596 153 l 1,29,-1
 578 4 l 1,30,-1
 569 -6 l 2,31,32
 564 -6 564 -6 545 -5.5 c 128,-1,33
 526 -5 526 -5 499.5 -4 c 128,-1,34
 473 -3 473 -3 443 -2.5 c 128,-1,35
 413 -2 413 -2 385.5 -1.5 c 128,-1,36
 358 -1 358 -1 336 -0.5 c 128,-1,37
 314 0 314 0 305 0 c 2,38,-1
 145 0 l 2,39,40
 123 0 123 0 95.5 -2 c 128,-1,41
 68 -4 68 -4 42 -6 c 1,42,-1
 32 15 l 1,43,-1
 32 38 l 1,44,45
 51 57 51 57 82 95 c 128,-1,46
 113 133 113 133 149 182.5 c 128,-1,47
 185 232 185 232 223 287.5 c 128,-1,48
 261 343 261 343 295 396 c 128,-1,49
 329 449 329 449 355.5 495 c 128,-1,50
 382 541 382 541 396 571 c 1,51,-1
 391 576 l 1,52,-1
 269 576 l 2,53,54
 219 576 219 576 188 575 c 128,-1,55
 157 574 157 574 139 568.5 c 128,-1,56
 121 563 121 563 113 552.5 c 128,-1,57
 105 542 105 542 102 524 c 1,58,-1
 96 519 l 1,59,-1
 58 519 l 1,60,-1
 52 526 l 1,0,-1
EndSplineSet
EndChar
StartChar: bracketleft
Encoding: 91 91 46
Width: 307
Flags: W
LayerCount: 2
Back
Fore
SplineSet
278 751 m 1,0,-1
 276 713 l 1,1,-1
 271 709 l 1,2,3
 260 709 260 709 243 707.5 c 128,-1,4
 226 706 226 706 219 699 c 0,5,6
 210 692 210 692 203 681 c 128,-1,7
 196 670 196 670 194 642 c 256,8,9
 192 614 192 614 191.5 574 c 128,-1,10
 191 534 191 534 191 462 c 2,11,-1
 191 251 l 2,12,13
 191 215 191 215 191 177.5 c 128,-1,14
 191 140 191 140 191.5 107 c 128,-1,15
 192 74 192 74 192.5 49 c 128,-1,16
 193 24 193 24 194 12 c 0,17,18
 196 -17 196 -17 203.5 -28 c 128,-1,19
 211 -39 211 -39 219 -45 c 0,20,21
 226 -53 226 -53 243 -54 c 128,-1,22
 260 -55 260 -55 271 -55 c 1,23,-1
 276 -59 l 1,24,-1
 278 -97 l 1,25,-1
 277 -101 l 1,26,27
 268 -101 268 -101 251 -100 c 128,-1,28
 234 -99 234 -99 215.5 -98 c 128,-1,29
 197 -97 197 -97 180 -96 c 128,-1,30
 163 -95 163 -95 154 -95 c 2,31,-1
 78 -95 l 1,32,-1
 76 -91 l 1,33,34
 84 -24 84 -24 86 56.5 c 128,-1,35
 88 137 88 137 88 211 c 2,36,-1
 88 481 l 2,37,38
 88 506 88 506 88 538.5 c 128,-1,39
 88 571 88 571 86.5 607 c 128,-1,40
 85 643 85 643 82.5 678.5 c 128,-1,41
 80 714 80 714 76 745 c 1,42,-1
 78 749 l 1,43,-1
 154 749 l 2,44,45
 163 749 163 749 180 750 c 128,-1,46
 197 751 197 751 215.5 752 c 128,-1,47
 234 753 234 753 251 754 c 128,-1,48
 268 755 268 755 277 755 c 1,49,-1
 278 751 l 1,0,-1
EndSplineSet
EndChar
StartChar: backslash
Encoding: 92 92 42
Width: 463
Flags: W
LayerCount: 2
Back
Fore
SplineSet
428 -57 m 1,0,-1
 310 -57 l 1,1,-1
 307 -53 l 1,2,3
 291 14 291 14 263.5 94 c 128,-1,4
 236 174 236 174 209 249 c 2,5,-1
 142 433 l 2,6,7
 133 458 133 458 120.5 491 c 128,-1,8
 108 524 108 524 94 559.5 c 128,-1,9
 80 595 80 595 65 631 c 128,-1,10
 50 667 50 667 34 698 c 1,11,-1
 34 702 l 1,12,-1
 152 702 l 1,13,-1
 155 698 l 1,14,15
 162 667 162 667 172.5 631 c 128,-1,16
 183 595 183 595 195 559.5 c 128,-1,17
 207 524 207 524 219 491 c 128,-1,18
 231 458 231 458 240 433 c 2,19,-1
 306 249 l 2,20,21
 333 174 333 174 364.5 94 c 128,-1,22
 396 14 396 14 429 -53 c 1,23,-1
 428 -57 l 1,0,-1
EndSplineSet
EndChar
StartChar: bracketright
Encoding: 93 93 47
Width: 308
Flags: W
LayerCount: 2
Back
Fore
SplineSet
31 755 m 1,0,1
 40 755 40 755 57 754 c 128,-1,2
 74 753 74 753 92.5 752 c 128,-1,3
 111 751 111 751 128 750 c 128,-1,4
 145 749 145 749 154 749 c 2,5,-1
 230 749 l 1,6,-1
 232 745 l 1,7,8
 227 714 227 714 225 678.5 c 128,-1,9
 223 643 223 643 221.5 607 c 128,-1,10
 220 571 220 571 220 538.5 c 128,-1,11
 220 506 220 506 220 481 c 2,12,-1
 220 211 l 2,13,14
 220 137 220 137 222 56.5 c 128,-1,15
 224 -24 224 -24 232 -91 c 1,16,-1
 230 -95 l 1,17,-1
 154 -95 l 2,18,19
 145 -95 145 -95 128 -96 c 128,-1,20
 111 -97 111 -97 92.5 -98 c 128,-1,21
 74 -99 74 -99 57 -100 c 128,-1,22
 40 -101 40 -101 31 -101 c 1,23,-1
 30 -97 l 1,24,-1
 32 -59 l 1,25,-1
 37 -55 l 1,26,27
 48 -55 48 -55 65 -54 c 128,-1,28
 82 -53 82 -53 89 -45 c 0,29,30
 97 -39 97 -39 104.5 -28 c 128,-1,31
 112 -17 112 -17 114 12 c 0,32,33
 115 24 115 24 115.5 49 c 128,-1,34
 116 74 116 74 116.5 107 c 128,-1,35
 117 140 117 140 117 177.5 c 128,-1,36
 117 215 117 215 117 251 c 2,37,-1
 117 462 l 2,38,39
 117 534 117 534 116.5 574 c 128,-1,40
 116 614 116 614 114 642 c 256,41,42
 112 670 112 670 105 681 c 128,-1,43
 98 692 98 692 89 699 c 0,44,45
 82 706 82 706 65 707.5 c 128,-1,46
 48 709 48 709 37 709 c 1,47,-1
 32 713 l 1,48,-1
 30 751 l 1,49,-1
 31 755 l 1,0,1
EndSplineSet
EndChar
StartChar: underscore
Encoding: 95 95 143
Width: 481
Flags: W
LayerCount: 2
Back
Fore
SplineSet
457 0 m 1,0,-1
 457 -82 l 1,1,-1
 24 -82 l 1,2,-1
 24 0 l 1,3,-1
 457 0 l 1,0,-1
EndSplineSet
EndChar
StartChar: grave
Encoding: 96 96 82
Width: 219
Flags: W
LayerCount: 2
Back
Fore
SplineSet
185 519 m 1,0,-1
 -16 596 l 1,1,2
 -20 605 -20 605 -20 615 c 0,3,4
 -20 641 -20 641 -6.5 659.5 c 128,-1,5
 7 678 7 678 35 680 c 1,6,-1
 216 579 l 1,7,-1
 219 572 l 1,8,-1
 193 522 l 1,9,-1
 185 519 l 1,0,-1
EndSplineSet
EndChar
StartChar: a
Encoding: 97 97 33
Width: 517
Flags: W
LayerCount: 2
Back
Fore
SplineSet
312 7 m 1,0,1
 315 16 315 16 316.5 33 c 128,-1,2
 318 50 318 50 321 64 c 1,3,-1
 320 67 l 1,4,5
 308 52 308 52 292.5 38 c 128,-1,6
 277 24 277 24 258 13 c 128,-1,7
 239 2 239 2 217.5 -4.5 c 128,-1,8
 196 -11 196 -11 172 -11 c 0,9,10
 136 -11 136 -11 109 0 c 128,-1,11
 82 11 82 11 64 29 c 128,-1,12
 46 47 46 47 36.5 71 c 128,-1,13
 27 95 27 95 27 121 c 0,14,15
 27 160 27 160 44 189 c 128,-1,16
 61 218 61 218 89 236 c 0,17,18
 115 253 115 253 150 262.5 c 128,-1,19
 185 272 185 272 218 277 c 128,-1,20
 251 282 251 282 278 283.5 c 128,-1,21
 305 285 305 285 314 285 c 2,22,-1
 328 285 l 1,23,24
 327 316 327 316 324 333.5 c 128,-1,25
 321 351 321 351 316 363 c 0,26,27
 307 383 307 383 286.5 391.5 c 128,-1,28
 266 400 266 400 238 400 c 0,29,30
 221 400 221 400 201.5 397.5 c 128,-1,31
 182 395 182 395 165 388 c 128,-1,32
 148 381 148 381 135.5 368.5 c 128,-1,33
 123 356 123 356 121 336 c 1,34,-1
 117 333 l 1,35,-1
 85 333 l 1,36,-1
 76 427 l 1,37,-1
 79 433 l 2,38,39
 85 439 85 439 102 446 c 128,-1,40
 119 453 119 453 143 459.5 c 128,-1,41
 167 466 167 466 195.5 470.5 c 128,-1,42
 224 475 224 475 253 475 c 0,43,44
 292 475 292 475 326 465.5 c 128,-1,45
 360 456 360 456 384.5 437 c 128,-1,46
 409 418 409 418 423 389.5 c 128,-1,47
 437 361 437 361 437 323 c 0,48,49
 437 282 437 282 436.5 253 c 128,-1,50
 436 224 436 224 435 199 c 128,-1,51
 434 174 434 174 433.5 150.5 c 128,-1,52
 433 127 433 127 433 98 c 0,53,54
 435 75 435 75 438 65 c 128,-1,55
 441 55 441 55 448 49 c 0,56,57
 456 41 456 41 472.5 39.5 c 128,-1,58
 489 38 489 38 503 38 c 1,59,-1
 506 34 l 1,60,-1
 508 0 l 1,61,-1
 507 -4 l 1,62,63
 490 -2 490 -2 468 -1 c 128,-1,64
 446 0 446 0 427 0 c 0,65,66
 399 0 399 0 371 -0.5 c 128,-1,67
 343 -1 343 -1 318 -3 c 1,68,-1
 312 7 l 1,0,1
312 115 m 0,69,70
 315 120 315 120 318.5 127 c 128,-1,71
 322 134 322 134 323 144 c 2,72,-1
 328 229 l 1,73,-1
 319 229 l 2,74,75
 288 229 288 229 258 225 c 128,-1,76
 228 221 228 221 204 210 c 128,-1,77
 180 199 180 199 165 179 c 128,-1,78
 150 159 150 159 150 127 c 0,79,80
 150 100 150 100 163.5 84 c 128,-1,81
 177 68 177 68 200 68 c 0,82,83
 217 68 217 68 234.5 72.5 c 128,-1,84
 252 77 252 77 267 84 c 128,-1,85
 282 91 282 91 294 99.5 c 128,-1,86
 306 108 306 108 312 115 c 0,69,70
EndSplineSet
Substitution2: "'ordn' Ordinals in Latin lookup 3 subtable" ordfeminine
Substitution2: "'aalt' Access All Alternates in Latin lookup 0 subtable" ordfeminine
EndChar
StartChar: b
Encoding: 98 98 41
Width: 621
Flags: W
LayerCount: 2
Back
Fore
SplineSet
198 80 m 1,0,1
 198 60 198 60 202 44 c 128,-1,2
 206 28 206 28 210 17 c 1,3,-1
 204 0 l 1,4,-1
 158 0 l 2,5,6
 148 0 148 0 129.5 -0.5 c 128,-1,7
 111 -1 111 -1 90 -1.5 c 128,-1,8
 69 -2 69 -2 50.5 -3 c 128,-1,9
 32 -4 32 -4 22 -4 c 1,10,-1
 21 0 l 1,11,-1
 23 34 l 1,12,-1
 26 38 l 1,13,14
 40 38 40 38 54 39.5 c 128,-1,15
 68 41 68 41 76 49 c 0,16,17
 84 56 84 56 88 67 c 128,-1,18
 92 78 92 78 92 98 c 2,19,-1
 92 111 l 2,20,21
 92 120 92 120 92.5 128 c 128,-1,22
 93 136 93 136 93 148.5 c 128,-1,23
 93 161 93 161 93.5 181 c 128,-1,24
 94 201 94 201 94 234 c 2,25,-1
 94 464 l 2,26,27
 94 505 94 505 93.5 532 c 128,-1,28
 93 559 93 559 92.5 578 c 128,-1,29
 92 597 92 597 91.5 611 c 128,-1,30
 91 625 91 625 90 642 c 0,31,32
 89 653 89 653 83 662 c 128,-1,33
 77 671 77 671 73 674 c 0,34,35
 60 685 60 685 45.5 687.5 c 128,-1,36
 31 690 31 690 15 690 c 1,37,-1
 11 694 l 1,38,-1
 11 727 l 1,39,-1
 15 731 l 1,40,-1
 65 731 l 2,41,42
 88 731 88 731 117 731.5 c 128,-1,43
 146 732 146 732 166 735 c 2,44,-1
 201 740 l 1,45,-1
 207 721 l 2,46,47
 205 717 205 717 203.5 706.5 c 128,-1,48
 202 696 202 696 201 684 c 128,-1,49
 200 672 200 672 199.5 661 c 128,-1,50
 199 650 199 650 199 644 c 0,51,52
 199 628 199 628 199 615.5 c 128,-1,53
 199 603 199 603 198.5 586 c 128,-1,54
 198 569 198 569 198 543.5 c 128,-1,55
 198 518 198 518 198 476 c 0,56,57
 198 433 198 433 197 413.5 c 128,-1,58
 196 394 196 394 195 382 c 1,59,-1
 198 380 l 1,60,61
 227 422 227 422 269 448.5 c 128,-1,62
 311 475 311 475 364 475 c 0,63,64
 421 475 421 475 462.5 455 c 128,-1,65
 504 435 504 435 531 402 c 128,-1,66
 558 369 558 369 571 326.5 c 128,-1,67
 584 284 584 284 584 238 c 0,68,69
 584 170 584 170 563 122.5 c 128,-1,70
 542 75 542 75 509.5 45.5 c 128,-1,71
 477 16 477 16 438.5 2.5 c 128,-1,72
 400 -11 400 -11 365 -11 c 0,73,74
 317 -11 317 -11 274.5 10 c 128,-1,75
 232 31 232 31 201 82 c 1,76,-1
 198 80 l 1,0,1
467 235 m 0,77,78
 467 265 467 265 459.5 293.5 c 128,-1,79
 452 322 452 322 437 344.5 c 128,-1,80
 422 367 422 367 398.5 380.5 c 128,-1,81
 375 394 375 394 343 394 c 0,82,83
 309 394 309 394 282.5 382.5 c 128,-1,84
 256 371 256 371 237.5 354.5 c 128,-1,85
 219 338 219 338 208.5 320 c 128,-1,86
 198 302 198 302 197 289 c 2,87,-1
 197 178 l 2,88,89
 199 165 199 165 208.5 146.5 c 128,-1,90
 218 128 218 128 235.5 110.5 c 128,-1,91
 253 93 253 93 279 81 c 128,-1,92
 305 69 305 69 341 69 c 0,93,94
 374 69 374 69 398 83.5 c 128,-1,95
 422 98 422 98 437.5 121 c 128,-1,96
 453 144 453 144 460 174 c 128,-1,97
 467 204 467 204 467 235 c 0,77,78
EndSplineSet
EndChar
StartChar: c
Encoding: 99 99 50
Width: 496
Flags: W
LayerCount: 2
Back
Fore
SplineSet
417 323 m 1,0,-1
 413 326 l 1,1,2
 413 349 413 349 399.5 363.5 c 128,-1,3
 386 378 386 378 367 386 c 128,-1,4
 348 394 348 394 326.5 397 c 128,-1,5
 305 400 305 400 289 400 c 0,6,7
 253 400 253 400 226 386 c 128,-1,8
 199 372 199 372 182 349 c 128,-1,9
 165 326 165 326 156.5 296 c 128,-1,10
 148 266 148 266 148 234 c 0,11,12
 148 200 148 200 157.5 169 c 128,-1,13
 167 138 167 138 186 114 c 128,-1,14
 205 90 205 90 234.5 75.5 c 128,-1,15
 264 61 264 61 304 61 c 0,16,17
 338 61 338 61 376 68 c 128,-1,18
 414 75 414 75 444 91 c 1,19,-1
 461 67 l 1,20,-1
 446 39 l 1,21,22
 435 31 435 31 417.5 22.5 c 128,-1,23
 400 14 400 14 378 6.5 c 128,-1,24
 356 -1 356 -1 330.5 -6 c 128,-1,25
 305 -11 305 -11 280 -11 c 0,26,27
 231 -11 231 -11 186.5 6.5 c 128,-1,28
 142 24 142 24 108.5 55.5 c 128,-1,29
 75 87 75 87 55 131.5 c 128,-1,30
 35 176 35 176 35 230 c 0,31,32
 35 285 35 285 55 330 c 128,-1,33
 75 375 75 375 110 407 c 128,-1,34
 145 439 145 439 191.5 457 c 128,-1,35
 238 475 238 475 291 475 c 0,36,37
 315 475 315 475 339.5 471.5 c 128,-1,38
 364 468 364 468 386.5 463 c 128,-1,39
 409 458 409 458 427 451.5 c 128,-1,40
 445 445 445 445 456 439 c 1,41,-1
 459 430 l 1,42,-1
 448 323 l 1,43,-1
 417 323 l 1,0,-1
EndSplineSet
EndChar
StartChar: d
Encoding: 100 100 58
Width: 623
Flags: W
LayerCount: 2
Back
Fore
SplineSet
413 17 m 2,0,1
 413 24 413 24 416.5 43.5 c 128,-1,2
 420 63 420 63 422 78 c 1,3,-1
 421 82 l 1,4,5
 395 36 395 36 349 12.5 c 128,-1,6
 303 -11 303 -11 253 -11 c 0,7,8
 198 -11 198 -11 157.5 9 c 128,-1,9
 117 29 117 29 90 62 c 128,-1,10
 63 95 63 95 50 138 c 128,-1,11
 37 181 37 181 37 227 c 0,12,13
 37 294 37 294 58.5 341.5 c 128,-1,14
 80 389 80 389 113 418.5 c 128,-1,15
 146 448 146 448 185.5 461.5 c 128,-1,16
 225 475 225 475 262 475 c 0,17,18
 307 475 307 475 351 454 c 128,-1,19
 395 433 395 433 423 385 c 1,20,-1
 425 389 l 1,21,22
 423 418 423 418 423 448.5 c 128,-1,23
 423 479 423 479 423 508 c 0,24,25
 423 539 423 539 423 559.5 c 128,-1,26
 423 580 423 580 422.5 594 c 128,-1,27
 422 608 422 608 421.5 619 c 128,-1,28
 421 630 421 630 420 642 c 0,29,30
 419 652 419 652 413 661 c 128,-1,31
 407 670 407 670 404 673 c 0,32,33
 390 684 390 684 376.5 687 c 128,-1,34
 363 690 363 690 345 690 c 1,35,-1
 341 694 l 1,36,-1
 341 727 l 1,37,-1
 345 731 l 1,38,-1
 402 731 l 2,39,40
 425 731 425 731 450.5 731.5 c 128,-1,41
 476 732 476 732 496 735 c 2,42,-1
 531 740 l 1,43,-1
 537 721 l 2,44,45
 535 717 535 717 533.5 706.5 c 128,-1,46
 532 696 532 696 531.5 684 c 128,-1,47
 531 672 531 672 530.5 661 c 128,-1,48
 530 650 530 650 530 644 c 0,49,50
 530 629 530 629 529.5 615.5 c 128,-1,51
 529 602 529 602 529 584.5 c 128,-1,52
 529 567 529 567 528.5 541.5 c 128,-1,53
 528 516 528 516 528 476 c 2,54,-1
 528 258 l 2,55,56
 528 216 528 216 528.5 190.5 c 128,-1,57
 529 165 529 165 529.5 148 c 128,-1,58
 530 131 530 131 530.5 118.5 c 128,-1,59
 531 106 531 106 532 88 c 0,60,61
 534 70 534 70 537.5 62 c 128,-1,62
 541 54 541 54 548 49 c 0,63,64
 556 41 556 41 570 39.5 c 128,-1,65
 584 38 584 38 596 38 c 1,66,-1
 600 34 l 1,67,-1
 602 0 l 1,68,-1
 600 -4 l 1,69,70
 583 -2 583 -2 563 -1 c 128,-1,71
 543 0 543 0 525 0 c 0,72,73
 498 0 498 0 471 -0.5 c 128,-1,74
 444 -1 444 -1 420 -3 c 1,75,-1
 413 17 l 2,0,1
153 228 m 0,76,77
 153 198 153 198 160.5 169.5 c 128,-1,78
 168 141 168 141 183 118.5 c 128,-1,79
 198 96 198 96 221.5 82.5 c 128,-1,80
 245 69 245 69 277 69 c 0,81,82
 311 69 311 69 337.5 80.5 c 128,-1,83
 364 92 364 92 382.5 108.5 c 128,-1,84
 401 125 401 125 411.5 143 c 128,-1,85
 422 161 422 161 423 174 c 2,86,-1
 423 285 l 2,87,88
 421 298 421 298 411.5 316.5 c 128,-1,89
 402 335 402 335 384.5 352 c 128,-1,90
 367 369 367 369 341 381.5 c 128,-1,91
 315 394 315 394 279 394 c 0,92,93
 246 394 246 394 222 379.5 c 128,-1,94
 198 365 198 365 182.5 342 c 128,-1,95
 167 319 167 319 160 289 c 128,-1,96
 153 259 153 259 153 228 c 0,76,77
EndSplineSet
EndChar
StartChar: f
Encoding: 102 102 73
Width: 335
Flags: W
LayerCount: 2
Back
Fore
SplineSet
315 400 m 1,0,-1
 208 400 l 1,1,-1
 208 258 l 2,2,3
 208 220 208 220 208 195 c 128,-1,4
 208 170 208 170 208.5 152.5 c 128,-1,5
 209 135 209 135 210 122.5 c 128,-1,6
 211 110 211 110 212 98 c 0,7,8
 214 83 214 83 220 69.5 c 128,-1,9
 226 56 226 56 234 49 c 0,10,11
 242 41 242 41 256.5 39.5 c 128,-1,12
 271 38 271 38 280 38 c 1,13,-1
 285 33 l 1,14,-1
 287 0 l 1,15,-1
 285 -4 l 1,16,17
 279 -4 279 -4 266 -3 c 128,-1,18
 253 -2 253 -2 239 -1.5 c 128,-1,19
 225 -1 225 -1 212 -0.5 c 128,-1,20
 199 0 199 0 193 0 c 2,21,-1
 129 0 l 2,22,23
 122 0 122 0 107.5 -0.5 c 128,-1,24
 93 -1 93 -1 77 -1.5 c 128,-1,25
 61 -2 61 -2 46.5 -3 c 128,-1,26
 32 -4 32 -4 25 -4 c 1,27,-1
 24 0 l 1,28,-1
 26 34 l 1,29,-1
 29 38 l 1,30,31
 44 38 44 38 58 40.5 c 128,-1,32
 72 43 72 43 81 51 c 0,33,34
 87 57 87 57 91.5 66 c 128,-1,35
 96 75 96 75 98 94 c 128,-1,36
 100 113 100 113 101 146 c 128,-1,37
 102 179 102 179 102 234 c 2,38,-1
 102 400 l 1,39,-1
 48 400 l 1,40,-1
 44 405 l 1,41,-1
 44 448 l 1,42,-1
 48 452 l 1,43,-1
 102 467 l 1,44,-1
 102 524 l 2,45,46
 102 626 102 626 149.5 685.5 c 128,-1,47
 197 745 197 745 289 745 c 0,48,49
 312 745 312 745 339 735.5 c 128,-1,50
 366 726 366 726 395 705 c 1,51,-1
 400 695 l 1,52,-1
 388 608 l 1,53,-1
 352 608 l 1,54,55
 350 637 350 637 327 654 c 128,-1,56
 304 671 304 671 275 671 c 0,57,58
 250 671 250 671 236.5 662.5 c 128,-1,59
 223 654 223 654 216.5 640.5 c 128,-1,60
 210 627 210 627 209 609 c 128,-1,61
 208 591 208 591 208 573 c 2,62,-1
 208 467 l 1,63,-1
 315 473 l 1,64,-1
 320 469 l 1,65,-1
 320 405 l 1,66,-1
 315 400 l 1,0,-1
EndSplineSet
EndChar
StartChar: g
Encoding: 103 103 80
Width: 490
Flags: W
LayerCount: 2
Back
Fore
SplineSet
137 136 m 1,0,1
 86 156 86 156 63 199 c 128,-1,2
 40 242 40 242 40 294 c 0,3,4
 40 331 40 331 53 364 c 128,-1,5
 66 397 66 397 90.5 421.5 c 128,-1,6
 115 446 115 446 149.5 460 c 128,-1,7
 184 474 184 474 228 474 c 0,8,9
 254 474 254 474 279.5 469 c 128,-1,10
 305 464 305 464 324 455 c 1,11,12
 366 456 366 456 402.5 460 c 128,-1,13
 439 464 439 464 471 473 c 1,14,-1
 476 469 l 1,15,-1
 469 394 l 1,16,-1
 464 389 l 1,17,-1
 389 397 l 1,18,-1
 388 394 l 1,19,20
 404 376 404 376 413 346 c 128,-1,21
 422 316 422 316 422 289 c 0,22,23
 422 256 422 256 409.5 226 c 128,-1,24
 397 196 397 196 373 173.5 c 128,-1,25
 349 151 349 151 313 137.5 c 128,-1,26
 277 124 277 124 230 124 c 0,27,28
 224 124 224 124 214.5 124.5 c 128,-1,29
 205 125 205 125 200 125 c 0,30,31
 183 118 183 118 174.5 106 c 128,-1,32
 166 94 166 94 166 86 c 0,33,34
 166 64 166 64 213 58 c 2,35,-1
 310 48 l 2,36,37
 343 44 343 44 371.5 34 c 128,-1,38
 400 24 400 24 421.5 7.5 c 128,-1,39
 443 -9 443 -9 455 -32.5 c 128,-1,40
 467 -56 467 -56 467 -87 c 0,41,42
 467 -116 467 -116 454 -145.5 c 128,-1,43
 441 -175 441 -175 415 -198 c 0,44,45
 389 -220 389 -220 343 -234 c 128,-1,46
 297 -248 297 -248 237 -248 c 0,47,48
 183 -248 183 -248 143.5 -236.5 c 128,-1,49
 104 -225 104 -225 77.5 -205.5 c 128,-1,50
 51 -186 51 -186 38 -161.5 c 128,-1,51
 25 -137 25 -137 25 -111 c 0,52,53
 25 -69 25 -69 52.5 -36.5 c 128,-1,54
 80 -4 80 -4 123 9 c 1,55,-1
 124 12 l 1,56,57
 100 21 100 21 85.5 34.5 c 128,-1,58
 71 48 71 48 71 68 c 0,59,60
 71 94 71 94 92 110 c 128,-1,61
 113 126 113 126 137 132 c 1,62,-1
 137 136 l 1,0,1
232 193 m 0,63,64
 252 193 252 193 267.5 201 c 128,-1,65
 283 209 283 209 294 222 c 128,-1,66
 305 235 305 235 310.5 252.5 c 128,-1,67
 316 270 316 270 316 289 c 0,68,69
 316 309 316 309 310 329 c 128,-1,70
 304 349 304 349 293 365.5 c 128,-1,71
 282 382 282 382 265 392.5 c 128,-1,72
 248 403 248 403 226 403 c 0,73,74
 205 403 205 403 190 393.5 c 128,-1,75
 175 384 175 384 164.5 369 c 128,-1,76
 154 354 154 354 149 335 c 128,-1,77
 144 316 144 316 144 298 c 0,78,79
 144 279 144 279 149.5 260 c 128,-1,80
 155 241 155 241 166 226 c 128,-1,81
 177 211 177 211 193.5 202 c 128,-1,82
 210 193 210 193 232 193 c 0,63,64
200 -22 m 2,83,84
 178 -23 178 -23 162 -30 c 128,-1,85
 146 -37 146 -37 135 -48.5 c 128,-1,86
 124 -60 124 -60 118.5 -73.5 c 128,-1,87
 113 -87 113 -87 113 -100 c 0,88,89
 113 -129 113 -129 148 -147.5 c 128,-1,90
 183 -166 183 -166 243 -166 c 0,91,92
 297 -166 297 -166 334 -148.5 c 128,-1,93
 371 -131 371 -131 371 -97 c 0,94,95
 371 -78 371 -78 362 -66 c 128,-1,96
 353 -54 353 -54 338 -46.5 c 128,-1,97
 323 -39 323 -39 304.5 -35 c 128,-1,98
 286 -31 286 -31 267 -29 c 2,99,-1
 200 -22 l 2,83,84
EndSplineSet
EndChar
StartChar: h
Encoding: 104 104 88
Width: 627
Flags: W
LayerCount: 2
Back
Fore
SplineSet
419 17 m 1,0,1
 423 30 423 30 425 51 c 128,-1,2
 427 72 427 72 428 88 c 0,3,4
 430 126 430 126 431 164 c 128,-1,5
 432 202 432 202 432 228 c 0,6,7
 432 251 432 251 431 278 c 128,-1,8
 430 305 430 305 424 325 c 0,9,10
 416 357 416 357 390 372.5 c 128,-1,11
 364 388 364 388 332 388 c 0,12,13
 303 388 303 388 278.5 377 c 128,-1,14
 254 366 254 366 236 350 c 128,-1,15
 218 334 218 334 208 317 c 128,-1,16
 198 300 198 300 198 288 c 0,17,18
 198 237 198 237 198 207.5 c 128,-1,19
 198 178 198 178 198.5 159 c 128,-1,20
 199 140 199 140 199.5 127.5 c 128,-1,21
 200 115 200 115 202 98 c 0,22,23
 204 77 204 77 210 66.5 c 128,-1,24
 216 56 216 56 224 49 c 0,25,26
 232 41 232 41 243 39.5 c 128,-1,27
 254 38 254 38 269 38 c 1,28,-1
 274 33 l 1,29,-1
 276 0 l 1,30,-1
 274 -4 l 1,31,32
 267 -4 267 -4 253 -3 c 128,-1,33
 239 -2 239 -2 223 -1.5 c 128,-1,34
 207 -1 207 -1 193 -0.5 c 128,-1,35
 179 0 179 0 172 0 c 2,36,-1
 118 0 l 2,37,38
 111 0 111 0 96.5 -0.5 c 128,-1,39
 82 -1 82 -1 66.5 -1.5 c 128,-1,40
 51 -2 51 -2 36.5 -3 c 128,-1,41
 22 -4 22 -4 15 -4 c 1,42,-1
 14 0 l 1,43,-1
 16 34 l 1,44,-1
 19 38 l 1,45,46
 35 38 35 38 47.5 39.5 c 128,-1,47
 60 41 60 41 68 49 c 0,48,49
 76 56 76 56 81 67 c 128,-1,50
 86 78 86 78 88 98 c 0,51,52
 89 110 89 110 90 122 c 128,-1,53
 91 134 91 134 91.5 150.5 c 128,-1,54
 92 167 92 167 92 189.5 c 128,-1,55
 92 212 92 212 92 244 c 2,56,-1
 92 464 l 2,57,58
 92 503 92 503 92 530 c 128,-1,59
 92 557 92 557 91.5 576.5 c 128,-1,60
 91 596 91 596 90.5 611.5 c 128,-1,61
 90 627 90 627 89 642 c 0,62,63
 88 652 88 652 82.5 660.5 c 128,-1,64
 77 669 77 669 74 672 c 0,65,66
 64 683 64 683 47.5 686.5 c 128,-1,67
 31 690 31 690 15 690 c 1,68,-1
 11 694 l 1,69,-1
 11 727 l 1,70,-1
 15 731 l 1,71,-1
 71 731 l 2,72,73
 94 731 94 731 120 731.5 c 128,-1,74
 146 732 146 732 166 735 c 2,75,-1
 201 740 l 1,76,-1
 207 721 l 2,77,78
 205 716 205 716 204 704.5 c 128,-1,79
 203 693 203 693 202 679.5 c 128,-1,80
 201 666 201 666 201 653.5 c 128,-1,81
 201 641 201 641 201 634 c 0,82,83
 201 608 201 608 199.5 574 c 128,-1,84
 198 540 198 540 198 495 c 0,85,86
 198 453 198 453 197.5 420 c 128,-1,87
 197 387 197 387 195 372 c 1,88,-1
 198 370 l 1,89,90
 210 388 210 388 226.5 406.5 c 128,-1,91
 243 425 243 425 263.5 440.5 c 128,-1,92
 284 456 284 456 308.5 465.5 c 128,-1,93
 333 475 333 475 361 475 c 0,94,95
 392 475 392 475 422 467 c 128,-1,96
 452 459 452 459 476.5 442 c 128,-1,97
 501 425 501 425 517 399 c 128,-1,98
 533 373 533 373 538 337 c 0,99,100
 541 311 541 311 541.5 277.5 c 128,-1,101
 542 244 542 244 542 223 c 2,102,-1
 542 102 l 2,103,104
 542 79 542 79 548 66.5 c 128,-1,105
 554 54 554 54 560 49 c 0,106,107
 569 41 569 41 583 39.5 c 128,-1,108
 597 38 597 38 613 38 c 1,109,-1
 616 34 l 1,110,-1
 618 0 l 1,111,-1
 616 -4 l 1,112,113
 595 -2 595 -2 570 -1 c 128,-1,114
 545 0 545 0 520 0 c 0,115,116
 469 0 469 0 426 -3 c 1,117,-1
 419 17 l 1,0,1
EndSplineSet
EndChar
StartChar: j
Encoding: 106 106 91
Width: 277
Flags: W
LayerCount: 2
Back
Fore
SplineSet
17 452 m 1,0,-1
 21 455 l 1,1,-1
 72 455 l 2,2,3
 95 455 95 455 121.5 455.5 c 128,-1,4
 148 456 148 456 168 459 c 2,5,-1
 203 464 l 1,6,-1
 208 445 l 2,7,8
 206 441 206 441 205 431 c 128,-1,9
 204 421 204 421 203.5 409 c 128,-1,10
 203 397 203 397 202.5 386 c 128,-1,11
 202 375 202 375 202 368 c 0,12,13
 202 359 202 359 201.5 348 c 128,-1,14
 201 337 201 337 200.5 320.5 c 128,-1,15
 200 304 200 304 200 280 c 128,-1,16
 200 256 200 256 200 222 c 2,17,-1
 200 -4 l 2,18,19
 200 -64 200 -64 189.5 -108 c 128,-1,20
 179 -152 179 -152 158 -182 c 128,-1,21
 137 -212 137 -212 105 -230 c 128,-1,22
 73 -248 73 -248 30 -257 c 0,23,24
 20 -259 20 -259 12 -259.5 c 128,-1,25
 4 -260 4 -260 -6 -260 c 2,26,-1
 -14 -258 l 1,27,-1
 -16 -219 l 1,28,-1
 -12 -214 l 1,29,30
 8 -214 8 -214 23.5 -210.5 c 128,-1,31
 39 -207 39 -207 54 -190 c 0,32,33
 77 -169 77 -169 83.5 -136.5 c 128,-1,34
 90 -104 90 -104 91 -62 c 0,35,36
 91 -56 91 -56 91.5 -37 c 128,-1,37
 92 -18 92 -18 92.5 7 c 128,-1,38
 93 32 93 32 93 60.5 c 128,-1,39
 93 89 93 89 93.5 114 c 128,-1,40
 94 139 94 139 94 158 c 128,-1,41
 94 177 94 177 94 184 c 0,42,43
 94 194 94 194 94 217.5 c 128,-1,44
 94 241 94 241 93.5 268 c 128,-1,45
 93 295 93 295 92.5 321.5 c 128,-1,46
 92 348 92 348 91 365 c 0,47,48
 90 376 90 376 85.5 385 c 128,-1,49
 81 394 81 394 78 397 c 0,50,51
 68 410 68 410 52.5 412 c 128,-1,52
 37 414 37 414 21 414 c 1,53,-1
 17 418 l 1,54,-1
 17 452 l 1,0,-1
75 613 m 0,55,56
 75 625 75 625 80 637 c 128,-1,57
 85 649 85 649 94 658.5 c 128,-1,58
 103 668 103 668 114.5 673.5 c 128,-1,59
 126 679 126 679 139 679 c 0,60,61
 164 679 164 679 184.5 658.5 c 128,-1,62
 205 638 205 638 205 613 c 0,63,64
 205 600 205 600 199.5 588.5 c 128,-1,65
 194 577 194 577 184.5 568 c 128,-1,66
 175 559 175 559 163 554 c 128,-1,67
 151 549 151 549 139 549 c 0,68,69
 113 549 113 549 94 568 c 128,-1,70
 75 587 75 587 75 613 c 0,55,56
EndSplineSet
EndChar
StartChar: k
Encoding: 107 107 92
Width: 542
Flags: W
LayerCount: 2
Back
Fore
SplineSet
17 727 m 1,0,-1
 21 731 l 1,1,-1
 71 731 l 2,2,3
 94 731 94 731 120 731.5 c 128,-1,4
 146 732 146 732 166 735 c 2,5,-1
 202 740 l 1,6,-1
 208 721 l 2,7,8
 206 717 206 717 204.5 706.5 c 128,-1,9
 203 696 203 696 202.5 684 c 128,-1,10
 202 672 202 672 201.5 661 c 128,-1,11
 201 650 201 650 201 644 c 0,12,13
 201 628 201 628 200.5 614 c 128,-1,14
 200 600 200 600 199.5 581 c 128,-1,15
 199 562 199 562 198.5 535 c 128,-1,16
 198 508 198 508 198 466 c 2,17,-1
 198 275 l 1,18,-1
 304 374 l 2,19,20
 315 385 315 385 315 395 c 0,21,22
 315 411 315 411 269 419 c 1,23,-1
 265 423 l 1,24,-1
 265 455 l 1,25,-1
 269 459 l 1,26,27
 288 457 288 457 307 455 c 128,-1,28
 326 453 326 453 346 453 c 2,29,-1
 407 453 l 2,30,31
 424 453 424 453 441 455 c 128,-1,32
 458 457 458 457 475 459 c 1,33,-1
 478 455 l 1,34,-1
 478 421 l 1,35,-1
 473 416 l 1,36,37
 465 414 465 414 452.5 411 c 128,-1,38
 440 408 440 408 430 402 c 0,39,40
 415 393 415 393 399.5 381 c 128,-1,41
 384 369 384 369 368.5 355 c 128,-1,42
 353 341 353 341 337.5 326.5 c 128,-1,43
 322 312 322 312 309 300 c 2,44,-1
 287 280 l 1,45,-1
 417 120 l 2,46,47
 433 100 433 100 447 85.5 c 128,-1,48
 461 71 461 71 476 61 c 128,-1,49
 491 51 491 51 508 45 c 128,-1,50
 525 39 525 39 548 38 c 1,51,-1
 551 34 l 1,52,-1
 553 0 l 1,53,-1
 551 -4 l 1,54,55
 526 -6 526 -6 496.5 -6.5 c 128,-1,56
 467 -7 467 -7 437 -7 c 0,57,58
 415 -7 415 -7 396 6.5 c 128,-1,59
 377 20 377 20 363 37 c 2,60,-1
 204 233 l 1,61,-1
 198 227 l 1,62,63
 198 193 198 193 199 157.5 c 128,-1,64
 200 122 200 122 202 98 c 0,65,66
 203 77 203 77 206 66.5 c 128,-1,67
 209 56 209 56 217 49 c 0,68,69
 225 41 225 41 239.5 39.5 c 128,-1,70
 254 38 254 38 269 38 c 1,71,-1
 274 33 l 1,72,-1
 276 0 l 1,73,-1
 274 -4 l 1,74,75
 266 -4 266 -4 252 -3 c 128,-1,76
 238 -2 238 -2 223 -1.5 c 128,-1,77
 208 -1 208 -1 193.5 -0.5 c 128,-1,78
 179 0 179 0 172 0 c 2,79,-1
 118 0 l 2,80,81
 111 0 111 0 96.5 -0.5 c 128,-1,82
 82 -1 82 -1 66.5 -1.5 c 128,-1,83
 51 -2 51 -2 36.5 -3 c 128,-1,84
 22 -4 22 -4 15 -4 c 1,85,-1
 14 0 l 1,86,-1
 16 34 l 1,87,-1
 19 38 l 1,88,89
 35 38 35 38 50.5 39.5 c 128,-1,90
 66 41 66 41 74 49 c 0,91,92
 82 56 82 56 84.5 67 c 128,-1,93
 87 78 87 78 89 98 c 0,94,95
 90 109 90 109 90.5 120.5 c 128,-1,96
 91 132 91 132 91.5 147 c 128,-1,97
 92 162 92 162 92 183 c 128,-1,98
 92 204 92 204 92 234 c 2,99,-1
 92 454 l 2,100,101
 92 495 92 495 92 523.5 c 128,-1,102
 92 552 92 552 91.5 573 c 128,-1,103
 91 594 91 594 90.5 610 c 128,-1,104
 90 626 90 626 89 642 c 0,105,106
 88 653 88 653 83.5 661.5 c 128,-1,107
 79 670 79 670 76 674 c 0,108,109
 66 685 66 685 51.5 687.5 c 128,-1,110
 37 690 37 690 21 690 c 1,111,-1
 17 694 l 1,112,-1
 17 727 l 1,0,-1
EndSplineSet
EndChar
StartChar: l
Encoding: 108 108 93
Width: 298
Flags: W
LayerCount: 2
Back
Fore
SplineSet
278 -4 m 1,0,1
 271 -4 271 -4 257 -3 c 128,-1,2
 243 -2 243 -2 227 -1.5 c 128,-1,3
 211 -1 211 -1 197 -0.5 c 128,-1,4
 183 0 183 0 176 0 c 2,5,-1
 122 0 l 2,6,7
 115 0 115 0 100.5 -0.5 c 128,-1,8
 86 -1 86 -1 70.5 -1.5 c 128,-1,9
 55 -2 55 -2 40.5 -3 c 128,-1,10
 26 -4 26 -4 19 -4 c 1,11,-1
 18 0 l 1,12,-1
 20 34 l 1,13,-1
 23 38 l 1,14,15
 38 38 38 38 54 39.5 c 128,-1,16
 70 41 70 41 78 49 c 0,17,18
 85 56 85 56 88 67 c 128,-1,19
 91 78 91 78 93 98 c 0,20,21
 94 105 94 105 94.5 112 c 128,-1,22
 95 119 95 119 95.5 127 c 128,-1,23
 96 135 96 135 96 146 c 128,-1,24
 96 157 96 157 96 173 c 2,25,-1
 96 562 l 2,26,27
 96 581 96 581 96 592.5 c 128,-1,28
 96 604 96 604 95.5 612 c 128,-1,29
 95 620 95 620 94.5 626.5 c 128,-1,30
 94 633 94 633 93 642 c 0,31,32
 91 652 91 652 87 661 c 128,-1,33
 83 670 83 670 80 673 c 0,34,35
 70 686 70 686 55 688 c 128,-1,36
 40 690 40 690 24 690 c 1,37,-1
 20 694 l 1,38,-1
 20 728 l 1,39,-1
 24 731 l 1,40,-1
 75 731 l 2,41,42
 98 731 98 731 124 731.5 c 128,-1,43
 150 732 150 732 170 735 c 2,44,-1
 205 740 l 1,45,-1
 211 721 l 2,46,47
 209 717 209 717 207.5 708.5 c 128,-1,48
 206 700 206 700 205.5 690.5 c 128,-1,49
 205 681 205 681 204.5 671.5 c 128,-1,50
 204 662 204 662 204 656 c 0,51,52
 204 648 204 648 203.5 641.5 c 128,-1,53
 203 635 203 635 203 626.5 c 128,-1,54
 203 618 203 618 202.5 605 c 128,-1,55
 202 592 202 592 202 573 c 2,56,-1
 202 185 l 2,57,58
 202 165 202 165 202.5 152.5 c 128,-1,59
 203 140 203 140 203.5 131 c 128,-1,60
 204 122 204 122 204.5 114.5 c 128,-1,61
 205 107 205 107 206 98 c 0,62,63
 208 77 208 77 210.5 66.5 c 128,-1,64
 213 56 213 56 221 49 c 0,65,66
 229 41 229 41 243.5 39.5 c 128,-1,67
 258 38 258 38 273 38 c 1,68,-1
 278 33 l 1,69,-1
 280 0 l 1,70,-1
 278 -4 l 1,0,1
EndSplineSet
EndChar
StartChar: m
Encoding: 109 109 96
Width: 964
Flags: W
LayerCount: 2
Back
Fore
SplineSet
30 452 m 1,0,-1
 34 455 l 1,1,-1
 84 455 l 2,2,3
 107 455 107 455 133.5 455.5 c 128,-1,4
 160 456 160 456 180 459 c 2,5,-1
 215 464 l 1,6,-1
 221 445 l 2,7,8
 219 440 219 440 217.5 431.5 c 128,-1,9
 216 423 216 423 214.5 413 c 128,-1,10
 213 403 213 403 212 393.5 c 128,-1,11
 211 384 211 384 211 377 c 1,12,-1
 214 375 l 1,13,14
 225 395 225 395 239.5 413.5 c 128,-1,15
 254 432 254 432 273 445.5 c 128,-1,16
 292 459 292 459 316 467 c 128,-1,17
 340 475 340 475 371 475 c 0,18,19
 426 475 426 475 469.5 447 c 128,-1,20
 513 419 513 419 532 369 c 1,21,22
 543 387 543 387 558 406 c 128,-1,23
 573 425 573 425 593 440.5 c 128,-1,24
 613 456 613 456 638.5 465.5 c 128,-1,25
 664 475 664 475 696 475 c 0,26,27
 727 475 727 475 756 467 c 128,-1,28
 785 459 785 459 809 442 c 128,-1,29
 833 425 833 425 850 399 c 128,-1,30
 867 373 867 373 874 336 c 0,31,32
 879 310 879 310 879.5 281 c 128,-1,33
 880 252 880 252 880 223 c 2,34,-1
 880 98 l 2,35,36
 880 78 880 78 885.5 69 c 128,-1,37
 891 60 891 60 896 52 c 0,38,39
 903 42 903 42 918.5 40 c 128,-1,40
 934 38 934 38 950 38 c 1,41,-1
 954 34 l 1,42,-1
 956 0 l 1,43,-1
 954 -4 l 1,44,45
 936 -2 936 -2 915 -1 c 128,-1,46
 894 0 894 0 874 0 c 0,47,48
 813 0 813 0 764 -3 c 1,49,-1
 757 17 l 1,50,51
 760 30 760 30 762.5 51 c 128,-1,52
 765 72 765 72 766 88 c 0,53,54
 767 101 767 101 767.5 122 c 128,-1,55
 768 143 768 143 769 164.5 c 128,-1,56
 770 186 770 186 770.5 204.5 c 128,-1,57
 771 223 771 223 771 233 c 0,58,59
 771 253 771 253 769.5 283.5 c 128,-1,60
 768 314 768 314 763 335 c 0,61,62
 755 361 755 361 733 374.5 c 128,-1,63
 711 388 711 388 684 388 c 0,64,65
 658 388 658 388 636.5 380.5 c 128,-1,66
 615 373 615 373 598 362 c 128,-1,67
 581 351 581 351 569.5 337 c 128,-1,68
 558 323 558 323 552 311 c 1,69,70
 554 289 554 289 554.5 267 c 128,-1,71
 555 245 555 245 555 223 c 2,72,-1
 555 98 l 2,73,74
 555 77 555 77 559.5 67 c 128,-1,75
 564 57 564 57 572 49 c 0,76,77
 581 41 581 41 594.5 39.5 c 128,-1,78
 608 38 608 38 623 38 c 1,79,-1
 628 33 l 1,80,-1
 630 0 l 1,81,-1
 628 -4 l 1,82,83
 621 -4 621 -4 607 -3 c 128,-1,84
 593 -2 593 -2 577 -1.5 c 128,-1,85
 561 -1 561 -1 547 -0.5 c 128,-1,86
 533 0 533 0 526 0 c 2,87,-1
 472 0 l 2,88,89
 465 0 465 0 450.5 -0.5 c 128,-1,90
 436 -1 436 -1 420.5 -1.5 c 128,-1,91
 405 -2 405 -2 390.5 -3 c 128,-1,92
 376 -4 376 -4 369 -4 c 1,93,-1
 367 0 l 1,94,-1
 369 34 l 1,95,-1
 373 38 l 1,96,97
 389 38 389 38 403.5 39.5 c 128,-1,98
 418 41 418 41 426 49 c 0,99,100
 434 56 434 56 437.5 67 c 128,-1,101
 441 78 441 78 442 98 c 0,102,103
 442 110 442 110 443 129.5 c 128,-1,104
 444 149 444 149 444.5 169 c 128,-1,105
 445 189 445 189 445.5 206.5 c 128,-1,106
 446 224 446 224 446 233 c 0,107,108
 446 243 446 243 446 256.5 c 128,-1,109
 446 270 446 270 445 284 c 128,-1,110
 444 298 444 298 442.5 311 c 128,-1,111
 441 324 441 324 438 335 c 0,112,113
 429 361 429 361 407.5 374.5 c 128,-1,114
 386 388 386 388 359 388 c 0,115,116
 326 388 326 388 299 377 c 128,-1,117
 272 366 272 366 252.5 350 c 128,-1,118
 233 334 233 334 222.5 317 c 128,-1,119
 212 300 212 300 212 287 c 2,120,-1
 212 195 l 2,121,122
 212 173 212 173 212.5 159 c 128,-1,123
 213 145 213 145 213.5 135 c 128,-1,124
 214 125 214 125 214.5 116.5 c 128,-1,125
 215 108 215 108 216 98 c 0,126,127
 218 77 218 77 225 66.5 c 128,-1,128
 232 56 232 56 243 47 c 0,129,130
 251 40 251 40 261.5 39 c 128,-1,131
 272 38 272 38 284 38 c 1,132,-1
 289 33 l 1,133,-1
 291 0 l 1,134,-1
 289 -4 l 1,135,136
 282 -4 282 -4 267.5 -3 c 128,-1,137
 253 -2 253 -2 237.5 -1.5 c 128,-1,138
 222 -1 222 -1 207.5 -0.5 c 128,-1,139
 193 0 193 0 186 0 c 2,140,-1
 132 0 l 2,141,142
 125 0 125 0 110.5 -0.5 c 128,-1,143
 96 -1 96 -1 80.5 -1.5 c 128,-1,144
 65 -2 65 -2 50.5 -3 c 128,-1,145
 36 -4 36 -4 29 -4 c 1,146,-1
 28 0 l 1,147,-1
 30 34 l 1,148,-1
 33 38 l 1,149,150
 49 38 49 38 62.5 40 c 128,-1,151
 76 42 76 42 84 50 c 0,152,153
 91 57 91 57 96 67.5 c 128,-1,154
 101 78 101 78 103 98 c 0,155,156
 104 114 104 114 105 130.5 c 128,-1,157
 106 147 106 147 106 183 c 2,158,-1
 106 266 l 2,159,160
 106 287 106 287 106 301.5 c 128,-1,161
 106 316 106 316 105.5 327 c 128,-1,162
 105 338 105 338 104.5 347 c 128,-1,163
 104 356 104 356 103 366 c 0,164,165
 101 376 101 376 97 385 c 128,-1,166
 93 394 93 394 90 397 c 0,167,168
 80 410 80 410 65 412 c 128,-1,169
 50 414 50 414 34 414 c 1,170,-1
 30 418 l 1,171,-1
 30 452 l 1,0,-1
EndSplineSet
EndChar
StartChar: p
Encoding: 112 112 108
Width: 624
Flags: W
LayerCount: 2
Back
Fore
SplineSet
204 386 m 1,0,1
 236 434 236 434 280 454.5 c 128,-1,2
 324 475 324 475 371 475 c 0,3,4
 406 475 406 475 444.5 462.5 c 128,-1,5
 483 450 483 450 514.5 421.5 c 128,-1,6
 546 393 546 393 566.5 346.5 c 128,-1,7
 587 300 587 300 587 232 c 0,8,9
 587 186 587 186 573.5 142.5 c 128,-1,10
 560 99 560 99 532.5 65 c 128,-1,11
 505 31 505 31 463 10 c 128,-1,12
 421 -11 421 -11 364 -11 c 0,13,14
 310 -11 310 -11 268.5 16 c 128,-1,15
 227 43 227 43 198 87 c 1,16,-1
 195 85 l 1,17,18
 197 68 197 68 197.5 48.5 c 128,-1,19
 198 29 198 29 198 -8 c 0,20,21
 198 -41 198 -41 198 -64 c 128,-1,22
 198 -87 198 -87 198.5 -104 c 128,-1,23
 199 -121 199 -121 199.5 -133.5 c 128,-1,24
 200 -146 200 -146 201 -159 c 0,25,26
 203 -179 203 -179 205.5 -190 c 128,-1,27
 208 -201 208 -201 216 -207 c 0,28,29
 224 -215 224 -215 241 -217 c 128,-1,30
 258 -219 258 -219 274 -219 c 1,31,-1
 277 -222 l 1,32,-1
 279 -257 l 1,33,-1
 278 -260 l 1,34,35
 271 -260 271 -260 256 -259.5 c 128,-1,36
 241 -259 241 -259 225 -258.5 c 128,-1,37
 209 -258 209 -258 194 -257.5 c 128,-1,38
 179 -257 179 -257 172 -257 c 2,39,-1
 120 -257 l 2,40,41
 113 -257 113 -257 99 -257.5 c 128,-1,42
 85 -258 85 -258 69 -258.5 c 128,-1,43
 53 -259 53 -259 39 -259.5 c 128,-1,44
 25 -260 25 -260 18 -260 c 1,45,-1
 16 -257 l 1,46,-1
 18 -223 l 1,47,-1
 23 -219 l 1,48,49
 38 -219 38 -219 52.5 -217.5 c 128,-1,50
 67 -216 67 -216 75 -207 c 0,51,52
 83 -201 83 -201 85.5 -190 c 128,-1,53
 88 -179 88 -179 90 -159 c 0,54,55
 91 -142 91 -142 91.5 -127.5 c 128,-1,56
 92 -113 92 -113 92.5 -95 c 128,-1,57
 93 -77 93 -77 93.5 -51.5 c 128,-1,58
 94 -26 94 -26 94 15 c 2,59,-1
 94 186 l 2,60,61
 94 227 94 227 94 253.5 c 128,-1,62
 94 280 94 280 93.5 299 c 128,-1,63
 93 318 93 318 92 333 c 128,-1,64
 91 348 91 348 90 366 c 0,65,66
 89 377 89 377 85 385.5 c 128,-1,67
 81 394 81 394 78 397 c 0,68,69
 69 409 69 409 54 411.5 c 128,-1,70
 39 414 39 414 22 414 c 1,71,-1
 18 418 l 1,72,-1
 18 452 l 1,73,-1
 22 455 l 1,74,-1
 40 455 l 2,75,76
 52 455 52 455 68 455 c 128,-1,77
 84 455 84 455 101.5 455.5 c 128,-1,78
 119 456 119 456 135.5 456.5 c 128,-1,79
 152 457 152 457 165 459 c 2,80,-1
 200 464 l 1,81,-1
 206 445 l 1,82,83
 203 438 203 438 202 419.5 c 128,-1,84
 201 401 201 401 201 388 c 1,85,-1
 204 386 l 1,0,1
471 235 m 0,86,87
 471 265 471 265 463.5 293.5 c 128,-1,88
 456 322 456 322 441 344.5 c 128,-1,89
 426 367 426 367 402.5 380.5 c 128,-1,90
 379 394 379 394 347 394 c 0,91,92
 313 394 313 394 286.5 382.5 c 128,-1,93
 260 371 260 371 241.5 354.5 c 128,-1,94
 223 338 223 338 212.5 320 c 128,-1,95
 202 302 202 302 201 289 c 2,96,-1
 201 178 l 2,97,98
 203 165 203 165 212.5 146.5 c 128,-1,99
 222 128 222 128 239.5 110.5 c 128,-1,100
 257 93 257 93 283 81 c 128,-1,101
 309 69 309 69 345 69 c 0,102,103
 378 69 378 69 402 83.5 c 128,-1,104
 426 98 426 98 441.5 121 c 128,-1,105
 457 144 457 144 464 174 c 128,-1,106
 471 204 471 204 471 235 c 0,86,87
EndSplineSet
EndChar
StartChar: q
Encoding: 113 113 117
Width: 620
Flags: W
LayerCount: 2
Back
Fore
SplineSet
423 388 m 1,0,1
 423 401 423 401 420 419.5 c 128,-1,2
 417 438 417 438 414 445 c 1,3,-1
 420 464 l 1,4,-1
 455 459 l 2,5,6
 468 457 468 457 484.5 456.5 c 128,-1,7
 501 456 501 456 518 455.5 c 128,-1,8
 535 455 535 455 551.5 455 c 128,-1,9
 568 455 568 455 580 455 c 2,10,-1
 598 455 l 1,11,-1
 602 452 l 1,12,-1
 602 418 l 1,13,-1
 598 414 l 1,14,15
 581 414 581 414 566 411.5 c 128,-1,16
 551 409 551 409 542 397 c 0,17,18
 539 394 539 394 535 385.5 c 128,-1,19
 531 377 531 377 530 366 c 0,20,21
 529 348 529 348 528 333 c 128,-1,22
 527 318 527 318 526.5 299 c 128,-1,23
 526 280 526 280 526 253.5 c 128,-1,24
 526 227 526 227 526 186 c 2,25,-1
 526 15 l 2,26,27
 526 -26 526 -26 526.5 -51.5 c 128,-1,28
 527 -77 527 -77 527.5 -95 c 128,-1,29
 528 -113 528 -113 528.5 -127.5 c 128,-1,30
 529 -142 529 -142 530 -159 c 0,31,32
 532 -179 532 -179 534.5 -190 c 128,-1,33
 537 -201 537 -201 545 -207 c 0,34,35
 553 -216 553 -216 567.5 -217.5 c 128,-1,36
 582 -219 582 -219 597 -219 c 1,37,-1
 602 -223 l 1,38,-1
 604 -257 l 1,39,-1
 602 -260 l 1,40,41
 595 -260 595 -260 581 -259.5 c 128,-1,42
 567 -259 567 -259 551 -258.5 c 128,-1,43
 535 -258 535 -258 521 -257.5 c 128,-1,44
 507 -257 507 -257 500 -257 c 2,45,-1
 448 -257 l 2,46,47
 441 -257 441 -257 426.5 -257.5 c 128,-1,48
 412 -258 412 -258 396.5 -258.5 c 128,-1,49
 381 -259 381 -259 366.5 -259.5 c 128,-1,50
 352 -260 352 -260 345 -260 c 1,51,-1
 344 -257 l 1,52,-1
 346 -222 l 1,53,-1
 349 -219 l 1,54,55
 365 -219 365 -219 380.5 -217 c 128,-1,56
 396 -215 396 -215 404 -207 c 0,57,58
 412 -201 412 -201 414.5 -190 c 128,-1,59
 417 -179 417 -179 419 -159 c 0,60,61
 420 -146 420 -146 420.5 -133.5 c 128,-1,62
 421 -121 421 -121 421.5 -104 c 128,-1,63
 422 -87 422 -87 422 -64 c 128,-1,64
 422 -41 422 -41 422 -8 c 0,65,66
 422 29 422 29 422.5 48.5 c 128,-1,67
 423 68 423 68 425 85 c 1,68,-1
 422 87 l 1,69,70
 393 43 393 43 351.5 16 c 128,-1,71
 310 -11 310 -11 256 -11 c 0,72,73
 199 -11 199 -11 157.5 9 c 128,-1,74
 116 29 116 29 89.5 62 c 128,-1,75
 63 95 63 95 50 137.5 c 128,-1,76
 37 180 37 180 37 226 c 0,77,78
 37 294 37 294 58 341.5 c 128,-1,79
 79 389 79 389 111 418.5 c 128,-1,80
 143 448 143 448 181.5 461.5 c 128,-1,81
 220 475 220 475 255 475 c 0,82,83
 302 475 302 475 345 454.5 c 128,-1,84
 388 434 388 434 420 386 c 1,85,-1
 423 388 l 1,0,1
151 228 m 0,86,87
 151 198 151 198 158.5 169.5 c 128,-1,88
 166 141 166 141 181 118.5 c 128,-1,89
 196 96 196 96 219.5 82.5 c 128,-1,90
 243 69 243 69 275 69 c 0,91,92
 309 69 309 69 335.5 80.5 c 128,-1,93
 362 92 362 92 380.5 108.5 c 128,-1,94
 399 125 399 125 409.5 143 c 128,-1,95
 420 161 420 161 421 174 c 2,96,-1
 421 285 l 2,97,98
 419 298 419 298 409.5 316.5 c 128,-1,99
 400 335 400 335 382.5 352 c 128,-1,100
 365 369 365 369 339 381.5 c 128,-1,101
 313 394 313 394 277 394 c 0,102,103
 244 394 244 394 220 379.5 c 128,-1,104
 196 365 196 365 180.5 342 c 128,-1,105
 165 319 165 319 158 289 c 128,-1,106
 151 259 151 259 151 228 c 0,86,87
EndSplineSet
EndChar
StartChar: r
Encoding: 114 114 124
Width: 440
Flags: W
LayerCount: 2
Back
Fore
SplineSet
203 354 m 1,0,1
 213 373 213 373 225.5 394 c 128,-1,2
 238 415 238 415 254 433 c 128,-1,3
 270 451 270 451 290.5 463 c 128,-1,4
 311 475 311 475 337 475 c 0,5,6
 345 475 345 475 356.5 473.5 c 128,-1,7
 368 472 368 472 379.5 469 c 128,-1,8
 391 466 391 466 402 462 c 128,-1,9
 413 458 413 458 419 453 c 2,10,-1
 426 447 l 1,11,-1
 414 339 l 1,12,-1
 371 339 l 1,13,14
 368 351 368 351 355.5 363.5 c 128,-1,15
 343 376 343 376 317 376 c 0,16,17
 294 376 294 376 275 364.5 c 128,-1,18
 256 353 256 353 242 336 c 128,-1,19
 228 319 228 319 220 299.5 c 128,-1,20
 212 280 212 280 212 264 c 2,21,-1
 212 195 l 2,22,23
 212 157 212 157 212.5 138 c 128,-1,24
 213 119 213 119 214 105 c 0,25,26
 216 83 216 83 219.5 69.5 c 128,-1,27
 223 56 223 56 231 49 c 0,28,29
 235 45 235 45 243.5 42.5 c 128,-1,30
 252 40 252 40 261 39 c 128,-1,31
 270 38 270 38 278.5 38 c 128,-1,32
 287 38 287 38 292 38 c 2,33,-1
 297 33 l 1,34,-1
 299 0 l 1,35,-1
 297 -4 l 1,36,37
 291 -4 291 -4 277 -3 c 128,-1,38
 263 -2 263 -2 247 -1.5 c 128,-1,39
 231 -1 231 -1 217 -0.5 c 128,-1,40
 203 0 203 0 197 0 c 2,41,-1
 133 0 l 2,42,43
 126 0 126 0 111.5 -0.5 c 128,-1,44
 97 -1 97 -1 81 -1.5 c 128,-1,45
 65 -2 65 -2 50.5 -3 c 128,-1,46
 36 -4 36 -4 29 -4 c 1,47,-1
 28 0 l 1,48,-1
 30 34 l 1,49,-1
 33 38 l 1,50,51
 50 38 50 38 65 39.5 c 128,-1,52
 80 41 80 41 88 49 c 0,53,54
 96 56 96 56 99.5 67 c 128,-1,55
 103 78 103 78 105 105 c 0,56,57
 106 117 106 117 106 137 c 128,-1,58
 106 157 106 157 106 193 c 2,59,-1
 106 266 l 2,60,61
 106 287 106 287 106 301.5 c 128,-1,62
 106 316 106 316 105.5 327 c 128,-1,63
 105 338 105 338 104.5 347 c 128,-1,64
 104 356 104 356 103 366 c 0,65,66
 101 376 101 376 97 385 c 128,-1,67
 93 394 93 394 90 397 c 0,68,69
 80 410 80 410 65 412 c 128,-1,70
 50 414 50 414 34 414 c 1,71,-1
 30 418 l 1,72,-1
 30 452 l 1,73,-1
 34 455 l 1,74,-1
 52 455 l 2,75,76
 74 455 74 455 109 455.5 c 128,-1,77
 144 456 144 456 170 459 c 2,78,-1
 205 464 l 1,79,-1
 211 445 l 1,80,81
 205 426 205 426 202.5 402 c 128,-1,82
 200 378 200 378 200 355 c 1,83,-1
 203 354 l 1,0,1
EndSplineSet
EndChar
StartChar: s
Encoding: 115 115 127
Width: 427
Flags: W
LayerCount: 2
Back
Fore
SplineSet
263 280 m 2,0,1
 305 270 305 270 331 253 c 128,-1,2
 357 236 357 236 370.5 216 c 128,-1,3
 384 196 384 196 388.5 175 c 128,-1,4
 393 154 393 154 393 136 c 0,5,6
 393 104 393 104 380 77 c 128,-1,7
 367 50 367 50 342.5 30.5 c 128,-1,8
 318 11 318 11 283 0 c 128,-1,9
 248 -11 248 -11 204 -11 c 0,10,11
 158 -11 158 -11 118 -1.5 c 128,-1,12
 78 8 78 8 55 21 c 1,13,-1
 43 34 l 1,14,-1
 58 157 l 1,15,-1
 91 157 l 1,16,-1
 94 153 l 1,17,18
 94 109 94 109 121 83.5 c 128,-1,19
 148 58 148 58 201 58 c 0,20,21
 229 58 229 58 248.5 63.5 c 128,-1,22
 268 69 268 69 279.5 77.5 c 128,-1,23
 291 86 291 86 296 96.5 c 128,-1,24
 301 107 301 107 301 116 c 0,25,26
 301 123 301 123 300 131 c 128,-1,27
 299 139 299 139 294 147.5 c 128,-1,28
 289 156 289 156 279 164.5 c 128,-1,29
 269 173 269 173 250 179 c 2,30,-1
 154 203 l 2,31,32
 121 211 121 211 100 226 c 128,-1,33
 79 241 79 241 66.5 259.5 c 128,-1,34
 54 278 54 278 49.5 299 c 128,-1,35
 45 320 45 320 45 341 c 0,36,37
 45 374 45 374 58 399.5 c 128,-1,38
 71 425 71 425 93.5 441.5 c 128,-1,39
 116 458 116 458 146 466.5 c 128,-1,40
 176 475 176 475 211 475 c 0,41,42
 255 475 255 475 292 464.5 c 128,-1,43
 329 454 329 454 349 442 c 1,44,-1
 362 430 l 1,45,-1
 351 333 l 1,46,-1
 320 333 l 1,47,-1
 316 336 l 1,48,49
 316 358 316 358 304.5 372.5 c 128,-1,50
 293 387 293 387 276.5 395.5 c 128,-1,51
 260 404 260 404 242 407.5 c 128,-1,52
 224 411 224 411 210 411 c 0,53,54
 170 411 170 411 153 394 c 128,-1,55
 136 377 136 377 136 356 c 0,56,57
 136 338 136 338 147.5 321 c 128,-1,58
 159 304 159 304 192 296 c 2,59,-1
 263 280 l 2,0,1
EndSplineSet
EndChar
StartChar: t
Encoding: 116 116 134
Width: 337
Flags: W
LayerCount: 2
Back
Fore
SplineSet
308 400 m 1,0,-1
 198 400 l 1,1,2
 198 342 198 342 197.5 292.5 c 128,-1,3
 197 243 197 243 197 206.5 c 128,-1,4
 197 170 197 170 196.5 147 c 128,-1,5
 196 124 196 124 196 119 c 0,6,7
 196 80 196 80 211 67 c 128,-1,8
 226 54 226 54 246 54 c 0,9,10
 261 54 261 54 280 57 c 128,-1,11
 299 60 299 60 312 65 c 1,12,-1
 318 54 l 1,13,-1
 308 21 l 1,14,15
 281 6 281 6 252.5 -2.5 c 128,-1,16
 224 -11 224 -11 200 -11 c 0,17,18
 139 -11 139 -11 113 17 c 128,-1,19
 87 45 87 45 87 89 c 0,20,21
 87 98 87 98 88 124.5 c 128,-1,22
 89 151 89 151 90 191.5 c 128,-1,23
 91 232 91 232 92 285 c 128,-1,24
 93 338 93 338 93 400 c 1,25,-1
 41 400 l 1,26,-1
 37 405 l 1,27,-1
 37 449 l 1,28,-1
 41 453 l 1,29,-1
 93 467 l 1,30,31
 93 499 93 499 91.5 532.5 c 128,-1,32
 90 566 90 566 88 598 c 1,33,-1
 95 604 l 1,34,-1
 109 605 l 2,35,36
 116 605 116 605 128.5 606 c 128,-1,37
 141 607 141 607 155 608.5 c 128,-1,38
 169 610 169 610 181.5 612 c 128,-1,39
 194 614 194 614 200 616 c 1,40,-1
 209 612 l 1,41,42
 204 587 204 587 201 545.5 c 128,-1,43
 198 504 198 504 198 467 c 1,44,-1
 308 473 l 1,45,-1
 313 469 l 1,46,-1
 313 405 l 1,47,-1
 308 400 l 1,0,-1
EndSplineSet
EndChar
StartChar: u
Encoding: 117 117 142
Width: 625
Flags: W
LayerCount: 2
Back
Fore
SplineSet
423 86 m 1,0,1
 396 43 396 43 356 16 c 128,-1,2
 316 -11 316 -11 255 -11 c 0,3,4
 227 -11 227 -11 200.5 -4 c 128,-1,5
 174 3 174 3 152.5 18 c 128,-1,6
 131 33 131 33 115 57.5 c 128,-1,7
 99 82 99 82 92 117 c 0,8,9
 90 126 90 126 88.5 137 c 128,-1,10
 87 148 87 148 86.5 165.5 c 128,-1,11
 86 183 86 183 85.5 208.5 c 128,-1,12
 85 234 85 234 85 272 c 2,13,-1
 85 362 l 2,14,15
 85 373 85 373 80 384 c 128,-1,16
 75 395 75 395 72 398 c 0,17,18
 62 410 62 410 47 412 c 128,-1,19
 32 414 32 414 16 414 c 1,20,-1
 13 418 l 1,21,-1
 13 452 l 1,22,-1
 16 455 l 1,23,-1
 65 455 l 2,24,25
 88 455 88 455 114 455.5 c 128,-1,26
 140 456 140 456 160 459 c 2,27,-1
 195 464 l 1,28,-1
 201 445 l 2,29,30
 199 441 199 441 198 430.5 c 128,-1,31
 197 420 197 420 196 408 c 128,-1,32
 195 396 195 396 195 385 c 128,-1,33
 195 374 195 374 195 368 c 0,34,35
 195 355 195 355 194.5 336.5 c 128,-1,36
 194 318 194 318 193.5 298.5 c 128,-1,37
 193 279 193 279 192.5 261 c 128,-1,38
 192 243 192 243 192 231 c 0,39,40
 192 205 192 205 194 178.5 c 128,-1,41
 196 152 196 152 202 130 c 0,42,43
 212 95 212 95 232.5 78.5 c 128,-1,44
 253 62 253 62 290 62 c 0,45,46
 320 62 320 62 343.5 72 c 128,-1,47
 367 82 367 82 384 96 c 128,-1,48
 401 110 401 110 412 126.5 c 128,-1,49
 423 143 423 143 426 156 c 2,50,-1
 426 256 l 2,51,52
 426 302 426 302 424.5 327 c 128,-1,53
 423 352 423 352 421 366 c 0,54,55
 419 379 419 379 415.5 387 c 128,-1,56
 412 395 412 395 409 398 c 0,57,58
 398 410 398 410 381 412 c 128,-1,59
 364 414 364 414 354 414 c 1,60,-1
 350 418 l 1,61,-1
 350 452 l 1,62,-1
 354 455 l 1,63,-1
 372 455 l 2,64,65
 382 455 382 455 398.5 455 c 128,-1,66
 415 455 415 455 433 455.5 c 128,-1,67
 451 456 451 456 468 456.5 c 128,-1,68
 485 457 485 457 497 459 c 2,69,-1
 532 464 l 1,70,-1
 538 445 l 1,71,72
 533 416 533 416 531 369 c 0,73,74
 530 344 530 344 529.5 328.5 c 128,-1,75
 529 313 529 313 529 303 c 128,-1,76
 529 293 529 293 529 287.5 c 128,-1,77
 529 282 529 282 529 277 c 2,78,-1
 529 195 l 2,79,80
 529 140 529 140 532 98 c 0,81,82
 534 79 534 79 537 67.5 c 128,-1,83
 540 56 540 56 548 49 c 0,84,85
 557 41 557 41 569 39.5 c 128,-1,86
 581 38 581 38 598 38 c 1,87,-1
 602 34 l 1,88,-1
 604 0 l 1,89,-1
 602 -3 l 1,90,91
 583 -1 583 -1 565 -0.5 c 128,-1,92
 547 0 547 0 523 0 c 256,93,94
 499 0 499 0 472 -0.5 c 128,-1,95
 445 -1 445 -1 420 -3 c 1,96,-1
 414 17 l 1,97,98
 417 28 417 28 420.5 46.5 c 128,-1,99
 424 65 424 65 426 84 c 1,100,-1
 423 86 l 1,0,1
EndSplineSet
EndChar
StartChar: v
Encoding: 118 118 145
Width: 570
Flags: W
LayerCount: 2
Back
Fore
SplineSet
237 -5 m 1,0,-1
 227 0 l 1,1,-1
 158 160 l 2,2,3
 150 178 150 178 143.5 192 c 128,-1,4
 137 206 137 206 128 225 c 128,-1,5
 119 244 119 244 107 271 c 128,-1,6
 95 298 95 298 77 342 c 0,7,8
 70 359 70 359 67 365.5 c 128,-1,9
 64 372 64 372 59 380 c 0,10,11
 49 396 49 396 36.5 405 c 128,-1,12
 24 414 24 414 3 416 c 1,13,-1
 -3 421 l 1,14,-1
 -3 455 l 1,15,-1
 1 459 l 1,16,17
 18 457 18 457 37 455 c 128,-1,18
 56 453 56 453 72 453 c 2,19,-1
 151 453 l 2,20,21
 166 453 166 453 187.5 455 c 128,-1,22
 209 457 209 457 227 459 c 1,23,-1
 231 455 l 1,24,-1
 231 423 l 1,25,-1
 227 419 l 1,26,27
 208 417 208 417 194.5 407.5 c 128,-1,28
 181 398 181 398 181 381 c 0,29,30
 181 369 181 369 188.5 343.5 c 128,-1,31
 196 318 196 318 206.5 289 c 128,-1,32
 217 260 217 260 227.5 232 c 128,-1,33
 238 204 238 204 244 188 c 2,34,-1
 288 68 l 1,35,-1
 338 189 l 2,36,37
 344 204 344 204 354 229 c 128,-1,38
 364 254 364 254 374 281.5 c 128,-1,39
 384 309 384 309 391 334.5 c 128,-1,40
 398 360 398 360 398 376 c 0,41,42
 398 402 398 402 384 409 c 128,-1,43
 370 416 370 416 351 419 c 1,44,-1
 347 423 l 1,45,-1
 347 455 l 1,46,-1
 351 459 l 1,47,48
 370 455 370 455 387 454 c 128,-1,49
 404 453 404 453 419 453 c 2,50,-1
 500 453 l 2,51,52
 517 453 517 453 533.5 455 c 128,-1,53
 550 457 550 457 569 459 c 1,54,-1
 573 455 l 1,55,-1
 573 421 l 1,56,-1
 567 416 l 1,57,58
 550 414 550 414 537.5 406.5 c 128,-1,59
 525 399 525 399 514 380 c 0,60,61
 502 360 502 360 483.5 322.5 c 128,-1,62
 465 285 465 285 446.5 245.5 c 128,-1,63
 428 206 428 206 413.5 172.5 c 128,-1,64
 399 139 399 139 394 128 c 2,65,-1
 340 0 l 1,66,-1
 237 -5 l 1,0,-1
EndSplineSet
EndChar
StartChar: w
Encoding: 119 119 146
Width: 873
Flags: W
LayerCount: 2
Back
Fore
SplineSet
550 -5 m 1,0,-1
 538 -1 l 1,1,-1
 479 162 l 2,2,3
 467 194 467 194 457.5 222 c 128,-1,4
 448 250 448 250 435 282 c 1,5,6
 428 262 428 262 421 242 c 128,-1,7
 414 222 414 222 408 205 c 128,-1,8
 402 188 402 188 397.5 175 c 128,-1,9
 393 162 393 162 392 158 c 2,10,-1
 341 0 l 1,11,-1
 238 -5 l 1,12,-1
 228 0 l 1,13,-1
 158 160 l 2,14,15
 153 170 153 170 144.5 190.5 c 128,-1,16
 136 211 136 211 125.5 236 c 128,-1,17
 115 261 115 261 103 289 c 128,-1,18
 91 317 91 317 79 342 c 0,19,20
 69 363 69 363 59 380 c 0,21,22
 49 396 49 396 36.5 405 c 128,-1,23
 24 414 24 414 3 416 c 1,24,-1
 -3 421 l 1,25,-1
 -3 455 l 1,26,-1
 1 459 l 1,27,28
 18 457 18 457 37 455 c 128,-1,29
 56 453 56 453 72 453 c 2,30,-1
 151 453 l 2,31,32
 166 453 166 453 187.5 455 c 128,-1,33
 209 457 209 457 227 459 c 1,34,-1
 231 455 l 1,35,-1
 231 423 l 1,36,-1
 227 419 l 1,37,38
 208 417 208 417 194.5 407.5 c 128,-1,39
 181 398 181 398 181 380 c 0,40,41
 181 368 181 368 189.5 339 c 128,-1,42
 198 310 198 310 209 278 c 128,-1,43
 220 246 220 246 230.5 217.5 c 128,-1,44
 241 189 241 189 245 179 c 2,45,-1
 289 74 l 1,46,-1
 327 179 l 2,47,48
 337 206 337 206 346 236 c 128,-1,49
 355 266 355 266 361.5 293.5 c 128,-1,50
 368 321 368 321 372 344 c 128,-1,51
 376 367 376 367 376 380 c 0,52,53
 376 391 376 391 370 398 c 128,-1,54
 364 405 364 405 356 409 c 128,-1,55
 348 413 348 413 339.5 414.5 c 128,-1,56
 331 416 331 416 325 416 c 2,57,-1
 319 421 l 1,58,-1
 319 455 l 1,59,-1
 323 459 l 1,60,61
 340 457 340 457 359 455 c 128,-1,62
 378 453 378 453 394 453 c 2,63,-1
 473 453 l 2,64,65
 488 453 488 453 509.5 455 c 128,-1,66
 531 457 531 457 549 459 c 1,67,-1
 553 455 l 1,68,-1
 553 423 l 1,69,-1
 549 419 l 1,70,71
 530 417 530 417 516.5 407.5 c 128,-1,72
 503 398 503 398 503 380 c 0,73,74
 503 368 503 368 511 339 c 128,-1,75
 519 310 519 310 529 278 c 128,-1,76
 539 246 539 246 548.5 217.5 c 128,-1,77
 558 189 558 189 562 179 c 2,78,-1
 601 74 l 1,79,-1
 641 179 l 2,80,81
 648 197 648 197 658.5 223 c 128,-1,82
 669 249 669 249 678.5 277 c 128,-1,83
 688 305 688 305 694.5 332 c 128,-1,84
 701 359 701 359 701 380 c 0,85,86
 701 402 701 402 686 409.5 c 128,-1,87
 671 417 671 417 654 419 c 1,88,-1
 650 423 l 1,89,-1
 650 455 l 1,90,-1
 654 459 l 1,91,92
 673 455 673 455 690 454 c 128,-1,93
 707 453 707 453 722 453 c 2,94,-1
 803 453 l 2,95,96
 820 453 820 453 836.5 455 c 128,-1,97
 853 457 853 457 872 459 c 1,98,-1
 876 455 l 1,99,-1
 876 421 l 1,100,-1
 870 416 l 1,101,102
 853 414 853 414 840.5 405.5 c 128,-1,103
 828 397 828 397 817 380 c 0,104,105
 800 353 800 353 781.5 315 c 128,-1,106
 763 277 763 277 746.5 239.5 c 128,-1,107
 730 202 730 202 717.5 171 c 128,-1,108
 705 140 705 140 701 128 c 2,109,-1
 653 0 l 1,110,-1
 550 -5 l 1,0,-1
EndSplineSet
EndChar
StartChar: x
Encoding: 120 120 147
Width: 561
Flags: W
LayerCount: 2
Back
Fore
SplineSet
269 180 m 1,0,-1
 214 102 l 2,1,2
 207 91 207 91 200.5 81 c 128,-1,3
 194 71 194 71 194 61 c 0,4,5
 194 52 194 52 202 45 c 128,-1,6
 210 38 210 38 230 34 c 1,7,-1
 234 30 l 1,8,-1
 234 -2 l 1,9,-1
 230 -5 l 1,10,11
 209 -2 209 -2 196 -1 c 128,-1,12
 183 0 183 0 166 0 c 2,13,-1
 86 0 l 2,14,15
 69 0 69 0 52.5 -2 c 128,-1,16
 36 -4 36 -4 16 -6 c 1,17,-1
 12 -2 l 1,18,-1
 12 32 l 1,19,-1
 17 38 l 1,20,21
 54 38 54 38 80.5 57.5 c 128,-1,22
 107 77 107 77 130 109 c 2,23,-1
 223 235 l 1,24,-1
 102 380 l 2,25,26
 89 395 89 395 74 404.5 c 128,-1,27
 59 414 59 414 36 416 c 1,28,-1
 30 421 l 1,29,-1
 30 455 l 1,30,-1
 34 459 l 1,31,32
 51 457 51 457 71.5 455 c 128,-1,33
 92 453 92 453 109 453 c 2,34,-1
 187 453 l 2,35,36
 203 453 203 453 223.5 455 c 128,-1,37
 244 457 244 457 264 459 c 1,38,-1
 268 455 l 1,39,-1
 268 423 l 1,40,-1
 264 419 l 1,41,42
 239 414 239 414 227.5 408 c 128,-1,43
 216 402 216 402 216 391 c 0,44,45
 216 377 216 377 242 337 c 1,46,-1
 288 282 l 1,47,48
 323 337 323 337 337 359 c 128,-1,49
 351 381 351 381 351 386 c 0,50,51
 351 405 351 405 343 410 c 128,-1,52
 335 415 335 415 312 419 c 1,53,-1
 308 423 l 1,54,-1
 308 455 l 1,55,-1
 312 458 l 1,56,57
 333 455 333 455 346 454 c 128,-1,58
 359 453 359 453 376 453 c 2,59,-1
 456 453 l 2,60,61
 473 453 473 453 489.5 455 c 128,-1,62
 506 457 506 457 526 459 c 1,63,-1
 530 455 l 1,64,-1
 530 421 l 1,65,-1
 524 419 l 1,66,67
 487 419 487 419 460.5 397.5 c 128,-1,68
 434 376 434 376 412 344 c 2,69,-1
 334 228 l 1,70,-1
 457 84 l 2,71,72
 469 70 469 70 492.5 56.5 c 128,-1,73
 516 43 516 43 548 38 c 1,74,-1
 554 33 l 1,75,-1
 554 -1 l 1,76,-1
 550 -5 l 1,77,78
 533 -3 533 -3 512.5 -1 c 128,-1,79
 492 1 492 1 475 1 c 2,80,-1
 397 1 l 2,81,82
 381 1 381 1 360 -1 c 128,-1,83
 339 -3 339 -3 319 -5 c 1,84,-1
 315 -1 l 1,85,-1
 315 31 l 1,86,-1
 319 35 l 1,87,88
 353 38 353 38 353 63 c 0,89,90
 353 81 353 81 334 103 c 2,91,-1
 269 180 l 1,0,-1
EndSplineSet
EndChar
StartChar: y
Encoding: 121 121 148
Width: 570
Flags: W
LayerCount: 2
Back
Fore
SplineSet
297 -116 m 2,0,1
 285 -146 285 -146 265.5 -170.5 c 128,-1,2
 246 -195 246 -195 221 -213 c 128,-1,3
 196 -231 196 -231 168 -242.5 c 128,-1,4
 140 -254 140 -254 111 -258 c 0,5,6
 103 -260 103 -260 92.5 -260 c 128,-1,7
 82 -260 82 -260 62 -260 c 1,8,-1
 55 -258 l 1,9,-1
 52 -207 l 1,10,-1
 56 -202 l 1,11,-1
 70 -202 l 2,12,13
 82 -202 82 -202 96 -199.5 c 128,-1,14
 110 -197 110 -197 123 -190 c 0,15,16
 152 -176 152 -176 176.5 -150 c 128,-1,17
 201 -124 201 -124 210 -100 c 2,18,-1
 238 -25 l 1,19,-1
 158 158 l 2,20,21
 153 169 153 169 142 197 c 128,-1,22
 131 225 131 225 117 258.5 c 128,-1,23
 103 292 103 292 87.5 325 c 128,-1,24
 72 358 72 358 59 380 c 0,25,26
 49 396 49 396 36.5 405 c 128,-1,27
 24 414 24 414 3 416 c 1,28,-1
 -3 421 l 1,29,-1
 -3 455 l 1,30,-1
 1 459 l 1,31,32
 18 457 18 457 37 455 c 128,-1,33
 56 453 56 453 72 453 c 2,34,-1
 151 453 l 2,35,36
 166 453 166 453 187.5 455 c 128,-1,37
 209 457 209 457 227 459 c 1,38,-1
 231 455 l 1,39,-1
 231 423 l 1,40,-1
 227 419 l 1,41,42
 208 417 208 417 194.5 407.5 c 128,-1,43
 181 398 181 398 181 380 c 0,44,45
 181 368 181 368 189.5 340.5 c 128,-1,46
 198 313 198 313 209.5 282 c 128,-1,47
 221 251 221 251 231.5 224.5 c 128,-1,48
 242 198 242 198 245 189 c 2,49,-1
 288 68 l 1,50,-1
 338 189 l 2,51,52
 345 205 345 205 355 229.5 c 128,-1,53
 365 254 365 254 374.5 281 c 128,-1,54
 384 308 384 308 391 334 c 128,-1,55
 398 360 398 360 398 380 c 0,56,57
 398 402 398 402 383 409.5 c 128,-1,58
 368 417 368 417 351 419 c 1,59,-1
 347 423 l 1,60,-1
 347 455 l 1,61,-1
 351 459 l 1,62,63
 370 455 370 455 387 454 c 128,-1,64
 404 453 404 453 419 453 c 2,65,-1
 500 453 l 2,66,67
 517 453 517 453 533.5 455 c 128,-1,68
 550 457 550 457 569 459 c 1,69,-1
 573 455 l 1,70,-1
 573 421 l 1,71,-1
 567 416 l 1,72,73
 550 414 550 414 537.5 406 c 128,-1,74
 525 398 525 398 514 380 c 0,75,76
 499 356 499 356 480.5 318.5 c 128,-1,77
 462 281 462 281 444.5 243 c 128,-1,78
 427 205 427 205 413 174 c 128,-1,79
 399 143 399 143 395 131 c 2,80,-1
 297 -116 l 2,0,1
EndSplineSet
EndChar
StartChar: z
Encoding: 122 122 149
Width: 496
Flags: W
LayerCount: 2
Back
Fore
SplineSet
43 320 m 1,0,-1
 51 455 l 1,1,-1
 54 461 l 1,2,3
 96 459 96 459 135 457.5 c 128,-1,4
 174 456 174 456 205.5 455.5 c 128,-1,5
 237 455 237 455 259.5 455 c 128,-1,6
 282 455 282 455 291 455 c 2,7,-1
 376 455 l 2,8,9
 385 455 385 455 405.5 456.5 c 128,-1,10
 426 458 426 458 443 461 c 1,11,-1
 449 453 l 1,12,-1
 446 437 l 1,13,14
 435 424 435 424 416.5 399.5 c 128,-1,15
 398 375 398 375 376.5 343 c 128,-1,16
 355 311 355 311 331.5 274.5 c 128,-1,17
 308 238 308 238 285.5 202.5 c 128,-1,18
 263 167 263 167 244.5 134.5 c 128,-1,19
 226 102 226 102 214 78 c 1,20,-1
 218 74 l 1,21,-1
 249 74 l 2,22,23
 301 74 301 74 330.5 76 c 128,-1,24
 360 78 360 78 376.5 85.5 c 128,-1,25
 393 93 393 93 400.5 108.5 c 128,-1,26
 408 124 408 124 417 151 c 1,27,-1
 420 155 l 1,28,-1
 462 155 l 1,29,-1
 446 6 l 1,30,-1
 441 -4 l 2,31,32
 438 -4 438 -4 422 -3.5 c 128,-1,33
 406 -3 406 -3 382.5 -3 c 128,-1,34
 359 -3 359 -3 331.5 -2 c 128,-1,35
 304 -1 304 -1 279.5 -1 c 128,-1,36
 255 -1 255 -1 237 -0.5 c 128,-1,37
 219 0 219 0 213 0 c 2,38,-1
 181 0 l 2,39,40
 170 0 170 0 151.5 -0.5 c 128,-1,41
 133 -1 133 -1 112 -1.5 c 128,-1,42
 91 -2 91 -2 71 -2.5 c 128,-1,43
 51 -3 51 -3 39 -4 c 1,44,-1
 32 4 l 1,45,-1
 32 18 l 1,46,47
 45 31 45 31 64.5 57 c 128,-1,48
 84 83 84 83 107 116 c 128,-1,49
 130 149 130 149 154.5 186.5 c 128,-1,50
 179 224 179 224 200.5 260 c 128,-1,51
 222 296 222 296 238.5 328.5 c 128,-1,52
 255 361 255 361 264 384 c 1,53,-1
 260 388 l 1,54,-1
 185 388 l 2,55,56
 155 388 155 388 137.5 384.5 c 128,-1,57
 120 381 120 381 110.5 372.5 c 128,-1,58
 101 364 101 364 97.5 351 c 128,-1,59
 94 338 94 338 91 319 c 1,60,-1
 87 315 l 1,61,-1
 50 315 l 1,62,-1
 43 320 l 1,0,-1
EndSplineSet
EndChar
StartChar: braceleft
Encoding: 123 123 44
Width: 290
Flags: W
LayerCount: 2
Back
Fore
SplineSet
253 729 m 1,0,1
 234 727 234 727 223 719 c 128,-1,2
 212 711 212 711 206.5 698.5 c 128,-1,3
 201 686 201 686 199.5 670.5 c 128,-1,4
 198 655 198 655 198 637 c 0,5,6
 198 628 198 628 198.5 609 c 128,-1,7
 199 590 199 590 199 569 c 128,-1,8
 199 548 199 548 199.5 527.5 c 128,-1,9
 200 507 200 507 200 494 c 0,10,11
 200 463 200 463 194 435.5 c 128,-1,12
 188 408 188 408 172.5 386 c 128,-1,13
 157 364 157 364 131 348.5 c 128,-1,14
 105 333 105 333 66 327 c 1,15,16
 105 321 105 321 131 305.5 c 128,-1,17
 157 290 157 290 172.5 268 c 128,-1,18
 188 246 188 246 194 218.5 c 128,-1,19
 200 191 200 191 200 160 c 0,20,21
 200 147 200 147 199.5 126.5 c 128,-1,22
 199 106 199 106 199 85 c 128,-1,23
 199 64 199 64 198.5 45 c 128,-1,24
 198 26 198 26 198 17 c 0,25,26
 198 -1 198 -1 199.5 -16.5 c 128,-1,27
 201 -32 201 -32 206.5 -44.5 c 128,-1,28
 212 -57 212 -57 223 -65 c 128,-1,29
 234 -73 234 -73 253 -75 c 1,30,-1
 251 -106 l 1,31,32
 201 -106 201 -106 171 -95.5 c 128,-1,33
 141 -85 141 -85 124.5 -66.5 c 128,-1,34
 108 -48 108 -48 102.5 -22 c 128,-1,35
 97 4 97 4 97 36 c 0,36,37
 97 47 97 47 97.5 66 c 128,-1,38
 98 85 98 85 98 106.5 c 128,-1,39
 98 128 98 128 98.5 149 c 128,-1,40
 99 170 99 170 99 184 c 0,41,42
 99 202 99 202 97.5 224 c 128,-1,43
 96 246 96 246 89.5 265 c 128,-1,44
 83 284 83 284 68.5 297.5 c 128,-1,45
 54 311 54 311 27 312 c 1,46,-1
 27 342 l 1,47,48
 54 343 54 343 68.5 357 c 128,-1,49
 83 371 83 371 90 391 c 128,-1,50
 97 411 97 411 98 433 c 128,-1,51
 99 455 99 455 99 473 c 0,52,53
 99 488 99 488 98.5 508.5 c 128,-1,54
 98 529 98 529 98 550 c 128,-1,55
 98 571 98 571 97.5 589 c 128,-1,56
 97 607 97 607 97 618 c 0,57,58
 97 649 97 649 102.5 675.5 c 128,-1,59
 108 702 108 702 124.5 720.5 c 128,-1,60
 141 739 141 739 171 749.5 c 128,-1,61
 201 760 201 760 251 760 c 1,62,-1
 253 729 l 1,0,1
EndSplineSet
EndChar
StartChar: bar
Encoding: 124 124 43
Width: 269
Flags: W
LayerCount: 2
Back
Fore
SplineSet
75 -110 m 1,0,1
 83 -43 83 -43 85 37.5 c 128,-1,2
 87 118 87 118 87 192 c 2,3,-1
 87 500 l 2,4,5
 87 525 87 525 87 557.5 c 128,-1,6
 87 590 87 590 85.5 626 c 128,-1,7
 84 662 84 662 81.5 697.5 c 128,-1,8
 79 733 79 733 75 764 c 1,9,-1
 76 768 l 1,10,-1
 192 768 l 1,11,-1
 194 764 l 1,12,13
 189 733 189 733 187 697.5 c 128,-1,14
 185 662 185 662 183.5 626 c 128,-1,15
 182 590 182 590 182 557.5 c 128,-1,16
 182 525 182 525 182 500 c 2,17,-1
 182 192 l 2,18,19
 182 118 182 118 184 37.5 c 128,-1,20
 186 -43 186 -43 194 -110 c 1,21,-1
 192 -114 l 1,22,-1
 76 -114 l 1,23,-1
 75 -110 l 1,0,1
EndSplineSet
EndChar
StartChar: braceright
Encoding: 125 125 45
Width: 290
Flags: W
LayerCount: 2
Back
Fore
SplineSet
39 760 m 1,0,1
 89 760 89 760 119 749.5 c 128,-1,2
 149 739 149 739 165.5 720.5 c 128,-1,3
 182 702 182 702 187.5 675.5 c 128,-1,4
 193 649 193 649 193 618 c 0,5,6
 193 607 193 607 192.5 589 c 128,-1,7
 192 571 192 571 192 550 c 128,-1,8
 192 529 192 529 191.5 508.5 c 128,-1,9
 191 488 191 488 191 473 c 0,10,11
 191 455 191 455 192 433 c 128,-1,12
 193 411 193 411 200 391 c 128,-1,13
 207 371 207 371 221.5 357 c 128,-1,14
 236 343 236 343 263 342 c 1,15,-1
 263 312 l 1,16,17
 236 311 236 311 221.5 297.5 c 128,-1,18
 207 284 207 284 200.5 265 c 128,-1,19
 194 246 194 246 192.5 224 c 128,-1,20
 191 202 191 202 191 184 c 0,21,22
 191 170 191 170 191.5 149 c 128,-1,23
 192 128 192 128 192 106.5 c 128,-1,24
 192 85 192 85 192.5 66 c 128,-1,25
 193 47 193 47 193 36 c 0,26,27
 193 4 193 4 187.5 -22 c 128,-1,28
 182 -48 182 -48 165.5 -66.5 c 128,-1,29
 149 -85 149 -85 119 -95.5 c 128,-1,30
 89 -106 89 -106 39 -106 c 1,31,-1
 37 -75 l 1,32,33
 56 -73 56 -73 67 -65 c 128,-1,34
 78 -57 78 -57 83.5 -44.5 c 128,-1,35
 89 -32 89 -32 90.5 -16.5 c 128,-1,36
 92 -1 92 -1 92 17 c 0,37,38
 92 26 92 26 91.5 45 c 128,-1,39
 91 64 91 64 91 85 c 128,-1,40
 91 106 91 106 90.5 126.5 c 128,-1,41
 90 147 90 147 90 160 c 0,42,43
 90 191 90 191 96 218.5 c 128,-1,44
 102 246 102 246 117.5 268 c 128,-1,45
 133 290 133 290 159 305.5 c 128,-1,46
 185 321 185 321 224 327 c 1,47,48
 185 333 185 333 159 348.5 c 128,-1,49
 133 364 133 364 117.5 386 c 128,-1,50
 102 408 102 408 96 435.5 c 128,-1,51
 90 463 90 463 90 494 c 0,52,53
 90 507 90 507 90.5 527.5 c 128,-1,54
 91 548 91 548 91 569 c 128,-1,55
 91 590 91 590 91.5 609 c 128,-1,56
 92 628 92 628 92 637 c 0,57,58
 92 655 92 655 90.5 670.5 c 128,-1,59
 89 686 89 686 83.5 698.5 c 128,-1,60
 78 711 78 711 67 719 c 128,-1,61
 56 727 56 727 37 729 c 1,62,-1
 39 760 l 1,0,1
EndSplineSet
EndChar
StartChar: asciitilde
Encoding: 126 126 38
Width: 489
Flags: W
LayerCount: 2
Back
Fore
SplineSet
429 293 m 2,0,1
 429 289 429 289 423.5 273.5 c 128,-1,2
 418 258 418 258 406 240.5 c 128,-1,3
 394 223 394 223 375.5 209.5 c 128,-1,4
 357 196 357 196 331 196 c 0,5,6
 320 196 320 196 295 197.5 c 128,-1,7
 270 199 270 199 240.5 200.5 c 128,-1,8
 211 202 211 202 183.5 203.5 c 128,-1,9
 156 205 156 205 140 205 c 0,10,11
 115 205 115 205 105 199 c 128,-1,12
 95 193 95 193 85 180 c 1,13,-1
 62 197 l 1,14,15
 62 207 62 207 69 223 c 128,-1,16
 76 239 76 239 89 255 c 128,-1,17
 102 271 102 271 120.5 282.5 c 128,-1,18
 139 294 139 294 163 294 c 0,19,20
 176 294 176 294 197.5 292.5 c 128,-1,21
 219 291 219 291 243.5 289.5 c 128,-1,22
 268 288 268 288 294 286.5 c 128,-1,23
 320 285 320 285 342 285 c 0,24,25
 359 285 359 285 376.5 289 c 128,-1,26
 394 293 394 293 407 311 c 1,27,-1
 429 293 l 2,0,1
EndSplineSet
EndChar
StartChar: exclamdown
Encoding: 161 161 72
Width: 245
Flags: W
LayerCount: 2
Back
Fore
SplineSet
182 -222 m 1,0,-1
 60 -186 l 1,1,-1
 56 -177 l 1,2,3
 57 -167 57 -167 58 -153.5 c 128,-1,4
 59 -140 59 -140 61 -117.5 c 128,-1,5
 63 -95 63 -95 65 -60.5 c 128,-1,6
 67 -26 67 -26 69 25.5 c 128,-1,7
 71 77 71 77 73.5 149.5 c 128,-1,8
 76 222 76 222 78 321 c 1,9,-1
 84 325 l 1,10,-1
 159 299 l 1,11,-1
 164 292 l 1,12,13
 167 188 167 188 169.5 114.5 c 128,-1,14
 172 41 172 41 174.5 -9 c 128,-1,15
 177 -59 177 -59 179 -89.5 c 128,-1,16
 181 -120 181 -120 182.5 -138.5 c 128,-1,17
 184 -157 184 -157 185 -168 c 128,-1,18
 186 -179 186 -179 186 -190 c 0,19,20
 186 -195 186 -195 186.5 -202.5 c 128,-1,21
 187 -210 187 -210 187 -219 c 1,22,-1
 182 -222 l 1,0,-1
57 411 m 0,23,24
 57 437 57 437 76 456 c 128,-1,25
 95 475 95 475 121 475 c 0,26,27
 133 475 133 475 145 470 c 128,-1,28
 157 465 157 465 166.5 456 c 128,-1,29
 176 447 176 447 181.5 435.5 c 128,-1,30
 187 424 187 424 187 411 c 0,31,32
 187 386 187 386 166.5 365.5 c 128,-1,33
 146 345 146 345 121 345 c 0,34,35
 108 345 108 345 96.5 350.5 c 128,-1,36
 85 356 85 356 76 365.5 c 128,-1,37
 67 375 67 375 62 387 c 128,-1,38
 57 399 57 399 57 411 c 0,23,24
EndSplineSet
EndChar
StartChar: cent
Encoding: 162 162 222
Width: 515
Flags: W
LayerCount: 2
Back
Fore
SplineSet
420 286 m 1,0,-1
 416 289 l 1,1,2
 416 312 416 312 402.5 326.5 c 128,-1,3
 389 341 389 341 370 349 c 128,-1,4
 351 357 351 357 329.5 360 c 128,-1,5
 308 363 308 363 292 363 c 0,6,7
 257 363 257 363 231 350 c 128,-1,8
 205 337 205 337 188 315 c 128,-1,9
 171 293 171 293 162.5 264 c 128,-1,10
 154 235 154 235 154 204 c 0,11,12
 154 176 154 176 163.5 150 c 128,-1,13
 173 124 173 124 192 104.5 c 128,-1,14
 211 85 211 85 240.5 73 c 128,-1,15
 270 61 270 61 310 61 c 0,16,17
 344 61 344 61 382 68 c 128,-1,18
 420 75 420 75 450 91 c 1,19,-1
 467 67 l 1,20,-1
 452 39 l 1,21,22
 435 27 435 27 404.5 14 c 128,-1,23
 374 1 374 1 337 -6 c 1,24,25
 339 -40 339 -40 341 -72.5 c 128,-1,26
 343 -105 343 -105 348 -135 c 1,27,-1
 346 -139 l 1,28,-1
 230 -139 l 1,29,-1
 229 -135 l 1,30,31
 233 -106 233 -106 235 -73.5 c 128,-1,32
 237 -41 237 -41 239 -7 c 1,33,34
 198 -1 198 -1 162 16.5 c 128,-1,35
 126 34 126 34 99 61 c 128,-1,36
 72 88 72 88 56.5 123 c 128,-1,37
 41 158 41 158 41 200 c 0,38,39
 41 251 41 251 56 291.5 c 128,-1,40
 71 332 71 332 98 361 c 128,-1,41
 125 390 125 390 161 408 c 128,-1,42
 197 426 197 426 239 433 c 1,43,44
 238 470 238 470 235.5 506 c 128,-1,45
 233 542 233 542 229 573 c 1,46,-1
 230 577 l 1,47,-1
 346 577 l 1,48,-1
 348 573 l 1,49,50
 343 542 343 542 341 506.5 c 128,-1,51
 339 471 339 471 337 435 c 1,52,53
 375 430 375 430 408.5 421 c 128,-1,54
 442 412 442 412 459 402 c 1,55,-1
 462 393 l 1,56,-1
 451 286 l 1,57,-1
 420 286 l 1,0,-1
EndSplineSet
EndChar
StartChar: sterling
Encoding: 163 163 133
Width: 527
Flags: W
LayerCount: 2
Back
Fore
SplineSet
148 327 m 1,0,1
 143 359 143 359 138.5 392.5 c 128,-1,2
 134 426 134 426 134 457 c 0,3,4
 134 553 134 553 180 609 c 128,-1,5
 226 665 226 665 311 665 c 0,6,7
 332 665 332 665 356 660 c 128,-1,8
 380 655 380 655 402.5 643.5 c 128,-1,9
 425 632 425 632 444.5 612.5 c 128,-1,10
 464 593 464 593 476 565 c 1,11,-1
 463 464 l 1,12,-1
 416 464 l 1,13,-1
 412 468 l 1,14,15
 407 525 407 525 387.5 553.5 c 128,-1,16
 368 582 368 582 323 582 c 0,17,18
 283 582 283 582 268.5 549.5 c 128,-1,19
 254 517 254 517 254 466 c 0,20,21
 254 437 254 437 257.5 401 c 128,-1,22
 261 365 261 365 263 327 c 1,23,-1
 372 327 l 1,24,-1
 362 255 l 1,25,-1
 265 255 l 1,26,27
 265 223 265 223 261 193.5 c 128,-1,28
 257 164 257 164 247 138.5 c 128,-1,29
 237 113 237 113 220 93.5 c 128,-1,30
 203 74 203 74 177 63 c 1,31,-1
 179 60 l 1,32,33
 250 48 250 48 286 46 c 128,-1,34
 322 44 322 44 333 44 c 0,35,36
 357 44 357 44 371.5 47 c 128,-1,37
 386 50 386 50 394.5 56.5 c 128,-1,38
 403 63 403 63 407 73.5 c 128,-1,39
 411 84 411 84 416 99 c 1,40,-1
 421 105 l 1,41,-1
 468 105 l 1,42,-1
 431 -49 l 1,43,-1
 422 -59 l 1,44,45
 400 -47 400 -47 357 -38 c 128,-1,46
 314 -29 314 -29 261.5 -24 c 128,-1,47
 209 -19 209 -19 154 -16.5 c 128,-1,48
 99 -14 99 -14 53 -14 c 1,49,-1
 43 11 l 1,50,-1
 43 34 l 1,51,52
 76 60 76 60 97.5 85 c 128,-1,53
 119 110 119 110 131 135.5 c 128,-1,54
 143 161 143 161 148 186.5 c 128,-1,55
 153 212 153 212 153 239 c 0,56,57
 153 243 153 243 153 246.5 c 128,-1,58
 153 250 153 250 152 255 c 1,59,-1
 50 255 l 1,60,-1
 70 327 l 1,61,-1
 148 327 l 1,0,1
EndSplineSet
EndChar
StartChar: currency
Encoding: 164 164 57
Width: 596
Flags: W
LayerCount: 2
Back
Fore
SplineSet
124 112 m 1,0,1
 85 163 85 163 85 230 c 0,2,3
 85 261 85 261 94 289 c 128,-1,4
 103 317 103 317 125 346 c 1,5,-1
 50 418 l 1,6,-1
 105 473 l 1,7,-1
 178 402 l 1,8,9
 208 422 208 422 236.5 431.5 c 128,-1,10
 265 441 265 441 297 441 c 0,11,12
 330 441 330 441 358.5 431.5 c 128,-1,13
 387 422 387 422 415 402 c 1,14,-1
 488 473 l 1,15,-1
 543 419 l 1,16,-1
 472 346 l 1,17,18
 492 317 492 317 501.5 288.5 c 128,-1,19
 511 260 511 260 511 228 c 256,20,21
 511 196 511 196 502 168.5 c 128,-1,22
 493 141 493 141 473 112 c 1,23,-1
 546 40 l 1,24,-1
 490 -15 l 1,25,-1
 416 56 l 1,26,27
 361 16 361 16 299 16 c 0,28,29
 268 16 268 16 240 25.5 c 128,-1,30
 212 35 212 35 180 56 c 1,31,-1
 107 -15 l 1,32,-1
 53 40 l 1,33,-1
 124 112 l 1,0,1
298 363 m 0,34,35
 271 363 271 363 246.5 352.5 c 128,-1,36
 222 342 222 342 204 324 c 128,-1,37
 186 306 186 306 175.5 281.5 c 128,-1,38
 165 257 165 257 165 229 c 256,39,40
 165 201 165 201 175.5 176.5 c 128,-1,41
 186 152 186 152 204 134 c 128,-1,42
 222 116 222 116 246.5 105.5 c 128,-1,43
 271 95 271 95 299 95 c 256,44,45
 327 95 327 95 351 105.5 c 128,-1,46
 375 116 375 116 393 134 c 128,-1,47
 411 152 411 152 421 176.5 c 128,-1,48
 431 201 431 201 431 229 c 256,49,50
 431 257 431 257 421 281.5 c 128,-1,51
 411 306 411 306 393 324 c 128,-1,52
 375 342 375 342 350.5 352.5 c 128,-1,53
 326 363 326 363 298 363 c 0,34,35
EndSplineSet
EndChar
StartChar: yen
Encoding: 165 165 156
Width: 742
Flags: W
LayerCount: 2
Back
Fore
SplineSet
315 237 m 1,0,-1
 315 250 l 2,1,2
 315 269 315 269 311 283.5 c 128,-1,3
 307 298 307 298 301 309 c 1,4,-1
 148 309 l 1,5,-1
 163 391 l 1,6,-1
 250 391 l 1,7,8
 224 431 224 431 195 472.5 c 128,-1,9
 166 514 166 514 137 557 c 0,10,11
 130 568 130 568 121 578.5 c 128,-1,12
 112 589 112 589 105 595 c 0,13,14
 94 604 94 604 78.5 608 c 128,-1,15
 63 612 63 612 43 614 c 1,16,-1
 35 618 l 1,17,-1
 35 656 l 1,18,-1
 40 660 l 1,19,20
 65 657 65 657 85 654.5 c 128,-1,21
 105 652 105 652 129 652 c 2,22,-1
 211 652 l 2,23,24
 234 652 234 652 264.5 654.5 c 128,-1,25
 295 657 295 657 323 660 c 1,26,-1
 327 656 l 1,27,-1
 327 618 l 1,28,-1
 323 614 l 1,29,30
 303 613 303 613 288 610.5 c 128,-1,31
 273 608 273 608 264 602 c 0,32,33
 254 595 254 595 254 584 c 0,34,35
 254 578 254 578 256.5 572 c 128,-1,36
 259 566 259 566 262 561 c 2,37,-1
 381 372 l 1,38,-1
 493 545 l 2,39,40
 503 562 503 562 503 580 c 0,41,42
 503 592 503 592 496 598 c 128,-1,43
 489 604 489 604 478.5 607 c 128,-1,44
 468 610 468 610 455.5 611 c 128,-1,45
 443 612 443 612 432 615 c 1,46,-1
 428 619 l 1,47,-1
 428 657 l 1,48,-1
 432 661 l 1,49,50
 461 656 461 656 480 655.5 c 128,-1,51
 499 655 499 655 524 655 c 2,52,-1
 612 655 l 2,53,54
 636 655 636 655 656 656 c 128,-1,55
 676 657 676 657 704 661 c 1,56,-1
 708 657 l 1,57,-1
 708 619 l 1,58,-1
 704 615 l 1,59,60
 681 612 681 612 665 607 c 128,-1,61
 649 602 649 602 636 593 c 128,-1,62
 623 584 623 584 610.5 570 c 128,-1,63
 598 556 598 556 583 535 c 0,64,65
 548 485 548 485 525.5 451 c 128,-1,66
 503 417 503 417 486 391 c 1,67,-1
 602 391 l 1,68,-1
 586 309 l 1,69,-1
 436 309 l 1,70,71
 432 301 432 301 428.5 288.5 c 128,-1,72
 425 276 425 276 425 264 c 2,73,-1
 425 237 l 1,74,-1
 596 237 l 1,75,-1
 580 155 l 1,76,-1
 425 155 l 1,77,-1
 428 107 l 2,78,79
 430 79 430 79 437.5 68 c 128,-1,80
 445 57 445 57 453 50 c 256,81,82
 461 43 461 43 475.5 41.5 c 128,-1,83
 490 40 490 40 506 40 c 1,84,-1
 511 36 l 1,85,-1
 514 -2 l 1,86,-1
 512 -6 l 1,87,88
 505 -6 505 -6 489 -5 c 128,-1,89
 473 -4 473 -4 456 -3 c 128,-1,90
 439 -2 439 -2 423 -1 c 128,-1,91
 407 0 407 0 400 0 c 2,92,-1
 341 0 l 2,93,94
 334 0 334 0 318 -1 c 128,-1,95
 302 -2 302 -2 284.5 -3 c 128,-1,96
 267 -4 267 -4 251 -5 c 128,-1,97
 235 -6 235 -6 228 -6 c 1,98,-1
 227 -2 l 1,99,-1
 229 36 l 1,100,-1
 234 40 l 1,101,102
 249 40 249 40 263.5 41.5 c 128,-1,103
 278 43 278 43 287 50 c 256,104,105
 296 57 296 57 303 68 c 128,-1,106
 310 79 310 79 312 107 c 0,107,108
 313 115 313 115 313.5 126.5 c 128,-1,109
 314 138 314 138 314 155 c 1,110,-1
 142 155 l 1,111,-1
 157 237 l 1,112,-1
 315 237 l 1,0,-1
EndSplineSet
EndChar
StartChar: brokenbar
Encoding: 166 166 48
Width: 273
Flags: W
LayerCount: 2
Back
Fore
SplineSet
77 384 m 1,0,1
 81 417 81 417 83 441 c 128,-1,2
 85 465 85 465 86.5 485.5 c 128,-1,3
 88 506 88 506 88.5 526 c 128,-1,4
 89 546 89 546 89 572 c 2,5,-1
 89 605 l 2,6,7
 89 619 89 619 89 634 c 128,-1,8
 89 649 89 649 87.5 667.5 c 128,-1,9
 86 686 86 686 83.5 709.5 c 128,-1,10
 81 733 81 733 77 764 c 1,11,-1
 78 768 l 1,12,-1
 194 768 l 1,13,-1
 196 764 l 1,14,15
 191 733 191 733 189 709.5 c 128,-1,16
 187 686 187 686 185.5 667.5 c 128,-1,17
 184 649 184 649 184 634 c 128,-1,18
 184 619 184 619 184 605 c 2,19,-1
 184 572 l 2,20,21
 184 546 184 546 184.5 526 c 128,-1,22
 185 506 185 506 186 485.5 c 128,-1,23
 187 465 187 465 189.5 441 c 128,-1,24
 192 417 192 417 196 384 c 1,25,-1
 194 380 l 1,26,-1
 78 380 l 1,27,-1
 77 384 l 1,0,1
77 -110 m 1,28,29
 81 -77 81 -77 83 -53 c 128,-1,30
 85 -29 85 -29 86.5 -8.5 c 128,-1,31
 88 12 88 12 88.5 32 c 128,-1,32
 89 52 89 52 89 78 c 2,33,-1
 89 110 l 2,34,35
 89 124 89 124 89 139 c 128,-1,36
 89 154 89 154 87.5 172.5 c 128,-1,37
 86 191 86 191 83.5 215 c 128,-1,38
 81 239 81 239 77 270 c 1,39,-1
 78 274 l 1,40,-1
 194 274 l 1,41,-1
 196 270 l 1,42,43
 191 239 191 239 189 215 c 128,-1,44
 187 191 187 191 185.5 172.5 c 128,-1,45
 184 154 184 154 184 139 c 128,-1,46
 184 124 184 124 184 110 c 2,47,-1
 184 78 l 2,48,49
 184 52 184 52 184.5 32 c 128,-1,50
 185 12 185 12 186 -8.5 c 128,-1,51
 187 -29 187 -29 189.5 -53 c 128,-1,52
 192 -77 192 -77 196 -110 c 1,53,-1
 194 -114 l 1,54,-1
 78 -114 l 1,55,-1
 77 -110 l 1,28,29
EndSplineSet
EndChar
StartChar: section
Encoding: 167 167 128
Width: 438
Flags: W
LayerCount: 2
Back
Fore
SplineSet
43 367 m 0,0,1
 43 401 43 401 61.5 431.5 c 128,-1,2
 80 462 80 462 112 488 c 1,3,4
 104 505 104 505 102 518.5 c 128,-1,5
 100 532 100 532 100 544 c 0,6,7
 100 575 100 575 112 605 c 128,-1,8
 124 635 124 635 145.5 657.5 c 128,-1,9
 167 680 167 680 197.5 694 c 128,-1,10
 228 708 228 708 266 708 c 0,11,12
 287 708 287 708 309.5 699 c 128,-1,13
 332 690 332 690 349 668 c 1,14,-1
 351 660 l 1,15,-1
 302 570 l 1,16,-1
 297 570 l 1,17,18
 285 597 285 597 261.5 612 c 128,-1,19
 238 627 238 627 215 627 c 0,20,21
 200 627 200 627 188 619.5 c 128,-1,22
 176 612 176 612 176 597 c 0,23,24
 176 573 176 573 187.5 552 c 128,-1,25
 199 531 199 531 217.5 511 c 128,-1,26
 236 491 236 491 258 471.5 c 128,-1,27
 280 452 280 452 301 432 c 0,28,29
 325 409 325 409 343 391 c 128,-1,30
 361 373 361 373 373 355.5 c 128,-1,31
 385 338 385 338 391 319.5 c 128,-1,32
 397 301 397 301 397 279 c 0,33,34
 397 245 397 245 374.5 214 c 128,-1,35
 352 183 352 183 320 157 c 1,36,37
 328 140 328 140 330 127 c 128,-1,38
 332 114 332 114 332 102 c 0,39,40
 332 71 332 71 321.5 42 c 128,-1,41
 311 13 311 13 292 -9.5 c 128,-1,42
 273 -32 273 -32 246 -46 c 128,-1,43
 219 -60 219 -60 186 -60 c 0,44,45
 160 -60 160 -60 132 -46.5 c 128,-1,46
 104 -33 104 -33 83 -2 c 1,47,-1
 81 6 l 1,48,-1
 140 76 l 1,49,-1
 145 76 l 1,50,51
 156 47 156 47 176.5 33 c 128,-1,52
 197 19 197 19 217 19 c 0,53,54
 232 19 232 19 244 26.5 c 128,-1,55
 256 34 256 34 256 49 c 0,56,57
 256 73 256 73 244.5 94 c 128,-1,58
 233 115 233 115 214.5 135 c 128,-1,59
 196 155 196 155 174 174.5 c 128,-1,60
 152 194 152 194 131 214 c 0,61,62
 107 236 107 236 90 254.5 c 128,-1,63
 73 273 73 273 62.5 290.5 c 128,-1,64
 52 308 52 308 47.5 326 c 128,-1,65
 43 344 43 344 43 367 c 0,0,1
120 398 m 0,66,67
 120 378 120 378 125 367 c 128,-1,68
 130 356 130 356 147.5 339 c 128,-1,69
 165 322 165 322 197 292.5 c 128,-1,70
 229 263 229 263 283 208 c 1,71,72
 296 221 296 221 304 232 c 128,-1,73
 312 243 312 243 312 248 c 0,74,75
 312 267 312 267 306.5 278.5 c 128,-1,76
 301 290 301 290 284 306.5 c 128,-1,77
 267 323 267 323 234.5 352 c 128,-1,78
 202 381 202 381 148 437 c 1,79,80
 136 425 136 425 128 414 c 128,-1,81
 120 403 120 403 120 398 c 0,66,67
EndSplineSet
EndChar
StartChar: dieresis
Encoding: 168 168 62
Width: 220
Flags: W
LayerCount: 2
Back
Fore
SplineSet
-35 610 m 0,0,1
 -35 622 -35 622 -30 634 c 128,-1,2
 -25 646 -25 646 -16 655.5 c 128,-1,3
 -7 665 -7 665 4.5 670.5 c 128,-1,4
 16 676 16 676 29 676 c 0,5,6
 54 676 54 676 74.5 655.5 c 128,-1,7
 95 635 95 635 95 610 c 0,8,9
 95 597 95 597 89.5 585.5 c 128,-1,10
 84 574 84 574 74.5 565 c 128,-1,11
 65 556 65 556 53 551 c 128,-1,12
 41 546 41 546 29 546 c 0,13,14
 3 546 3 546 -16 565 c 128,-1,15
 -35 584 -35 584 -35 610 c 0,0,1
125 610 m 0,16,17
 125 622 125 622 130 634 c 128,-1,18
 135 646 135 646 144 655.5 c 128,-1,19
 153 665 153 665 164.5 670.5 c 128,-1,20
 176 676 176 676 189 676 c 0,21,22
 214 676 214 676 234.5 655.5 c 128,-1,23
 255 635 255 635 255 610 c 0,24,25
 255 597 255 597 249.5 585.5 c 128,-1,26
 244 574 244 574 234.5 565 c 128,-1,27
 225 556 225 556 213 551 c 128,-1,28
 201 546 201 546 189 546 c 0,29,30
 163 546 163 546 144 565 c 128,-1,31
 125 584 125 584 125 610 c 0,16,17
EndSplineSet
EndChar
StartChar: copyright
Encoding: 169 169 56
Width: 717
Flags: W
LayerCount: 2
Back
Fore
SplineSet
419 418 m 1,0,1
 416 444 416 444 396 452 c 128,-1,2
 376 460 376 460 353 460 c 0,3,4
 339 460 339 460 320 453 c 128,-1,5
 301 446 301 446 292 432 c 0,6,7
 283 420 283 420 277 400.5 c 128,-1,8
 271 381 271 381 271 355 c 0,9,10
 271 304 271 304 300 277 c 128,-1,11
 329 250 329 250 368 250 c 0,12,13
 388 250 388 250 412.5 254 c 128,-1,14
 437 258 437 258 464 278 c 1,15,-1
 473 248 l 1,16,-1
 466 215 l 1,17,18
 441 201 441 201 414.5 192.5 c 128,-1,19
 388 184 388 184 361 184 c 0,20,21
 322 184 322 184 290 196.5 c 128,-1,22
 258 209 258 209 235.5 231 c 128,-1,23
 213 253 213 253 200.5 284 c 128,-1,24
 188 315 188 315 188 353 c 0,25,26
 188 389 188 389 199 420.5 c 128,-1,27
 210 452 210 452 232 475.5 c 128,-1,28
 254 499 254 499 287 512.5 c 128,-1,29
 320 526 320 526 363 526 c 0,30,31
 383 526 383 526 416 518.5 c 128,-1,32
 449 511 449 511 479 500 c 1,33,-1
 480 493 l 1,34,-1
 472 413 l 1,35,-1
 425 413 l 1,36,-1
 419 418 l 1,0,1
358 654 m 256,37,38
 421 654 421 654 476.5 630.5 c 128,-1,39
 532 607 532 607 573 566 c 128,-1,40
 614 525 614 525 638 470.5 c 128,-1,41
 662 416 662 416 662 354 c 0,42,43
 662 291 662 291 638 235.5 c 128,-1,44
 614 180 614 180 572.5 139.5 c 128,-1,45
 531 99 531 99 474.5 75.5 c 128,-1,46
 418 52 418 52 353 52 c 0,47,48
 292 52 292 52 237.5 76 c 128,-1,49
 183 100 183 100 142.5 141 c 128,-1,50
 102 182 102 182 78.5 237 c 128,-1,51
 55 292 55 292 55 354 c 256,52,53
 55 416 55 416 78.5 470.5 c 128,-1,54
 102 525 102 525 143.5 566 c 128,-1,55
 185 607 185 607 240 630.5 c 128,-1,56
 295 654 295 654 358 654 c 256,37,38
358 595 m 256,57,58
 309 595 309 595 265.5 576 c 128,-1,59
 222 557 222 557 190 524.5 c 128,-1,60
 158 492 158 492 139 448 c 128,-1,61
 120 404 120 404 120 354 c 256,62,63
 120 304 120 304 138.5 259.5 c 128,-1,64
 157 215 157 215 189 182 c 128,-1,65
 221 149 221 149 263.5 130 c 128,-1,66
 306 111 306 111 354 111 c 0,67,68
 405 111 405 111 449.5 130 c 128,-1,69
 494 149 494 149 526.5 181.5 c 128,-1,70
 559 214 559 214 578 258.5 c 128,-1,71
 597 303 597 303 597 354 c 0,72,73
 597 404 597 404 578 448 c 128,-1,74
 559 492 559 492 526.5 524.5 c 128,-1,75
 494 557 494 557 450.5 576 c 128,-1,76
 407 595 407 595 358 595 c 256,57,58
EndSplineSet
EndChar
StartChar: ordfeminine
Encoding: 170 170 106
Width: 378
Flags: W
LayerCount: 2
Back
Fore
SplineSet
207 445 m 0,0,1
 209 448 209 448 211.5 452.5 c 128,-1,2
 214 457 214 457 214 462 c 2,3,-1
 217 506 l 1,4,5
 196 506 196 506 177 504.5 c 128,-1,6
 158 503 158 503 144 497.5 c 128,-1,7
 130 492 130 492 121.5 482 c 128,-1,8
 113 472 113 472 113 455 c 0,9,10
 113 435 113 435 121.5 426.5 c 128,-1,11
 130 418 130 418 141 418 c 0,12,13
 168 418 168 418 183 426.5 c 128,-1,14
 198 435 198 435 207 445 c 0,0,1
212 406 m 1,15,16
 181 369 181 369 130 369 c 0,17,18
 93 369 93 369 71 391 c 128,-1,19
 49 413 49 413 49 451 c 0,20,21
 49 486 49 486 70.5 505 c 128,-1,22
 92 524 92 524 120 532.5 c 128,-1,23
 148 541 148 541 176 542.5 c 128,-1,24
 204 544 204 544 217 544 c 1,25,26
 216 565 216 565 212 577.5 c 128,-1,27
 208 590 208 590 201 596.5 c 128,-1,28
 194 603 194 603 184.5 604.5 c 128,-1,29
 175 606 175 606 164 606 c 0,30,31
 157 606 157 606 148 605 c 128,-1,32
 139 604 139 604 130.5 600.5 c 128,-1,33
 122 597 122 597 116 591 c 128,-1,34
 110 585 110 585 109 575 c 1,35,-1
 107 572 l 1,36,-1
 81 572 l 1,37,-1
 76 628 l 1,38,-1
 78 632 l 2,39,40
 81 635 81 635 90.5 639.5 c 128,-1,41
 100 644 100 644 113.5 648 c 128,-1,42
 127 652 127 652 143.5 655 c 128,-1,43
 160 658 160 658 176 658 c 0,44,45
 287 658 287 658 287 567 c 0,46,47
 287 544 287 544 286.5 527 c 128,-1,48
 286 510 286 510 286 495.5 c 128,-1,49
 286 481 286 481 285.5 467.5 c 128,-1,50
 285 454 285 454 285 438 c 0,51,52
 285 415 285 415 297 411 c 128,-1,53
 309 407 309 407 326 407 c 1,54,-1
 328 374 l 1,55,56
 317 375 317 375 305.5 375.5 c 128,-1,57
 294 376 294 376 280 376 c 0,58,59
 263 376 263 376 245.5 375.5 c 128,-1,60
 228 375 228 375 214 375 c 1,61,-1
 210 379 l 1,62,63
 212 385 212 385 213 391 c 128,-1,64
 214 397 214 397 214 403 c 2,65,-1
 212 406 l 1,15,16
EndSplineSet
EndChar
StartChar: guillemotleft
Encoding: 171 171 84
Width: 531
Flags: W
LayerCount: 2
Back
Fore
SplineSet
281 411 m 1,0,1
 237 367 237 367 205 326.5 c 128,-1,2
 173 286 173 286 141 240 c 1,3,4
 173 195 173 195 205 154.5 c 128,-1,5
 237 114 237 114 281 70 c 1,6,-1
 276 60 l 1,7,-1
 178 60 l 1,8,-1
 171 64 l 1,9,10
 159 83 159 83 146.5 101 c 128,-1,11
 134 119 134 119 118.5 139.5 c 128,-1,12
 103 160 103 160 83.5 184.5 c 128,-1,13
 64 209 64 209 39 240 c 1,14,15
 64 271 64 271 83.5 296 c 128,-1,16
 103 321 103 321 118.5 341.5 c 128,-1,17
 134 362 134 362 146.5 380 c 128,-1,18
 159 398 159 398 171 417 c 1,19,-1
 178 421 l 1,20,-1
 276 421 l 1,21,-1
 281 411 l 1,0,1
481 411 m 1,22,23
 437 367 437 367 405 326.5 c 128,-1,24
 373 286 373 286 341 240 c 1,25,26
 373 195 373 195 405 154.5 c 128,-1,27
 437 114 437 114 481 70 c 1,28,-1
 476 60 l 1,29,-1
 378 60 l 1,30,-1
 371 64 l 1,31,32
 359 83 359 83 346.5 101 c 128,-1,33
 334 119 334 119 318.5 139.5 c 128,-1,34
 303 160 303 160 283.5 184.5 c 128,-1,35
 264 209 264 209 239 240 c 1,36,37
 264 271 264 271 283.5 296 c 128,-1,38
 303 321 303 321 318.5 341.5 c 128,-1,39
 334 362 334 362 346.5 380 c 128,-1,40
 359 398 359 398 371 417 c 1,41,-1
 378 421 l 1,42,-1
 476 421 l 1,43,-1
 481 411 l 1,22,23
EndSplineSet
EndChar
StartChar: logicalnot
Encoding: 172 172 95
Width: 624
Flags: W
LayerCount: 2
Back
Fore
SplineSet
551 341 m 1,0,-1
 551 117 l 1,1,-1
 458 117 l 1,2,-1
 458 259 l 1,3,-1
 71 259 l 1,4,-1
 71 341 l 1,5,-1
 551 341 l 1,0,-1
EndSplineSet
EndChar
StartChar: registered
Encoding: 174 174 125
Width: 717
Flags: W
LayerCount: 2
Back
Fore
SplineSet
208 201 m 1,0,-1
 208 232 l 1,1,2
 224 233 224 233 232.5 238 c 128,-1,3
 241 243 241 243 245 252.5 c 128,-1,4
 249 262 249 262 249.5 276.5 c 128,-1,5
 250 291 250 291 250 312 c 2,6,-1
 250 432 l 2,7,8
 250 458 250 458 243 477 c 128,-1,9
 236 496 236 496 208 498 c 1,10,-1
 208 532 l 1,11,-1
 344 532 l 2,12,13
 379 532 379 532 403 523.5 c 128,-1,14
 427 515 427 515 441.5 501.5 c 128,-1,15
 456 488 456 488 462.5 470 c 128,-1,16
 469 452 469 452 469 434 c 0,17,18
 469 411 469 411 464.5 395 c 128,-1,19
 460 379 460 379 452.5 368 c 128,-1,20
 445 357 445 357 435.5 350 c 128,-1,21
 426 343 426 343 416 338 c 1,22,23
 428 320 428 320 441 301 c 128,-1,24
 454 282 454 282 467.5 266.5 c 128,-1,25
 481 251 481 251 495 240.5 c 128,-1,26
 509 230 509 230 522 230 c 1,27,-1
 522 201 l 1,28,29
 506 199 506 199 501.5 199 c 128,-1,30
 497 199 497 199 489 199 c 0,31,32
 472 199 472 199 460 203 c 128,-1,33
 448 207 448 207 436 217.5 c 128,-1,34
 424 228 424 228 410 246.5 c 128,-1,35
 396 265 396 265 375 294 c 2,36,-1
 356 321 l 1,37,-1
 317 321 l 1,38,39
 317 268 317 268 325 249.5 c 128,-1,40
 333 231 333 231 359 231 c 1,41,-1
 361 201 l 1,42,-1
 208 201 l 1,0,-1
351 368 m 2,43,44
 377 368 377 368 391 388 c 128,-1,45
 405 408 405 408 405 430 c 0,46,47
 405 454 405 454 389.5 469 c 128,-1,48
 374 484 374 484 352 484 c 2,49,-1
 317 484 l 1,50,-1
 317 381 l 2,51,52
 317 371 317 371 321.5 369.5 c 128,-1,53
 326 368 326 368 331 368 c 2,54,-1
 351 368 l 2,43,44
358 654 m 256,55,56
 421 654 421 654 476.5 630.5 c 128,-1,57
 532 607 532 607 573 566 c 128,-1,58
 614 525 614 525 638 470.5 c 128,-1,59
 662 416 662 416 662 354 c 0,60,61
 662 291 662 291 638 235.5 c 128,-1,62
 614 180 614 180 572.5 139.5 c 128,-1,63
 531 99 531 99 474.5 75.5 c 128,-1,64
 418 52 418 52 353 52 c 0,65,66
 292 52 292 52 237.5 76 c 128,-1,67
 183 100 183 100 142.5 141 c 128,-1,68
 102 182 102 182 78.5 237 c 128,-1,69
 55 292 55 292 55 354 c 256,70,71
 55 416 55 416 78.5 470.5 c 128,-1,72
 102 525 102 525 143.5 566 c 128,-1,73
 185 607 185 607 240 630.5 c 128,-1,74
 295 654 295 654 358 654 c 256,55,56
358 595 m 256,75,76
 309 595 309 595 265.5 576 c 128,-1,77
 222 557 222 557 190 524.5 c 128,-1,78
 158 492 158 492 139 448 c 128,-1,79
 120 404 120 404 120 354 c 256,80,81
 120 304 120 304 138.5 259.5 c 128,-1,82
 157 215 157 215 189 182 c 128,-1,83
 221 149 221 149 263.5 130 c 128,-1,84
 306 111 306 111 354 111 c 0,85,86
 405 111 405 111 449.5 130 c 128,-1,87
 494 149 494 149 526.5 181.5 c 128,-1,88
 559 214 559 214 578 258.5 c 128,-1,89
 597 303 597 303 597 354 c 0,90,91
 597 404 597 404 578 448 c 128,-1,92
 559 492 559 492 526.5 524.5 c 128,-1,93
 494 557 494 557 450.5 576 c 128,-1,94
 407 595 407 595 358 595 c 256,75,76
EndSplineSet
EndChar
StartChar: degree
Encoding: 176 176 61
Width: 369
Flags: W
LayerCount: 2
Back
Fore
SplineSet
184 659 m 0,0,1
 218 659 218 659 244 648.5 c 128,-1,2
 270 638 270 638 287 619.5 c 128,-1,3
 304 601 304 601 313 577 c 128,-1,4
 322 553 322 553 322 526 c 0,5,6
 322 501 322 501 313.5 478 c 128,-1,7
 305 455 305 455 288 438 c 128,-1,8
 271 421 271 421 245 410.5 c 128,-1,9
 219 400 219 400 184 400 c 0,10,11
 148 400 148 400 122 410.5 c 128,-1,12
 96 421 96 421 79.5 439 c 128,-1,13
 63 457 63 457 55.5 480.5 c 128,-1,14
 48 504 48 504 48 529 c 0,15,16
 48 556 48 556 57 579.5 c 128,-1,17
 66 603 66 603 83 620.5 c 128,-1,18
 100 638 100 638 125.5 648.5 c 128,-1,19
 151 659 151 659 184 659 c 0,0,1
184 460 m 256,20,21
 216 460 216 460 232 479 c 128,-1,22
 248 498 248 498 248 526 c 256,23,24
 248 554 248 554 232 575 c 128,-1,25
 216 596 216 596 183 596 c 256,26,27
 150 596 150 596 135 576 c 128,-1,28
 120 556 120 556 120 530 c 0,29,30
 120 501 120 501 136 480.5 c 128,-1,31
 152 460 152 460 184 460 c 256,20,21
EndSplineSet
EndChar
StartChar: plusminus
Encoding: 177 177 116
Width: 462
Flags: W
LayerCount: 2
Back
Fore
SplineSet
277 366 m 1,0,-1
 391 366 l 1,1,-1
 381 283 l 1,2,-1
 277 283 l 1,3,-1
 277 183 l 1,4,-1
 185 183 l 1,5,-1
 185 283 l 1,6,-1
 72 283 l 1,7,-1
 81 366 l 1,8,-1
 185 366 l 1,9,-1
 185 455 l 1,10,-1
 277 455 l 1,11,-1
 277 366 l 1,0,-1
391 123 m 1,12,-1
 378 40 l 1,13,-1
 69 40 l 1,14,-1
 81 123 l 1,15,-1
 391 123 l 1,12,-1
EndSplineSet
EndChar
StartChar: twosuperior
Encoding: 178 178 141
Width: 378
Flags: W
LayerCount: 2
Back
Fore
SplineSet
67 606 m 1,0,1
 75 617 75 617 86 628.5 c 128,-1,2
 97 640 97 640 112 649 c 128,-1,3
 127 658 127 658 147 663.5 c 128,-1,4
 167 669 167 669 193 669 c 0,5,6
 250 669 250 669 277.5 642 c 128,-1,7
 305 615 305 615 305 572 c 0,8,9
 305 551 305 551 294 529 c 128,-1,10
 283 507 283 507 266.5 485.5 c 128,-1,11
 250 464 250 464 230.5 445 c 128,-1,12
 211 426 211 426 194.5 409.5 c 128,-1,13
 178 393 178 393 167 380.5 c 128,-1,14
 156 368 156 368 156 361 c 1,15,-1
 209 361 l 2,16,17
 230 361 230 361 245 362 c 128,-1,18
 260 363 260 363 269.5 368.5 c 128,-1,19
 279 374 279 374 284.5 385.5 c 128,-1,20
 290 397 290 397 293 418 c 1,21,-1
 322 418 l 1,22,-1
 313 308 l 1,23,-1
 308 303 l 2,24,25
 305 303 305 303 289 303.5 c 128,-1,26
 273 304 273 304 254 304.5 c 128,-1,27
 235 305 235 305 217.5 305.5 c 128,-1,28
 200 306 200 306 193 306 c 2,29,-1
 119 306 l 2,30,31
 107 306 107 306 92 305 c 128,-1,32
 77 304 77 304 63 303 c 1,33,-1
 58 319 l 1,34,-1
 58 341 l 1,35,36
 77 363 77 363 107.5 393 c 128,-1,37
 138 423 138 423 167 455 c 128,-1,38
 196 487 196 487 217 517.5 c 128,-1,39
 238 548 238 548 238 571 c 0,40,41
 238 592 238 592 223 605.5 c 128,-1,42
 208 619 208 619 186 619 c 0,43,44
 148 619 148 619 130.5 600.5 c 128,-1,45
 113 582 113 582 111 552 c 1,46,-1
 73 552 l 1,47,-1
 67 606 l 1,0,1
EndSplineSet
EndChar
StartChar: threesuperior
Encoding: 179 179 137
Width: 353
Flags: W
LayerCount: 2
Back
Fore
SplineSet
98 403 m 1,0,1
 102 373 102 373 122.5 359.5 c 128,-1,2
 143 346 143 346 168 346 c 0,3,4
 197 346 197 346 220 363 c 128,-1,5
 243 380 243 380 243 409 c 0,6,7
 243 437 243 437 226.5 456 c 128,-1,8
 210 475 210 475 177 475 c 2,9,-1
 135 475 l 1,10,-1
 141 516 l 1,11,12
 184 517 184 517 204.5 535.5 c 128,-1,13
 225 554 225 554 225 575 c 0,14,15
 225 595 225 595 208 607.5 c 128,-1,16
 191 620 191 620 169 620 c 256,17,18
 147 620 147 620 127.5 607 c 128,-1,19
 108 594 108 594 108 572 c 0,20,21
 108 565 108 565 109 562 c 2,22,-1
 67 562 l 1,23,-1
 62 606 l 1,24,25
 68 616 68 616 76.5 627 c 128,-1,26
 85 638 85 638 98 647 c 128,-1,27
 111 656 111 656 129 661.5 c 128,-1,28
 147 667 147 667 173 667 c 0,29,30
 200 667 200 667 221.5 659.5 c 128,-1,31
 243 652 243 652 258 639.5 c 128,-1,32
 273 627 273 627 280.5 610.5 c 128,-1,33
 288 594 288 594 288 577 c 0,34,35
 288 555 288 555 277.5 534.5 c 128,-1,36
 267 514 267 514 241 500 c 1,37,38
 276 492 276 492 291 468 c 128,-1,39
 306 444 306 444 306 415 c 0,40,41
 306 394 306 394 296.5 373 c 128,-1,42
 287 352 287 352 269 335 c 128,-1,43
 251 318 251 318 225.5 307.5 c 128,-1,44
 200 297 200 297 168 297 c 0,45,46
 126 297 126 297 98.5 313.5 c 128,-1,47
 71 330 71 330 51 359 c 1,48,-1
 57 403 l 1,49,-1
 98 403 l 1,0,1
EndSplineSet
EndChar
StartChar: acute
Encoding: 180 180 34
Width: 219
Flags: W
LayerCount: 2
Back
Fore
SplineSet
20 522 m 1,0,-1
 -6 572 l 1,1,-1
 -3 579 l 1,2,-1
 178 680 l 1,3,4
 206 678 206 678 219.5 659.5 c 128,-1,5
 233 641 233 641 233 615 c 0,6,7
 233 605 233 605 229 596 c 1,8,-1
 28 519 l 1,9,-1
 20 522 l 1,0,-1
EndSplineSet
EndChar
StartChar: mu
Encoding: 181 181 97
Width: 661
Flags: W
LayerCount: 2
Back
Fore
SplineSet
179 -131 m 1,0,-1
 170 -131 l 2,1,2
 132 -131 132 -131 106 -125 c 128,-1,3
 80 -119 80 -119 66 -106 c 1,4,-1
 66 -100 l 1,5,6
 80 -75 80 -75 90.5 -41.5 c 128,-1,7
 101 -8 101 -8 107.5 25.5 c 128,-1,8
 114 59 114 59 117.5 89 c 128,-1,9
 121 119 121 119 121 139 c 2,10,-1
 121 217 l 2,11,12
 121 236 121 236 120.5 259.5 c 128,-1,13
 120 283 120 283 119.5 304.5 c 128,-1,14
 119 326 119 326 118.5 342.5 c 128,-1,15
 118 359 118 359 118 366 c 0,16,17
 118 378 118 378 115 385.5 c 128,-1,18
 112 393 112 393 107 398 c 0,19,20
 96 409 96 409 81.5 411.5 c 128,-1,21
 67 414 67 414 51 414 c 1,22,-1
 48 418 l 1,23,-1
 48 452 l 1,24,-1
 51 455 l 1,25,-1
 102 455 l 2,26,27
 125 455 125 455 151 455.5 c 128,-1,28
 177 456 177 456 197 459 c 2,29,-1
 232 464 l 1,30,-1
 238 455 l 2,31,32
 236 451 236 451 235 440.5 c 128,-1,33
 234 430 234 430 233 418 c 128,-1,34
 232 406 232 406 232 395 c 128,-1,35
 232 384 232 384 232 378 c 0,36,37
 232 364 232 364 231.5 347.5 c 128,-1,38
 231 331 231 331 230.5 314.5 c 128,-1,39
 230 298 230 298 229.5 283 c 128,-1,40
 229 268 229 268 229 257 c 0,41,42
 229 235 229 235 230.5 208 c 128,-1,43
 232 181 232 181 236 160 c 0,44,45
 245 113 245 113 271 90 c 128,-1,46
 297 67 297 67 330 67 c 0,47,48
 352 67 352 67 371.5 76 c 128,-1,49
 391 85 391 85 405 98.5 c 128,-1,50
 419 112 419 112 428.5 127.5 c 128,-1,51
 438 143 438 143 441 156 c 2,52,-1
 441 266 l 2,53,54
 441 287 441 287 441 301.5 c 128,-1,55
 441 316 441 316 440.5 326.5 c 128,-1,56
 440 337 440 337 439 346 c 128,-1,57
 438 355 438 355 437 366 c 0,58,59
 435 377 435 377 431.5 386 c 128,-1,60
 428 395 428 395 425 397 c 0,61,62
 415 410 415 410 400 412 c 128,-1,63
 385 414 385 414 369 414 c 1,64,-1
 365 418 l 1,65,-1
 365 452 l 1,66,-1
 369 455 l 1,67,-1
 387 455 l 2,68,69
 399 455 399 455 415.5 455 c 128,-1,70
 432 455 432 455 449.5 455.5 c 128,-1,71
 467 456 467 456 484 456.5 c 128,-1,72
 501 457 501 457 514 459 c 2,73,-1
 549 464 l 1,74,-1
 555 455 l 2,75,76
 553 451 553 451 552 440.5 c 128,-1,77
 551 430 551 430 550 418 c 128,-1,78
 549 406 549 406 549 395 c 128,-1,79
 549 384 549 384 549 378 c 0,80,81
 549 370 549 370 548.5 363 c 128,-1,82
 548 356 548 356 548 346 c 128,-1,83
 548 336 548 336 547.5 322.5 c 128,-1,84
 547 309 547 309 547 287 c 2,85,-1
 547 195 l 2,86,87
 547 173 547 173 547.5 159 c 128,-1,88
 548 145 548 145 548.5 135 c 128,-1,89
 549 125 549 125 549.5 116.5 c 128,-1,90
 550 108 550 108 550 98 c 0,91,92
 552 75 552 75 555 64.5 c 128,-1,93
 558 54 558 54 565 49 c 0,94,95
 573 41 573 41 588.5 39.5 c 128,-1,96
 604 38 604 38 620 38 c 1,97,-1
 624 34 l 1,98,-1
 626 0 l 1,99,-1
 624 -4 l 1,100,101
 606 -2 606 -2 585 -1 c 128,-1,102
 564 0 564 0 544 0 c 0,103,104
 515 0 515 0 487.5 -0.5 c 128,-1,105
 460 -1 460 -1 435 -3 c 1,106,-1
 429 7 l 1,107,108
 432 20 432 20 435 32.5 c 128,-1,109
 438 45 438 45 440 67 c 1,110,111
 420 25 420 25 388.5 7 c 128,-1,112
 357 -11 357 -11 312 -11 c 0,113,114
 300 -11 300 -11 284.5 -9 c 128,-1,115
 269 -7 269 -7 254.5 -1.5 c 128,-1,116
 240 4 240 4 228 12.5 c 128,-1,117
 216 21 216 21 210 33 c 1,118,-1
 207 31 l 1,119,120
 200 -28 200 -28 196 -62.5 c 128,-1,121
 192 -97 192 -97 184 -125 c 1,122,-1
 179 -131 l 1,0,-1
EndSplineSet
EndChar
StartChar: paragraph
Encoding: 182 182 109
Width: 620
Flags: W
LayerCount: 2
Back
Fore
SplineSet
206 -125 m 1,0,-1
 209 -87 l 1,1,-1
 214 -84 l 1,2,3
 230 -84 230 -84 236 -81.5 c 128,-1,4
 242 -79 242 -79 247 -73 c 0,5,6
 255 -68 255 -68 261.5 -56.5 c 128,-1,7
 268 -45 268 -45 272 -16 c 0,8,9
 273 -8 273 -8 274 18.5 c 128,-1,10
 275 45 275 45 275.5 78 c 128,-1,11
 276 111 276 111 276.5 143.5 c 128,-1,12
 277 176 277 176 277 197 c 2,13,-1
 277 245 l 1,14,15
 241 247 241 247 198.5 257 c 128,-1,16
 156 267 156 267 120 290 c 128,-1,17
 84 313 84 313 60 352.5 c 128,-1,18
 36 392 36 392 36 454 c 0,19,20
 36 502 36 502 52 539.5 c 128,-1,21
 68 577 68 577 93.5 602.5 c 128,-1,22
 119 628 119 628 150.5 641.5 c 128,-1,23
 182 655 182 655 213 655 c 0,24,25
 222 655 222 655 237 655 c 128,-1,26
 252 655 252 655 269 654.5 c 128,-1,27
 286 654 286 654 303 654 c 128,-1,28
 320 654 320 654 333 654 c 2,29,-1
 466 654 l 2,30,31
 476 654 476 654 489.5 655 c 128,-1,32
 503 656 503 656 515.5 657 c 128,-1,33
 528 658 528 658 539.5 659 c 128,-1,34
 551 660 551 660 558 660 c 1,35,-1
 560 656 l 1,36,-1
 557 618 l 1,37,-1
 552 614 l 1,38,39
 536 614 536 614 530 611 c 128,-1,40
 524 608 524 608 519 603 c 0,41,42
 511 596 511 596 504.5 586 c 128,-1,43
 498 576 498 576 494 547 c 0,44,45
 492 530 492 530 491.5 509.5 c 128,-1,46
 491 489 491 489 491 451 c 2,47,-1
 491 231 l 2,48,49
 491 201 491 201 491 161.5 c 128,-1,50
 491 122 491 122 491.5 85 c 128,-1,51
 492 48 492 48 492.5 19.5 c 128,-1,52
 493 -9 493 -9 494 -16 c 0,53,54
 497 -42 497 -42 504 -55 c 128,-1,55
 511 -68 511 -68 519 -74 c 0,56,57
 524 -81 524 -81 534 -82.5 c 128,-1,58
 544 -84 544 -84 552 -84 c 1,59,-1
 557 -87 l 1,60,-1
 560 -125 l 1,61,-1
 558 -129 l 1,62,63
 551 -128 551 -128 535 -127.5 c 128,-1,64
 519 -127 519 -127 502 -126 c 128,-1,65
 485 -125 485 -125 469 -124.5 c 128,-1,66
 453 -124 453 -124 446 -124 c 2,67,-1
 340 -124 l 2,68,69
 332 -124 332 -124 313.5 -124.5 c 128,-1,70
 295 -125 295 -125 274 -126 c 128,-1,71
 253 -127 253 -127 234.5 -127.5 c 128,-1,72
 216 -128 216 -128 208 -129 c 1,73,-1
 206 -125 l 1,0,-1
346 -56 m 1,74,-1
 425 -56 l 1,75,-1
 427 -52 l 1,76,77
 423 -27 423 -27 421 -8 c 128,-1,78
 419 11 419 11 418 29 c 128,-1,79
 417 47 417 47 417 67 c 128,-1,80
 417 87 417 87 417 114 c 2,81,-1
 417 367 l 2,82,83
 417 411 417 411 418 469 c 128,-1,84
 419 527 419 527 427 582 c 1,85,-1
 425 586 l 1,86,-1
 346 586 l 1,87,-1
 344 582 l 1,88,89
 351 527 351 527 352 469 c 128,-1,90
 353 411 353 411 353 367 c 2,91,-1
 353 114 l 2,92,93
 353 82 353 82 352.5 60 c 128,-1,94
 352 38 352 38 351.5 20.5 c 128,-1,95
 351 3 351 3 349 -13.5 c 128,-1,96
 347 -30 347 -30 344 -52 c 1,97,-1
 346 -56 l 1,74,-1
EndSplineSet
EndChar
StartChar: periodcentered
Encoding: 183 183 114
Width: 255
Flags: W
LayerCount: 2
Back
Fore
SplineSet
63 244 m 0,0,1
 63 256 63 256 68 268 c 128,-1,2
 73 280 73 280 82 289.5 c 128,-1,3
 91 299 91 299 102.5 304.5 c 128,-1,4
 114 310 114 310 127 310 c 0,5,6
 152 310 152 310 172.5 289.5 c 128,-1,7
 193 269 193 269 193 244 c 0,8,9
 193 231 193 231 187.5 219.5 c 128,-1,10
 182 208 182 208 172.5 199 c 128,-1,11
 163 190 163 190 151 185 c 128,-1,12
 139 180 139 180 127 180 c 0,13,14
 101 180 101 180 82 199 c 128,-1,15
 63 218 63 218 63 244 c 0,0,1
EndSplineSet
EndChar
StartChar: cedilla
Encoding: 184 184 52
Width: 202
Flags: W
LayerCount: 2
Back
Fore
SplineSet
0 -178 m 1,0,-1
 13 -140 l 1,1,-1
 20 -140 l 2,2,3
 32 -143 32 -143 51 -149 c 128,-1,4
 70 -155 70 -155 89 -155 c 0,5,6
 111 -155 111 -155 127 -149.5 c 128,-1,7
 143 -144 143 -144 143 -127 c 0,8,9
 143 -109 143 -109 127.5 -102.5 c 128,-1,10
 112 -96 112 -96 91 -96 c 0,11,12
 79 -96 79 -96 66.5 -98 c 128,-1,13
 54 -100 54 -100 43 -103 c 1,14,-1
 34 -77 l 1,15,-1
 85 0 l 1,16,-1
 139 0 l 1,17,-1
 114 -39 l 2,18,19
 117 -38 117 -38 121.5 -37.5 c 128,-1,20
 126 -37 126 -37 128 -37 c 0,21,22
 170 -37 170 -37 193.5 -60.5 c 128,-1,23
 217 -84 217 -84 217 -119 c 0,24,25
 217 -137 217 -137 207.5 -154 c 128,-1,26
 198 -171 198 -171 181.5 -184 c 128,-1,27
 165 -197 165 -197 142 -205 c 128,-1,28
 119 -213 119 -213 92 -213 c 0,29,30
 68 -213 68 -213 44.5 -205 c 128,-1,31
 21 -197 21 -197 1 -184 c 1,32,-1
 0 -178 l 1,0,-1
EndSplineSet
EndChar
